<?xml version="1.0" encoding="utf-8"?>
<!-- Generator: Adobe Illustrator 27.0.0, SVG Export Plug-In . SVG Version: 6.00 Build 0)  -->
<svg version="1.1" id="Layer_1" xmlns="http://www.w3.org/2000/svg" xmlns:xlink="http://www.w3.org/1999/xlink" x="0px" y="0px"
	 viewBox="0 0 232 68" style="enable-background:new 0 0 232 68;" xml:space="preserve">
<style type="text/css">
	.st0{fill:#FFFFFF;}
</style>
<g>
	<g>
		<path class="st0" d="M1.9,43.8c-0.3,0-0.5-0.1-0.6-0.2C1.1,43.4,1,43.2,1,43V18.3c0-0.3,0.1-0.5,0.2-0.7c0.2-0.2,0.4-0.2,0.6-0.2
			h10.4c1.9,0,3.4,0.3,4.6,0.9c1.2,0.6,2.1,1.5,2.6,2.5c0.6,1.1,0.9,2.2,0.9,3.6c0,1-0.2,1.9-0.5,2.7c-0.3,0.7-0.8,1.3-1.3,1.8
			c-0.5,0.5-1,0.8-1.5,1.1c1,0.5,1.9,1.3,2.6,2.3c0.8,1.1,1.2,2.4,1.2,3.9c0,1.4-0.3,2.7-0.9,3.8c-0.6,1.2-1.6,2.1-2.8,2.8
			c-1.2,0.7-2.8,1-4.6,1H1.9z M4.7,28.6h7c1.6,0,2.8-0.4,3.7-1.1c0.8-0.7,1.2-1.8,1.2-3c0-1.3-0.4-2.3-1.2-2.9c-0.8-0.7-2.1-1-3.7-1
			h-7V28.6z M4.7,40.8H12c1.6,0,2.9-0.4,3.7-1.3c0.9-0.9,1.3-2,1.3-3.2c0-1.3-0.4-2.4-1.3-3.3c-0.9-0.9-2.1-1.3-3.7-1.3H4.7V40.8z"
			/>
		<path class="st0" d="M24.2,43.8c-0.2,0-0.4-0.1-0.5-0.2c-0.2-0.2-0.2-0.3-0.2-0.5c0-0.1,0-0.3,0-0.4l9.4-24.4
			c0.1-0.3,0.2-0.5,0.4-0.6c0.2-0.2,0.4-0.2,0.8-0.2h2.6c0.4,0,0.6,0.1,0.8,0.2c0.2,0.2,0.3,0.4,0.4,0.6l9.3,24.4
			c0.1,0.2,0.1,0.3,0.1,0.4c0,0.2-0.1,0.4-0.2,0.5c-0.2,0.2-0.3,0.2-0.5,0.2h-1.9c-0.3,0-0.5-0.1-0.7-0.2c-0.1-0.2-0.2-0.3-0.3-0.4
			l-2.1-5.4H29.1L27,43.2c0,0.1-0.1,0.3-0.3,0.4c-0.2,0.2-0.4,0.2-0.7,0.2H24.2z M30.2,34.6h10.2l-5.1-13.4L30.2,34.6z"/>
		<path class="st0" d="M52.1,43.8c-0.3,0-0.5-0.1-0.6-0.2c-0.2-0.2-0.2-0.4-0.2-0.6V18.2c0-0.3,0.1-0.5,0.2-0.6
			c0.2-0.2,0.4-0.2,0.6-0.2h2c0.3,0,0.5,0.1,0.6,0.2c0.2,0.2,0.2,0.4,0.2,0.6v22.3h12.5c0.3,0,0.5,0.1,0.7,0.2
			c0.2,0.2,0.2,0.4,0.2,0.7V43c0,0.3-0.1,0.5-0.2,0.6c-0.2,0.2-0.4,0.2-0.7,0.2H52.1z"/>
		<path class="st0" d="M73.4,43.8c-0.3,0-0.5-0.1-0.6-0.2c-0.2-0.2-0.2-0.4-0.2-0.6V18.3c0-0.3,0.1-0.5,0.2-0.7
			c0.2-0.2,0.4-0.2,0.6-0.2H89c0.3,0,0.5,0.1,0.6,0.2c0.2,0.2,0.2,0.4,0.2,0.7v1.4c0,0.3-0.1,0.5-0.2,0.6c-0.2,0.2-0.4,0.2-0.6,0.2
			H76.2v8.3h12c0.3,0,0.5,0.1,0.6,0.2c0.2,0.2,0.2,0.4,0.2,0.7v1.4c0,0.3-0.1,0.5-0.2,0.6C88.7,32,88.4,32,88.2,32h-12v8.6h13.1
			c0.3,0,0.5,0.1,0.6,0.2c0.2,0.2,0.2,0.4,0.2,0.6V43c0,0.3-0.1,0.5-0.2,0.6c-0.2,0.2-0.4,0.2-0.6,0.2H73.4z"/>
		<path class="st0" d="M96.3,43.8c-0.3,0-0.5-0.1-0.6-0.2c-0.2-0.2-0.2-0.4-0.2-0.6V18.3c0-0.3,0.1-0.5,0.2-0.7
			c0.2-0.2,0.4-0.2,0.6-0.2h9.2c2.8,0,5.1,0.7,6.8,2c1.7,1.3,2.5,3.3,2.5,5.9c0,1.9-0.5,3.5-1.5,4.7c-1,1.2-2.3,2.1-3.9,2.6
			l5.8,10.1c0.1,0.2,0.1,0.3,0.1,0.4c0,0.2-0.1,0.4-0.2,0.5c-0.2,0.2-0.3,0.2-0.5,0.2h-1.8c-0.4,0-0.7-0.1-0.9-0.3
			c-0.2-0.2-0.4-0.5-0.5-0.7l-5.5-9.6h-6.6V43c0,0.3-0.1,0.5-0.2,0.6c-0.2,0.2-0.4,0.2-0.7,0.2H96.3z M99.1,30h6.2
			c1.9,0,3.3-0.4,4.2-1.2c0.9-0.8,1.4-2,1.4-3.5c0-1.5-0.5-2.7-1.4-3.5c-0.9-0.8-2.3-1.2-4.3-1.2h-6.2V30z"/>
		<path class="st0" d="M123.1,51c-0.2,0-0.4-0.1-0.5-0.2c-0.2-0.2-0.2-0.3-0.2-0.5c0-0.1,0-0.2,0-0.3c0-0.1,0.1-0.2,0.2-0.4l2.9-6.9
			l-7.2-17c-0.1-0.3-0.2-0.5-0.2-0.6c0-0.2,0.1-0.4,0.2-0.6c0.2-0.2,0.3-0.2,0.6-0.2h1.9c0.3,0,0.5,0.1,0.6,0.2
			c0.1,0.1,0.2,0.3,0.3,0.5l5.7,13.8l5.9-13.8c0.1-0.2,0.2-0.3,0.3-0.5c0.1-0.1,0.3-0.2,0.6-0.2h1.8c0.2,0,0.4,0.1,0.6,0.2
			c0.2,0.2,0.2,0.3,0.2,0.5c0,0.1-0.1,0.4-0.2,0.7l-10.7,24.7c-0.1,0.2-0.2,0.3-0.3,0.5c-0.1,0.1-0.3,0.2-0.6,0.2H123.1z"/>
		<path class="st0" d="M144.7,43.8c-0.3,0-0.5-0.1-0.6-0.2c-0.2-0.2-0.2-0.4-0.2-0.6V20.7h-7.3c-0.3,0-0.5-0.1-0.6-0.2
			c-0.2-0.2-0.2-0.4-0.2-0.6v-1.6c0-0.3,0.1-0.5,0.2-0.7c0.2-0.2,0.4-0.2,0.6-0.2h18.2c0.3,0,0.5,0.1,0.7,0.2
			c0.2,0.2,0.2,0.4,0.2,0.7v1.6c0,0.3-0.1,0.5-0.2,0.6c-0.2,0.2-0.4,0.2-0.7,0.2h-7.2V43c0,0.3-0.1,0.5-0.2,0.6
			c-0.2,0.2-0.4,0.2-0.7,0.2H144.7z"/>
		<path class="st0" d="M168.8,44.2c-2.2,0-4-0.4-5.6-1.1c-1.5-0.7-2.7-1.9-3.6-3.4c-0.8-1.5-1.3-3.5-1.4-5.8c0-1.1,0-2.2,0-3.2
			c0-1,0-2.1,0-3.2c0.1-2.3,0.6-4.3,1.5-5.8c0.9-1.5,2.1-2.7,3.6-3.5c1.5-0.8,3.4-1.2,5.4-1.2c2,0,3.8,0.4,5.4,1.2
			c1.5,0.8,2.8,1.9,3.6,3.5c0.9,1.5,1.4,3.5,1.4,5.8c0.1,1.1,0.1,2.2,0.1,3.2c0,1,0,2.1-0.1,3.2c-0.1,2.3-0.5,4.3-1.4,5.8
			c-0.8,1.5-2,2.7-3.6,3.4C172.8,43.8,171,44.2,168.8,44.2 M168.8,41c1.9,0,3.5-0.6,4.7-1.7c1.2-1.2,1.9-3,2-5.6
			c0.1-1.1,0.1-2.1,0.1-3c0-0.9,0-1.9-0.1-3c-0.1-1.7-0.4-3.1-1-4.2c-0.6-1.1-1.4-1.9-2.4-2.4c-1-0.5-2.1-0.8-3.4-0.8
			c-1.3,0-2.4,0.3-3.4,0.8c-1,0.5-1.8,1.3-2.4,2.4c-0.6,1.1-0.9,2.5-1,4.2c0,1.1,0,2.1,0,3c0,0.9,0,1.9,0,3c0.1,2.6,0.8,4.5,2,5.6
			C165.4,40.4,166.9,41,168.8,41"/>
		<path class="st0" d="M185.8,43.8c-0.3,0-0.5-0.1-0.6-0.2c-0.2-0.2-0.2-0.4-0.2-0.6V18.3c0-0.3,0.1-0.5,0.2-0.7
			c0.2-0.2,0.4-0.2,0.6-0.2h8.6c2.6,0,4.7,0.4,6.3,1.2c1.6,0.8,2.7,1.9,3.5,3.5c0.7,1.5,1.1,3.4,1.1,5.6c0,1.1,0,2.1,0,3
			c0,0.9,0,1.8,0,2.9c-0.1,2.3-0.4,4.2-1.2,5.8c-0.7,1.5-1.9,2.7-3.4,3.4c-1.5,0.7-3.6,1.1-6.1,1.1H185.8z M188.6,40.6h5.7
			c1.7,0,3.1-0.2,4.2-0.7c1-0.5,1.8-1.2,2.2-2.3c0.5-1.1,0.7-2.5,0.7-4.2c0.1-0.8,0.1-1.4,0.1-2v-1.7c0-0.6,0-1.2-0.1-1.9
			c-0.1-2.4-0.6-4.3-1.7-5.4c-1.1-1.2-3-1.8-5.6-1.8h-5.6V40.6z"/>
		<path class="st0" d="M220.5,44.2c-2.2,0-4-0.4-5.6-1.1c-1.5-0.7-2.7-1.9-3.6-3.4c-0.8-1.5-1.3-3.5-1.4-5.8c0-1.1,0-2.2,0-3.2
			c0-1,0-2.1,0-3.2c0.1-2.3,0.6-4.3,1.5-5.8c0.9-1.5,2.1-2.7,3.6-3.5c1.5-0.8,3.4-1.2,5.4-1.2c2,0,3.8,0.4,5.4,1.2
			c1.5,0.8,2.8,1.9,3.6,3.5c0.9,1.5,1.4,3.5,1.4,5.8c0.1,1.1,0.1,2.2,0.1,3.2c0,1,0,2.1-0.1,3.2c-0.1,2.3-0.5,4.3-1.4,5.8
			c-0.8,1.5-2,2.7-3.6,3.4C224.4,43.8,222.6,44.2,220.5,44.2 M220.5,41c1.9,0,3.5-0.6,4.7-1.7c1.2-1.2,1.9-3,2-5.6
			c0.1-1.1,0.1-2.1,0.1-3c0-0.9,0-1.9-0.1-3c-0.1-1.7-0.4-3.1-1-4.2c-0.6-1.1-1.4-1.9-2.4-2.4c-1-0.5-2.1-0.8-3.4-0.8
			c-1.3,0-2.4,0.3-3.4,0.8c-1,0.5-1.8,1.3-2.4,2.4c-0.6,1.1-0.9,2.5-1,4.2c0,1.1,0,2.1,0,3c0,0.9,0,1.9,0,3c0.1,2.6,0.8,4.5,2,5.6
			C217,40.4,218.5,41,220.5,41"/>
	</g>
</g>
</svg>
