<?xml version="1.0" encoding="utf-8"?>
<!-- Generator: Adobe Illustrator 27.0.0, SVG Export Plug-In . SVG Version: 6.00 Build 0)  -->
<svg version="1.1" id="Layer_1" xmlns="http://www.w3.org/2000/svg" xmlns:xlink="http://www.w3.org/1999/xlink" x="0px" y="0px"
	 viewBox="0 0 68 68" style="enable-background:new 0 0 68 68;" xml:space="preserve">
<style type="text/css">
	.st0{fill:#2B378B;}
	.st1{fill:#FFFFFF;}
</style>
<g>
	<path class="st0" d="M50.8,47.8C50.8,47.8,50.8,47.8,50.8,47.8C50.8,47.8,50.8,47.8,50.8,47.8c0-0.1,0-0.1,0-0.1c0,0,0-0.1,0-0.1
		c0,0,0-0.1,0-0.1c0,0,0,0,0,0c0,0,0,0,0,0c0,0,0-0.1,0-0.1c0,0,0-0.1,0-0.1c0,0,0-0.1,0-0.1c0,0,0,0,0,0c0,0,0,0,0,0
		c0,0,0-0.1,0-0.1c0,0,0-0.1,0-0.1c0,0,0-0.1,0-0.1c0,0,0,0,0,0c0,0,0,0,0,0c0,0,0-0.1,0-0.1c0,0,0-0.1,0-0.1c0,0,0-0.1,0-0.1l0,0v0
		c0,0,0-0.1,0-0.1c0,0,0-0.1,0-0.1c0,0,0-0.1,0-0.1c0,0,0,0,0,0c0,0,0,0,0,0c0,0,0-0.1,0-0.1c0,0,0-0.1,0-0.1c0,0,0-0.1,0-0.1
		c0,0,0,0,0,0c0,0,0,0,0,0c0,0,0-0.1,0-0.1c0,0,0-0.1,0-0.1c0,0,0,0,0-0.1c0,0,0,0,0,0c0,0,0,0,0,0c0,0,0,0,0-0.1c0,0,0-0.1,0-0.1
		c0,0,0-0.1,0-0.1c0,0,0,0,0,0c0,0,0,0,0,0c0,0,0-0.1,0-0.1c0,0,0-0.1,0-0.1c0,0,0-0.1,0-0.1c0,0,0,0,0,0c0,0,0,0,0,0
		c0,0,0-0.1,0-0.1c0,0,0-0.1,0-0.1c0,0,0,0,0,0c0,0,0,0,0,0c0,0,0-0.1,0-0.1c0,0,0-0.1-0.1-0.1c0,0,0-0.1,0-0.1c0,0,0,0,0,0
		c0,0,0,0,0,0c0-0.1,0-0.1-0.1-0.2c0-0.1,0-0.1-0.1-0.2c0,0,0,0,0,0c0,0,0,0,0,0c0,0,0-0.1-0.1-0.1c0-0.1,0-0.1-0.1-0.1c0,0,0,0,0,0
		c0,0,0,0,0,0c0,0,0-0.1,0-0.1c0-0.1-0.1-0.1-0.1-0.2c0,0,0,0,0,0c0,0,0,0,0,0c0,0,0-0.1,0-0.1c0-0.1-0.1-0.1-0.1-0.2c0,0,0,0,0,0
		c0,0,0,0,0,0c0,0,0,0,0,0c0,0,0-0.1-0.1-0.1c0-0.1-0.1-0.1-0.1-0.2l0,0c0,0,0,0,0,0c0-0.1-0.1-0.1-0.1-0.2c0,0,0-0.1-0.1-0.1
		c0,0,0,0,0,0c0,0,0,0,0,0c0-0.1-0.1-0.1-0.1-0.2c0,0,0,0,0,0c0,0,0,0,0-0.1c0,0-0.1-0.1-0.1-0.1c0,0,0,0,0-0.1c0,0,0-0.1-0.1-0.1
		c0,0,0,0,0-0.1c0,0-0.1-0.1-0.1-0.1c0,0,0,0,0-0.1c0,0,0,0,0,0c0,0,0,0,0,0c-0.1-0.1-0.2-0.2-0.2-0.3c0,0-0.1-0.1-0.1-0.1
		c-0.1-0.1-0.2-0.2-0.2-0.2c0,0,0,0,0-0.1c0,0,0,0,0,0c0,0,0,0,0,0c-0.1-0.1-0.2-0.2-0.3-0.3c0,0-0.1,0-0.1-0.1
		c-0.1-0.1-0.2-0.1-0.3-0.2c0,0,0,0-0.1,0c0,0,0,0,0,0c-0.1-0.1-0.2-0.2-0.3-0.2c0,0,0,0-0.1,0c-0.1-0.1-0.2-0.2-0.4-0.2
		c0,0,0,0,0,0c0,0,0,0-0.1,0c-0.1-0.1-0.2-0.1-0.3-0.2c0,0-0.1,0-0.1-0.1c-0.1-0.1-0.2-0.1-0.4-0.2L37,33.8c0.1,0.1,0.2,0.1,0.4,0.2
		c0,0,0.1,0,0.1,0.1c0.1,0.1,0.2,0.1,0.3,0.2c0,0,0.1,0,0.1,0.1c0.1,0.1,0.2,0.2,0.3,0.2c0,0,0,0,0,0c0.1,0.1,0.2,0.1,0.3,0.2
		c0,0,0.1,0.1,0.1,0.1c0.1,0.1,0.2,0.1,0.2,0.2c0,0,0.1,0,0.1,0.1c0.1,0.1,0.2,0.2,0.3,0.3c0,0,0,0,0.1,0.1c0.1,0.1,0.2,0.2,0.2,0.2
		c0,0,0.1,0.1,0.1,0.1c0.1,0.1,0.2,0.2,0.2,0.3c0,0,0,0,0.1,0.1c0,0,0,0,0,0.1c0.1,0.1,0.1,0.1,0.2,0.2c0,0,0,0.1,0.1,0.1
		c0,0.1,0.1,0.1,0.1,0.2c0,0,0,0,0,0.1c0.1,0.1,0.1,0.2,0.2,0.3c0,0,0,0,0,0c0.1,0.1,0.1,0.2,0.2,0.3c0,0,0,0,0,0
		c0.1,0.1,0.1,0.2,0.2,0.3c0,0,0,0,0,0c0,0.1,0.1,0.2,0.1,0.3c0,0,0,0,0,0c0,0.1,0.1,0.2,0.1,0.3c0,0,0,0,0,0c0,0.1,0.1,0.2,0.1,0.3
		c0,0,0,0,0,0c0,0.1,0.1,0.2,0.1,0.3c0,0,0,0,0,0c0,0.1,0.1,0.2,0.1,0.3c0,0,0,0,0,0c0,0.1,0.1,0.2,0.1,0.3c0,0,0,0,0,0
		c0,0.1,0.1,0.2,0.1,0.3c0,0,0,0,0,0c0,0.1,0.1,0.2,0.1,0.3c0,0,0,0,0,0c0,0.1,0.1,0.2,0.1,0.3c0,0,0,0,0,0c0,0.1,0,0.2,0.1,0.3
		c0,0,0,0,0,0c0,0.1,0,0.2,0.1,0.4c0,0,0,0,0,0c0,0.1,0,0.2,0,0.4c0,0,0,0,0,0c0,0.1,0,0.2,0,0.4c0,0,0,0,0,0c0,0.1,0,0.2,0,0.4
		c0,0,0,0,0,0c0,0.1,0,0.2,0,0.4l0,0c0,0.1,0,0.3,0,0.4c0,0.1,0,0.2,0,0.3c0,0,0,0,0,0c0,0.1,0,0.2,0,0.3c0,0,0,0,0,0
		c0,0.1,0,0.2,0,0.3c0,0,0,0,0,0c0,0.1,0,0.2,0,0.3c0,0,0,0,0,0c0,0.1,0,0.2,0,0.3c0,0,0,0,0,0c0,0.1,0,0.2,0,0.3c0,0,0,0,0,0
		c0,0.1,0,0.2,0,0.3c0,0,0,0,0,0c0,0.2-0.1,0.4-0.1,0.6c0,0,0,0,0,0c0,0.1,0,0.2-0.1,0.3c0,0,0,0,0,0c0,0.1,0,0.2-0.1,0.3
		c0,0,0,0,0,0c0,0.1,0,0.2-0.1,0.2c0,0,0,0,0,0.1c0,0.1,0,0.2-0.1,0.3c0,0,0,0,0,0c0,0.1-0.1,0.2-0.1,0.3c0,0,0,0,0,0.1
		c0,0.1,0,0.1-0.1,0.2c0,0,0,0.1,0,0.1c0,0.1,0,0.1-0.1,0.2c0,0,0,0.1,0,0.1c0,0.1,0,0.1-0.1,0.2c0,0,0,0.1,0,0.1
		c0,0.1,0,0.1-0.1,0.2c0,0,0,0.1,0,0.1c0,0,0,0,0,0C41,48.7,41,48.8,40.9,49c0,0,0,0,0,0c-0.1,0.1-0.1,0.3-0.2,0.4c0,0,0,0,0,0.1
		c-0.1,0.1-0.2,0.3-0.2,0.4c0,0,0,0,0,0.1c-0.1,0.1-0.2,0.3-0.2,0.4c0,0.1-0.1,0.1-0.1,0.2c0,0,0,0,0,0c0,0.1-0.1,0.1-0.1,0.2
		c0,0,0,0,0,0c0,0.1-0.1,0.1-0.1,0.2c0,0,0,0,0,0c0,0,0,0,0,0c-0.1,0.2-0.2,0.3-0.3,0.5c0,0,0,0,0,0c-0.1,0.2-0.2,0.3-0.4,0.4
		c-0.1,0.1-0.1,0.2-0.2,0.2c-0.1,0.1-0.1,0.1-0.2,0.2c-0.1,0.1-0.1,0.2-0.2,0.2c-0.1,0.1-0.1,0.1-0.2,0.2c-0.1,0.1-0.3,0.3-0.4,0.4
		c0,0,0,0,0,0c-0.1,0.1-0.3,0.3-0.4,0.4c0,0,0,0,0,0c-0.1,0.1-0.3,0.2-0.4,0.4c0,0,0,0,0,0c-0.1,0.1-0.3,0.2-0.5,0.4c0,0,0,0,0,0
		c-0.2,0.1-0.3,0.2-0.5,0.3c0,0,0,0,0,0c-0.2,0.1-0.3,0.2-0.5,0.3c0,0,0,0,0,0c-0.1,0-0.2,0.1-0.2,0.1c0,0,0,0,0,0
		c-0.1,0-0.2,0.1-0.2,0.1l0,0c-0.1,0-0.2,0.1-0.3,0.1c0,0,0,0,0,0c-0.1,0-0.2,0.1-0.3,0.1c0,0,0,0,0,0c-0.1,0-0.2,0.1-0.3,0.1
		c0,0,0,0,0,0c-0.1,0-0.2,0.1-0.3,0.1c0,0,0,0,0,0c-0.2,0.1-0.4,0.2-0.5,0.2c0,0,0,0,0,0c-0.1,0-0.2,0.1-0.3,0.1c0,0,0,0,0,0
		c-0.1,0-0.2,0.1-0.3,0.1c0,0,0,0,0,0c-0.1,0-0.2,0.1-0.3,0.1c0,0,0,0,0,0c-0.1,0-0.2,0.1-0.3,0.1c0,0,0,0,0,0
		c-0.1,0-0.2,0.1-0.3,0.1c0,0,0,0,0,0c-0.1,0-0.2,0-0.3,0.1c0,0,0,0,0,0c-0.1,0-0.2,0-0.3,0.1c0,0,0,0,0,0c-0.1,0-0.2,0-0.3,0.1
		c-0.1,0-0.2,0-0.3,0.1c0,0,0,0,0,0c-0.1,0-0.2,0-0.3,0c0,0,0,0,0,0c-0.1,0-0.2,0-0.3,0c0,0,0,0,0,0c-0.1,0-0.2,0-0.3,0c0,0,0,0,0,0
		c-0.1,0-0.2,0-0.2,0c0,0,0,0,0,0c-0.1,0-0.2,0-0.2,0c0,0,0,0,0,0c-0.1,0-0.2,0-0.2,0c0,0,0,0,0,0c-0.1,0-0.2,0-0.3,0c0,0,0,0,0,0
		c-0.1,0-0.2,0-0.2,0c0,0,0,0,0,0c-0.1,0-0.2,0-0.2,0c0,0,0,0-0.1,0c-0.1,0-0.1,0-0.2,0c0,0,0,0,0,0c-0.1,0-0.2,0-0.2,0
		c0,0,0,0-0.1,0c-0.1,0-0.1,0-0.2,0c0,0,0,0-0.1,0c-0.1,0-0.2,0-0.2,0c0,0,0,0-0.1,0c-0.1,0-0.1,0-0.2,0c0,0-0.1,0-0.1,0
		c0,0-0.1,0-0.1,0c0,0-0.1,0-0.1,0c0,0-0.1,0-0.1,0c0,0-0.1,0-0.1,0c0,0-0.1,0-0.1,0c0,0-0.1,0-0.1,0c0,0-0.1,0-0.1,0
		c0,0-0.1,0-0.1,0c0,0-0.1,0-0.1,0c-0.1,0-0.2-0.1-0.3-0.1c0,0,0,0,0,0c-0.1,0-0.2-0.1-0.3-0.1c0,0-0.1,0-0.1,0
		c-0.1,0-0.2-0.1-0.3-0.2c0,0,0,0,0,0c-0.1,0-0.2-0.1-0.3-0.2c0,0,0,0-0.1,0c-0.1-0.1-0.2-0.1-0.3-0.2c0,0,0,0-0.1,0
		c-0.1-0.1-0.2-0.1-0.3-0.2c0,0,0,0,0,0c-0.1-0.1-0.2-0.1-0.3-0.2c0,0,0,0-0.1,0c-0.1-0.1-0.2-0.1-0.3-0.2l0,0c0,0,0.5,0.4,0.7,0.6
		c0.1,0.1,0.3,0.2,0.4,0.3c0.2,0.2,0.5,0.4,0.7,0.6c0.1,0.1,0.2,0.2,0.3,0.3l0,0c0.1,0.1,0.1,0.1,0.2,0.2l0.1,0.1c0,0,0,0,0,0
		c0,0,0.1,0.1,0.2,0.1l0.1,0c0.1,0,0.1,0.1,0.2,0.1c0,0,0,0,0.1,0.1l0.1,0.1c0,0,0.1,0.1,0.1,0.1l0.2,0.1c0.1,0,0.1,0.1,0.2,0.1
		l0.1,0.1c0.1,0.1,0.2,0.2,0.3,0.3l0,0c0.1,0,0.1,0.1,0.2,0.1l0.1,0c0.1,0,0.1,0.1,0.2,0.1c0.1,0.1,0.3,0.2,0.4,0.3
		c0.1,0.1,0.2,0.2,0.4,0.3l0.2,0.1c0.1,0.1,0.2,0.1,0.2,0.2c0,0,0.1,0.1,0.1,0.1l0.3,0.2c0.1,0.1,0.3,0.2,0.4,0.3
		c0.1,0.1,0.3,0.2,0.4,0.3c0,0,0.1,0.1,0.2,0.1l0.1,0.1c0,0,0,0,0,0l0.3,0.2c0,0,0,0,0,0l0.2,0.1c0.1,0.1,0.2,0.2,0.3,0.2
		c0,0,0,0,0.1,0c0.1,0.1,0.2,0.1,0.3,0.2c0,0,0,0,0,0c0,0,0,0,0,0c0.1,0.1,0.2,0.1,0.3,0.2c0,0,0,0,0.1,0c0.1,0.1,0.2,0.1,0.3,0.2
		c0,0,0,0,0,0c0,0,0,0,0,0c0.1,0.1,0.2,0.1,0.3,0.2c0,0,0,0,0,0c0,0,0,0,0,0c0.1,0.1,0.2,0.1,0.3,0.1c0,0,0,0,0,0c0,0,0,0,0,0
		c0.1,0,0.2,0.1,0.4,0.1c0,0,0,0,0,0c0.1,0,0.2,0.1,0.3,0.1c0,0,0,0,0,0c0,0,0,0,0,0c0,0,0.1,0,0.1,0c0,0,0.1,0,0.1,0c0,0,0,0,0,0
		c0,0,0.1,0,0.1,0c0,0,0.1,0,0.1,0c0,0,0,0,0.1,0c0,0,0.1,0,0.1,0c0,0,0.1,0,0.1,0c0,0,0,0,0.1,0c0,0,0,0,0.1,0c0,0,0.1,0,0.1,0
		c0,0,0.1,0,0.1,0c0,0,0,0,0.1,0c0,0,0.1,0,0.1,0c0,0,0,0,0.1,0c0,0,0.1,0,0.1,0c0,0,0,0,0.1,0c0,0,0,0,0,0c0.1,0,0.1,0,0.2,0
		c0,0,0,0,0,0c0,0,0,0,0.1,0c0,0,0.1,0,0.1,0c0,0,0.1,0,0.1,0c0,0,0,0,0.1,0c0,0,0,0,0,0c0.1,0,0.1,0,0.2,0c0,0,0,0,0,0c0,0,0,0,0,0
		c0,0,0.1,0,0.1,0c0,0,0.1,0,0.1,0c0,0,0,0,0.1,0c0,0,0,0,0,0c0.1,0,0.1,0,0.2,0c0,0,0,0,0,0c0,0,0,0,0,0c0,0,0.1,0,0.1,0
		c0.1,0,0.1,0,0.2,0h0c0,0,0,0,0,0c0,0,0,0,0,0c0.1,0,0.1,0,0.2,0c0,0,0.1,0,0.1,0c0,0,0,0,0,0c0,0,0,0,0,0c0.1,0,0.1,0,0.2,0
		c0,0,0.1,0,0.1,0c0,0,0,0,0,0c0,0,0,0,0,0c0.1,0,0.1,0,0.2,0c0,0,0,0,0.1,0c0,0,0,0,0,0c0,0,0,0,0.1,0c0.1,0,0.1,0,0.2,0
		c0,0,0,0,0,0c0,0,0,0,0,0c0,0,0,0,0.1,0c0.1,0,0.1,0,0.2,0c0,0,0,0,0,0c0,0,0,0,0,0c0,0,0,0,0.1,0c0,0,0.1,0,0.1,0c0,0,0,0,0,0
		c0,0,0,0,0,0c0,0,0,0,0.1,0c0,0,0.1,0,0.1,0c0,0,0,0,0.1,0c0,0,0,0,0,0c0,0,0,0,0,0c0,0,0.1,0,0.1,0c0,0,0.1,0,0.1,0
		c0,0,0.1,0,0.1,0c0,0,0,0,0.1,0c0,0,0,0,0.1,0c0,0,0,0,0.1,0c0,0,0,0,0.1,0c0,0,0.1,0,0.1,0c0,0,0,0,0,0c0,0,0,0,0,0
		c0,0,0.1,0,0.1,0c0,0,0.1,0,0.1,0c0,0,0,0,0,0c0,0,0,0,0,0c0,0,0.1,0,0.1,0c0,0,0.1,0,0.1,0c0,0,0,0,0,0c0,0,0,0,0,0
		c0,0,0.1,0,0.1,0c0,0,0.1,0,0.1,0c0,0,0,0,0,0c0,0,0,0,0,0c0,0,0.1,0,0.1,0c0,0,0.1,0,0.1,0c0,0,0,0,0,0l0,0c0,0,0,0,0.1,0
		c0,0,0.1,0,0.1,0c0,0,0,0,0.1,0c0,0,0,0,0,0c0,0,0,0,0,0c0,0,0.1,0,0.1-0.1c0,0,0.1,0,0.1,0c0,0,0,0,0,0c0,0,0,0,0,0
		c0,0,0.1,0,0.1-0.1c0,0,0.1,0,0.1,0c0,0,0,0,0,0c0,0,0,0,0,0c0,0,0.1,0,0.1-0.1c0,0,0.1,0,0.1-0.1c0,0,0,0,0,0c0,0,0,0,0,0
		c0,0,0.1,0,0.1-0.1c0,0,0.1,0,0.1-0.1c0,0,0,0,0,0c0,0,0,0,0,0c0,0,0.1,0,0.1-0.1c0,0,0.1,0,0.1-0.1c0,0,0,0,0,0c0,0,0,0,0,0
		c0,0,0.1,0,0.1-0.1c0,0,0.1,0,0.1-0.1l0,0c0,0,0,0,0,0c0,0,0.1,0,0.1-0.1c0,0,0.1-0.1,0.1-0.1l0,0c0,0,0,0,0,0c0,0,0.1,0,0.1-0.1
		c0,0,0.1-0.1,0.1-0.1l0,0l0,0c0,0,0.1-0.1,0.1-0.1c0,0,0.1,0,0.1-0.1c0,0,0,0,0,0c0,0,0,0,0,0c0,0,0.1-0.1,0.1-0.1
		c0,0,0.1,0,0.1-0.1c0,0,0,0,0,0c0,0,0,0,0,0c0,0,0,0,0,0c0.1,0,0.1-0.1,0.2-0.1c0,0,0,0,0.1,0c0,0,0,0,0,0c0,0,0,0,0.1,0
		c0.1,0,0.1-0.1,0.2-0.1c0,0,0,0,0,0c0,0,0,0,0,0c0,0,0.1-0.1,0.1-0.1c0,0,0.1,0,0.1-0.1c0,0,0,0,0,0c0,0,0,0,0,0
		c0.1,0,0.1-0.1,0.2-0.1c0,0,0,0,0,0c0,0,0,0,0,0c0,0,0.1,0,0.1-0.1c0,0,0.1-0.1,0.1-0.1c0,0,0,0,0,0c0,0,0,0,0,0
		c0.1,0,0.1-0.1,0.2-0.2c0,0,0,0,0,0c0,0,0,0,0,0c0,0,0.1-0.1,0.1-0.1c0,0,0,0,0.1-0.1c0,0,0,0,0.1-0.1c0,0,0,0,0.1-0.1
		c0,0,0.1-0.1,0.1-0.1c0,0,0,0,0,0c0,0,0,0,0,0c0,0,0.1-0.1,0.1-0.1c0,0,0.1,0,0.1-0.1c0,0,0,0,0,0c0.1-0.1,0.1-0.1,0.2-0.2
		c0,0,0,0,0,0c0,0,0,0,0,0c0.1-0.1,0.1-0.1,0.2-0.2c0,0,0,0,0,0l0,0c0.1-0.1,0.1-0.1,0.2-0.2c0,0,0,0,0,0c0.1-0.1,0.3-0.3,0.4-0.5
		c0,0,0,0,0,0c0,0,0,0,0,0c0.1-0.2,0.3-0.3,0.4-0.5c0,0,0,0,0,0c0,0,0,0,0,0c0,0,0,0,0,0c0.1-0.2,0.2-0.3,0.4-0.5c0,0,0,0,0,0
		c0,0,0,0,0,0c0.1-0.2,0.2-0.3,0.4-0.5c0,0,0,0,0,0c0,0,0,0,0,0c0,0,0,0,0,0c0,0,0.1-0.1,0.1-0.1c0,0,0-0.1,0.1-0.1c0,0,0,0,0-0.1
		c0,0,0,0,0,0c0-0.1,0.1-0.1,0.1-0.2c0,0,0,0,0,0c0,0,0,0,0,0c0,0,0.1-0.1,0.1-0.1c0,0,0,0,0,0c0.1-0.1,0.2-0.3,0.3-0.4c0,0,0,0,0,0
		c0,0,0,0,0,0c0.1-0.1,0.2-0.3,0.2-0.4c0,0,0,0,0,0c0,0,0,0,0,0c0.1-0.2,0.2-0.3,0.2-0.5c0,0,0,0,0,0c0,0,0,0,0,0
		c0.1-0.2,0.2-0.3,0.2-0.5c0,0,0,0,0,0c0,0,0,0,0,0c0,0,0-0.1,0-0.1c0-0.1,0-0.1,0.1-0.2c0,0,0,0,0,0c0,0,0-0.1,0-0.1
		c0,0,0-0.1,0.1-0.1c0,0,0,0,0,0c0,0,0,0,0,0c0,0,0-0.1,0-0.1c0,0,0-0.1,0-0.1c0,0,0,0,0-0.1c0,0,0-0.1,0-0.1c0,0,0-0.1,0-0.1
		c0,0,0-0.1,0-0.1c0,0,0,0,0-0.1c0,0,0,0,0-0.1c0-0.1,0-0.1,0.1-0.2c0,0,0,0,0,0c0,0,0,0,0,0c0-0.1,0-0.1,0.1-0.2c0,0,0,0,0-0.1
		c0,0,0,0,0-0.1c0,0,0-0.1,0-0.1c0-0.1,0-0.1,0-0.2c0,0,0,0,0,0c0,0,0,0,0,0c0-0.1,0-0.1,0.1-0.2c0,0,0-0.1,0-0.1c0,0,0,0,0-0.1
		c0,0,0,0,0-0.1c0-0.1,0-0.1,0-0.2c0,0,0,0,0,0c0,0,0,0,0,0c0,0,0-0.1,0-0.1c0-0.1,0-0.1,0-0.2c0-0.1,0-0.1,0-0.2c0,0,0-0.1,0-0.1
		c0,0,0,0,0,0c0,0,0,0,0,0c0-0.1,0-0.1,0-0.2c0,0,0-0.1,0-0.1c0,0,0,0,0,0c0,0,0,0,0,0c0-0.1,0-0.1,0-0.2c0,0,0-0.1,0-0.1
		c0,0,0,0,0,0c0,0,0,0,0,0c0-0.1,0-0.1,0-0.2c0,0,0-0.1,0-0.1c0,0,0,0,0,0c0,0,0,0,0,0c0-0.1,0-0.1,0-0.2c0,0,0-0.1,0-0.1
		c0,0,0,0,0,0c0,0,0,0,0,0c0,0,0-0.1,0-0.1c0,0,0-0.1,0-0.1c0,0,0,0,0,0c0,0,0,0,0,0c0,0,0-0.1,0-0.1c0,0,0-0.1,0-0.1c0,0,0,0,0,0
		c0,0,0,0,0,0c0,0,0,0,0-0.1c0,0,0-0.1,0-0.1c0,0,0-0.1,0-0.1c0,0,0-0.1,0-0.1c0,0,0,0,0-0.1c0,0,0,0,0-0.1c0,0,0,0,0-0.1
		c0,0,0,0,0-0.1C50.8,47.9,50.8,47.9,50.8,47.8"/>
	<path class="st1" d="M36.4,63.5L36.4,63.5c-0.1,0-0.1,0-0.2,0l-0.2,0c-0.1,0-0.1,0-0.2,0l-0.2,0c0,0-0.1,0-0.1,0l-0.1,0
		c-0.1,0-0.1,0-0.2,0l-0.2,0c0,0-0.1,0-0.1,0l-0.1,0c-0.1,0-0.1,0-0.2,0l-0.1,0c0,0-0.1,0-0.1,0l-0.2,0c0,0,0,0-0.1,0l-0.2,0
		c0,0,0,0,0,0c0,0,0,0-0.1,0l0,0c0,0-0.1,0-0.1,0l-0.1,0c0,0,0,0-0.1,0l0,0c0,0-0.1,0-0.1,0l0,0c0,0,0,0-0.1,0l-0.1,0
		c0,0-0.1,0-0.1,0l-0.1,0c-0.1,0-0.2-0.1-0.4-0.1l0,0c-0.1,0-0.2-0.1-0.4-0.1l0,0c0,0,0,0,0,0c0,0,0,0,0,0l0,0
		c-0.1-0.1-0.2-0.1-0.3-0.2l0,0c-0.1-0.1-0.2-0.1-0.3-0.2l0,0c0,0,0,0,0,0c0,0,0,0,0,0c-0.1-0.1-0.2-0.1-0.3-0.2l-0.1,0
		c-0.1-0.1-0.2-0.1-0.3-0.2c0,0,0,0,0,0l0,0c-0.1-0.1-0.2-0.1-0.3-0.2l-0.1,0c-0.1-0.1-0.2-0.2-0.3-0.2l-7.3-5.7l0,0l-0.3-0.3
		l0.3-0.3l-0.3-0.2c0.2-0.2,0.4-0.1,0.5,0l0,0c0.1,0.1,0.2,0.1,0.3,0.2l0.1,0c0.1,0.1,0.2,0.1,0.3,0.2l0,0c0.1,0.1,0.2,0.1,0.3,0.2
		l0.1,0c0.1,0.1,0.2,0.1,0.3,0.2l0.1,0c0.1,0.1,0.2,0.1,0.3,0.1l0,0c0.1,0,0.2,0.1,0.3,0.1l0.1,0c0.1,0,0.2,0.1,0.3,0.1l0,0
		c0.1,0,0.2,0.1,0.3,0.1l0.1,0c0,0,0.1,0,0.1,0c0,0,0.1,0,0.1,0c0,0,0.1,0,0.1,0c0,0,0.1,0,0.1,0c0,0,0.1,0,0.1,0c0,0,0.1,0,0.1,0
		c0,0,0.1,0,0.1,0c0,0,0.1,0,0.1,0l0.1,0c0.1,0,0.1,0,0.2,0l0,0c0.1,0,0.2,0,0.2,0l0.1,0c0.1,0,0.1,0,0.2,0l0.1,0c0.1,0,0.2,0,0.2,0
		l0,0c0.1,0,0.1,0,0.2,0l0.1,0c0.1,0,0.2,0,0.2,0l0,0c0.1,0,0.2,0,0.2,0l0,0c0.1,0,0.2,0,0.2,0h0c0.1,0,0.2,0,0.2,0l0,0
		c0.1,0,0.2,0,0.2,0l0,0c0.1,0,0.2,0,0.2,0l0,0c0.1,0,0.2,0,0.2,0l0,0c0.1,0,0.2,0,0.2,0l0,0c0.1,0,0.2,0,0.3,0l0,0
		c0.1,0,0.2,0,0.3,0c0.1,0,0.2,0,0.3-0.1l0,0c0.1,0,0.2,0,0.3-0.1l0,0c0.1,0,0.2,0,0.3-0.1c0.1,0,0.2,0,0.3-0.1l0,0
		c0.1,0,0.2-0.1,0.3-0.1l0,0c0.1,0,0.2-0.1,0.2-0.1l0,0c0.1,0,0.2-0.1,0.3-0.1l0,0c0.1,0,0.2-0.1,0.3-0.1l0,0
		c0.2-0.1,0.3-0.1,0.5-0.2l0,0c0.1,0,0.2-0.1,0.3-0.1l0,0c0.1,0,0.2-0.1,0.2-0.1l0,0c0.1,0,0.2-0.1,0.2-0.1l0,0
		c0.1,0,0.2-0.1,0.2-0.1c0.1,0,0.2-0.1,0.2-0.1l0,0c0.1,0,0.2-0.1,0.2-0.1l0,0c0.2-0.1,0.3-0.2,0.5-0.3l0,0c0.2-0.1,0.3-0.2,0.5-0.3
		l0,0c0.1-0.1,0.3-0.2,0.4-0.3l0,0c0.1-0.1,0.3-0.2,0.4-0.4l0,0c0.1-0.1,0.3-0.3,0.4-0.4c0.1-0.1,0.3-0.3,0.4-0.4
		c0,0,0.1-0.1,0.1-0.1l0.1-0.1c0-0.1,0.1-0.1,0.1-0.2c0,0,0.1-0.1,0.1-0.1l0.1-0.2c0-0.1,0.1-0.1,0.1-0.2c0.1-0.1,0.2-0.3,0.3-0.4
		l0,0c0.1-0.2,0.2-0.3,0.3-0.5l0-0.1c0-0.1,0.1-0.1,0.1-0.2l0,0c0-0.1,0.1-0.1,0.1-0.2l0,0c0,0,0.1-0.1,0.1-0.1l0,0
		c0.1-0.1,0.2-0.3,0.2-0.4l0-0.1c0.1-0.1,0.2-0.3,0.2-0.4l0-0.1c0.1-0.2,0.2-0.3,0.2-0.4l0,0c0.1-0.1,0.1-0.3,0.2-0.4l0.1-0.1
		c0-0.1,0-0.1,0.1-0.2l0-0.1c0-0.1,0-0.1,0.1-0.2l0-0.1c0-0.1,0-0.1,0.1-0.2c0,0,0-0.1,0-0.1c0-0.1,0-0.1,0.1-0.2l0-0.1
		c0-0.1,0.1-0.2,0.1-0.2c0-0.1,0.1-0.2,0.1-0.3l0-0.1c0-0.1,0-0.2,0.1-0.2c0-0.1,0-0.2,0.1-0.3l0,0c0-0.1,0-0.2,0.1-0.3l0,0
		c0-0.2,0.1-0.4,0.1-0.5l0,0c0-0.1,0-0.2,0-0.3l0,0c0-0.1,0-0.2,0-0.3l0,0c0-0.1,0-0.2,0-0.3l0.4,0l-0.4,0c0-0.1,0-0.2,0-0.3l0.4,0
		l-0.4,0c0-0.1,0-0.2,0-0.3l0,0c0-0.1,0-0.2,0-0.3l0.4,0l-0.4,0c0-0.1,0-0.2,0-0.3c0-0.1,0-0.2,0-0.4l0,0c0-0.1,0-0.2,0-0.4l0.4,0
		l-0.4,0c0-0.1,0-0.2,0-0.4l0,0c0-0.1,0-0.2,0-0.4c0-0.1,0-0.2,0-0.4l0,0c0-0.1,0-0.2-0.1-0.3l0.4-0.1L41.7,41c0-0.1,0-0.2-0.1-0.3
		l0,0c0-0.1,0-0.2-0.1-0.3l0,0c0-0.1-0.1-0.2-0.1-0.3l0,0c0-0.1-0.1-0.2-0.1-0.3l0,0c0-0.1-0.1-0.2-0.1-0.3l0,0
		c0-0.1-0.1-0.2-0.1-0.3l0,0c0-0.1-0.1-0.2-0.1-0.3c0-0.1-0.1-0.2-0.1-0.3l0,0c0-0.1-0.1-0.2-0.1-0.3l0,0c0-0.1-0.1-0.2-0.1-0.3l0,0
		c-0.1-0.1-0.1-0.2-0.2-0.3l0,0c0-0.1-0.1-0.2-0.2-0.2l0,0c-0.1-0.1-0.1-0.2-0.2-0.2l0-0.1c0-0.1-0.1-0.1-0.1-0.2l-0.1-0.1
		c0-0.1-0.1-0.1-0.1-0.2l-0.1-0.1c-0.1-0.1-0.1-0.2-0.2-0.2c0,0-0.1-0.1-0.1-0.1c-0.1-0.1-0.1-0.2-0.2-0.2L39,35.7
		c-0.1-0.1-0.2-0.2-0.3-0.3c0,0,0,0,0,0l0,0c-0.1-0.1-0.2-0.1-0.2-0.2c0,0-0.1-0.1-0.1-0.1C38.2,35,38.1,35,38,34.9l0,0
		c-0.1-0.1-0.2-0.1-0.3-0.2c0,0,0,0-0.1,0l0,0c-0.1-0.1-0.2-0.1-0.3-0.2l0,0c0,0-0.1,0-0.1,0c-0.1-0.1-0.2-0.1-0.3-0.2l0,0l0.4-0.7
		c0,0,0,0,0,0l8.4,4.5c0.1,0.1,0.2,0.1,0.4,0.2c0,0,0.1,0,0.1,0l0,0c0.1,0.1,0.2,0.1,0.3,0.2l0,0c0,0,0,0,0,0c0,0,0,0,0,0
		c0.1,0.1,0.3,0.2,0.4,0.3l0.1,0c0.1,0.1,0.2,0.2,0.3,0.2l0,0c0,0,0,0,0,0c0,0,0,0,0,0l0,0c0.1,0.1,0.2,0.2,0.3,0.2l0,0
		c0,0,0,0,0.1,0c0.1,0.1,0.2,0.2,0.3,0.3l0,0c0,0,0,0,0,0c0,0,0,0,0,0l0,0c0.1,0.1,0.2,0.2,0.2,0.3c0,0,0.1,0.1,0.1,0.1
		c0.1,0.1,0.2,0.2,0.2,0.3l0,0c0,0,0,0,0,0l0.1,0.1c0,0,0.1,0.1,0.1,0.1l0.2,0.2c0,0,0.1,0.1,0.1,0.1l0.1,0.1
		c0.1,0.1,0.1,0.2,0.2,0.2l0.1,0.1c0,0,0,0.1,0.1,0.1c0,0.1,0.1,0.1,0.1,0.2l0,0c0,0.1,0.1,0.1,0.1,0.2c0,0,0,0.1,0,0.1l0.1,0.1
		c0,0.1,0.1,0.1,0.1,0.2l0.1,0.2c0,0.1,0.1,0.1,0.1,0.2l0.1,0.2c0,0.1,0,0.1,0.1,0.2c0,0,0,0.1,0.1,0.1l0,0c0,0.1,0,0.1,0.1,0.2
		c0,0.1,0,0.1,0.1,0.2l0,0c0,0,0,0.1,0,0.1c0,0,0,0.1,0.1,0.1l0.1,0.1c0,0.1,0,0.1,0,0.2c0,0,0,0.1,0,0.1l0,0.1c0,0,0,0.1,0,0.1
		l0,0.1l-0.4,0.1l0.4-0.1l0,0c0,0,0,0.1,0,0.1c0,0,0,0.1,0,0.1l0,0.1c0,0,0,0.1,0,0.1c0,0,0,0.1,0,0.1l0,0.1c0,0,0,0.1,0,0.1
		c0,0,0,0.1,0,0.1l-0.4,0.1l0.4-0.1l0,0.1c0,0,0,0.1,0,0.1c0,0,0,0.1,0,0.1l0,0c0,0,0,0.1,0,0.1c0,0,0,0.1,0,0.1c0,0,0,0.1,0,0.1
		l0,0l-0.4,0l0.4,0c0,0,0,0.1,0,0.1c0,0,0,0.1,0,0.1l0,0.1c0,0,0,0.1,0,0.1c0,0,0,0.1,0,0.1l0,0.1c0,0,0,0.1,0,0.1c0,0,0,0.1,0,0.1
		l0,0.1c0,0,0,0.1,0,0.1l0,0.6c0,0.1,0,0.1,0,0.2c0,0,0,0.1,0,0.1l0,0c0,0.1,0,0.1,0,0.2c0,0.1,0,0.1,0,0.2l0,0l-0.4,0l0.4,0
		c0,0,0,0.1,0,0.1c0,0.1,0,0.1,0,0.2l0,0.2c0,0.1,0,0.1,0,0.2l0,0.2c0,0.1,0,0.1,0,0.2l0,0.2c0,0.1,0,0.1,0,0.2l0,0c0,0,0,0.1,0,0.1
		c0,0.1,0,0.1,0,0.2c0,0.1,0,0.1,0,0.2c0,0,0,0.1,0,0.1l0,0.1c0,0.1,0,0.1,0,0.2l0,0.2c0,0.1,0,0.1-0.1,0.2l0,0c0,0.1,0,0.1,0,0.2
		l-0.1,0.2c0,0.1,0,0.1-0.1,0.2l0,0c0,0.1,0,0.1-0.1,0.2l-0.2,0.5c0,0,0,0,0,0.1l-0.1,0.2c0,0,0,0.1,0,0.1L50,53.7c0,0,0,0.1,0,0.1
		L49.9,54c-0.1,0.2-0.2,0.3-0.2,0.5l0,0c-0.1,0.1-0.2,0.3-0.2,0.5l0,0c0,0,0,0,0,0l0,0c-0.1,0.2-0.2,0.3-0.3,0.5l0,0c0,0,0,0,0,0
		l0,0c-0.1,0.1-0.2,0.3-0.3,0.4l0,0c0,0-0.1,0.1-0.1,0.1l0,0c0,0.1-0.1,0.1-0.1,0.2l-0.1,0.2c0,0-0.1,0.1-0.1,0.1l0,0.1
		c-0.1,0.2-0.2,0.3-0.4,0.5l0,0c-0.1,0.2-0.3,0.3-0.4,0.5l0,0c-0.1,0.2-0.3,0.3-0.4,0.5l0,0c-0.1,0.2-0.3,0.3-0.4,0.5
		c-0.1,0.1-0.1,0.1-0.2,0.2l0,0c-0.1,0.1-0.1,0.1-0.2,0.2l-0.1,0.1c-0.1,0.1-0.1,0.1-0.2,0.2l-0.1,0.1c0,0-0.1,0.1-0.1,0.1l-0.1,0.1
		c0,0-0.1,0.1-0.1,0.1L45.4,60c0,0-0.1,0.1-0.1,0.1l-0.1,0.1c-0.1,0.1-0.1,0.1-0.2,0.2l-0.3,0.3c-0.1,0-0.1,0.1-0.2,0.1l-0.1,0.1
		c0,0-0.1,0-0.1,0.1c0,0-0.1,0-0.1,0.1l-0.1,0c-0.1,0-0.1,0.1-0.2,0.1l-0.2,0.1c-0.1,0-0.1,0.1-0.2,0.1l-0.1,0.1
		c0,0-0.1,0.1-0.1,0.1l0,0c0,0-0.1,0-0.1,0.1c0,0-0.1,0.1-0.1,0.1c-0.1,0-0.1,0.1-0.1,0.1c0,0-0.1,0-0.1,0.1l-0.2-0.3l0.2,0.3
		c-0.1,0-0.1,0.1-0.1,0.1c0,0-0.1,0-0.1,0.1l0,0c0,0-0.1,0.1-0.1,0.1c0,0-0.1,0-0.1,0.1l0,0c0,0-0.1,0-0.1,0.1c0,0-0.1,0-0.1,0.1
		l0,0c0,0-0.1,0-0.1,0.1c0,0-0.1,0-0.1,0.1l0,0c0,0-0.1,0-0.1,0c0,0-0.1,0-0.1,0.1l0,0l-0.1,0c0,0-0.1,0-0.1,0.1L41,62.7
		c0,0-0.1,0-0.1,0.1l-0.1,0.1c0,0-0.1,0-0.1,0l-0.1,0c0,0-0.1,0-0.1,0l-0.1,0L40,62.6l0.1,0.4l0,0c0,0-0.1,0-0.1,0c0,0-0.1,0-0.1,0
		l0,0c0,0-0.1,0-0.1,0c0,0-0.1,0-0.1,0l-0.1-0.4l0.1,0.4l-0.1,0c0,0-0.1,0-0.1,0l-0.8,0.2c-0.1,0-0.1,0-0.2,0l-0.2,0
		c0,0-0.1,0-0.2,0l-0.2,0c-0.1,0-0.1,0-0.2,0l-0.2,0c-0.1,0-0.1,0-0.2,0l-0.2,0c-0.1,0-0.1,0-0.2,0l-0.2,0c-0.1,0-0.1,0-0.2,0
		l-0.1,0c0,0-0.1,0-0.1,0C36.5,63.5,36.5,63.5,36.4,63.5L36.4,63.5z M39.3,62.4l0.1,0.4L39.3,62.4c0.1,0,0.1,0,0.2,0
		c0,0,0.1,0,0.1,0l0,0c0,0,0.1,0,0.1,0c0,0,0.1,0,0.1,0l0.1,0c0,0,0.1,0,0.1,0l0.1,0c0,0,0.1,0,0.1,0l0.1,0c0,0,0.1,0,0.1,0l0.1-0.1
		c0,0,0.1,0,0.1-0.1l0.1-0.1c0.1,0,0.1,0,0.1-0.1c0,0,0.1,0,0.1-0.1l0,0c0,0,0.1,0,0.1,0c0,0,0.1,0,0.1-0.1l0,0c0,0,0.1,0,0.1-0.1
		c0,0,0.1,0,0.1-0.1l0,0c0,0,0.1,0,0.1-0.1c0,0,0.1,0,0.1-0.1l0,0c0,0,0.1,0,0.1-0.1c0,0,0.1-0.1,0.1-0.1l0.2,0.3l-0.2-0.3
		c0,0,0.1,0,0.1-0.1c0,0,0.1-0.1,0.1-0.1c0,0,0.1-0.1,0.1-0.1c0,0,0.1,0,0.1-0.1l0,0c0,0,0.1-0.1,0.1-0.1l0.1-0.1
		c0,0,0.1-0.1,0.2-0.1l0.2-0.1c0.1,0,0.1-0.1,0.2-0.1l0.1-0.1c0,0,0.1,0,0.1-0.1l0.1-0.1c0.1,0,0.1-0.1,0.2-0.1l0.3-0.2
		c0.1-0.1,0.1-0.1,0.2-0.2l0.1-0.1c0,0,0.1-0.1,0.1-0.1l0.2-0.2c0,0,0.1-0.1,0.1-0.1l0.1-0.1c0,0,0.1-0.1,0.1-0.1l0.1-0.1
		c0.1-0.1,0.1-0.1,0.2-0.2l0.1-0.1c0.1-0.1,0.1-0.1,0.2-0.2l0,0c0.1-0.1,0.1-0.1,0.2-0.2c0.1-0.1,0.3-0.3,0.4-0.4l0,0
		c0.1-0.1,0.3-0.3,0.4-0.5l0,0c0.1-0.1,0.2-0.3,0.4-0.5l0,0c0.1-0.2,0.2-0.3,0.3-0.5l0-0.1c0,0,0.1-0.1,0.1-0.1l0.1-0.2
		c0-0.1,0.1-0.1,0.1-0.2l0,0c0,0,0.1-0.1,0.1-0.1l0,0c0.1-0.1,0.2-0.3,0.3-0.4l0-0.1c0.1-0.1,0.2-0.3,0.2-0.4l0-0.1
		c0.1-0.2,0.2-0.3,0.2-0.5l0,0c0.1-0.2,0.1-0.3,0.2-0.5l0.1-0.2c0,0,0-0.1,0-0.1l0.1-0.2c0,0,0-0.1,0-0.1l0.3-0.7
		c0-0.1,0-0.1,0.1-0.2l0.4,0.1l-0.4-0.1c0-0.1,0-0.1,0.1-0.2l0.1-0.2c0-0.1,0-0.1,0-0.2l0.4,0.1l-0.4-0.1c0-0.1,0-0.1,0-0.2l0-0.2
		c0-0.1,0-0.1,0-0.2l0,0c0,0,0-0.1,0-0.1c0-0.1,0-0.1,0-0.2c0-0.1,0-0.1,0-0.2c0,0,0-0.1,0-0.1l0,0c0-0.1,0-0.1,0-0.2l0-0.1
		c0-0.1,0-0.1,0-0.2l0-0.1c0-0.1,0-0.1,0-0.2l0-0.1c0-0.1,0-0.1,0-0.2c0,0,0-0.1,0-0.1l0,0c0-0.1,0-0.1,0-0.1c0,0,0-0.1,0-0.1l0.4,0
		l-0.4,0c0,0,0-0.1,0-0.1c0,0,0-0.1,0-0.1l0,0l0.4,0l-0.4,0l0-0.5c0,0,0-0.1,0-0.1l0-0.1c0,0,0-0.1,0-0.1c0,0,0-0.1,0-0.1l0-0.1
		c0,0,0-0.1,0-0.1c0,0,0-0.1,0-0.1l0,0l0.4,0l-0.4,0l0-0.1c0,0,0-0.1,0-0.1c0,0,0-0.1,0-0.1l0,0c0,0,0-0.1,0-0.1c0,0,0-0.1,0-0.1
		c0,0,0-0.1,0-0.1l0,0c0,0,0-0.1,0-0.1c0,0,0-0.1,0-0.1l0-0.1c0,0,0-0.1,0-0.1s0-0.1,0-0.1l0-0.1c0,0,0-0.1,0-0.1c0,0,0-0.1,0-0.1
		l0-0.1c0,0,0-0.1,0-0.1c0,0,0-0.1,0-0.1l0-0.1c0,0,0-0.1,0-0.1l0-0.1c0-0.1,0-0.1,0-0.1c0,0,0-0.1,0-0.1l0-0.1c0,0,0-0.1,0-0.1
		c0,0,0-0.1,0-0.1l0,0l0.4-0.2l-0.4,0.1l0,0c0-0.1,0-0.1-0.1-0.2c0,0,0-0.1-0.1-0.1l0,0c0,0,0-0.1-0.1-0.1c0,0,0-0.1-0.1-0.1
		l-0.1-0.2c0-0.1-0.1-0.1-0.1-0.2l-0.1-0.2c0-0.1-0.1-0.1-0.1-0.2l-0.1-0.1c0,0,0,0,0-0.1c0-0.1-0.1-0.1-0.1-0.2l0,0
		c0-0.1-0.1-0.1-0.1-0.2c0,0,0-0.1-0.1-0.1l-0.1-0.1c0-0.1-0.1-0.1-0.1-0.2l-0.1-0.1c0,0,0-0.1-0.1-0.1l-0.2-0.2
		c0,0-0.1-0.1-0.1-0.1L48.1,41c0,0,0,0,0,0c-0.1-0.1-0.1-0.2-0.2-0.3c0,0-0.1-0.1-0.1-0.1c-0.1-0.1-0.1-0.2-0.2-0.2c0,0,0,0,0,0l0,0
		c-0.1-0.1-0.2-0.2-0.3-0.3c0,0,0,0,0,0l0,0c-0.1-0.1-0.2-0.1-0.2-0.2c0,0,0,0,0,0l0,0c0,0,0,0,0,0c-0.1-0.1-0.2-0.1-0.3-0.2l0,0
		c-0.1-0.1-0.2-0.2-0.3-0.2l-0.1,0c0,0,0,0,0,0c-0.1-0.1-0.2-0.1-0.3-0.2l0,0c0,0,0,0-0.1,0c-0.1-0.1-0.3-0.1-0.4-0.2l-5-2.7
		c0,0.1,0.1,0.1,0.1,0.2l0.1,0.1c0.1,0.1,0.1,0.1,0.1,0.2l0,0.1c0.1,0.1,0.1,0.2,0.2,0.3l0,0c0.1,0.1,0.1,0.2,0.2,0.3
		c0.1,0.1,0.1,0.2,0.2,0.3l0,0c0.1,0.1,0.1,0.2,0.2,0.3l0,0c0,0.1,0.1,0.2,0.1,0.3l0,0c0,0.1,0.1,0.2,0.1,0.3
		c0.1,0.1,0.1,0.2,0.1,0.3l0,0c0,0.1,0.1,0.2,0.1,0.3l0,0c0,0.1,0.1,0.2,0.1,0.3l0,0c0,0.1,0.1,0.2,0.1,0.3l0,0
		c0,0.1,0.1,0.2,0.1,0.3l0,0c0,0.1,0.1,0.2,0.1,0.3l0,0c0,0.1,0,0.2,0.1,0.4l0,0c0,0.1,0,0.2,0.1,0.4l0,0c0,0.1,0,0.2,0,0.4
		c0,0.1,0,0.3,0,0.4l0,0c0,0.1,0,0.3,0,0.4l0,0c0,0.1,0,0.3,0,0.4l0,0c0,0.1,0,0.3,0,0.4c0,0.1,0,0.2,0,0.3l-0.4,0l0.4,0
		c0,0.1,0,0.2,0,0.3c0,0.1,0,0.2,0,0.3l0,0c0,0.1,0,0.2,0,0.3l0,0c0,0.1,0,0.2,0,0.3l0,0c0,0.1,0,0.2,0,0.3l0,0c0,0.1,0,0.2,0,0.3
		l0,0c0,0.2-0.1,0.4-0.1,0.6l0,0c0,0.1,0,0.2-0.1,0.3l0,0.1c0,0.1,0,0.2-0.1,0.3l0,0c0,0.1,0,0.2-0.1,0.3l0,0.1
		c0,0.1-0.1,0.2-0.1,0.3c0,0.1-0.1,0.2-0.1,0.3l0,0.1c0,0.1,0,0.1-0.1,0.2c0,0,0,0.1,0,0.1c0,0.1,0,0.1-0.1,0.2l0,0.1
		c0,0.1,0,0.1-0.1,0.2l0,0.1c0,0.1,0,0.1-0.1,0.2l-0.1,0.1c-0.1,0.2-0.1,0.3-0.2,0.5l0,0c-0.1,0.1-0.1,0.3-0.2,0.5l0,0.1
		c-0.1,0.1-0.2,0.3-0.2,0.4l0,0.1c-0.1,0.1-0.2,0.3-0.3,0.4l0,0c0,0.1-0.1,0.1-0.1,0.2l0,0c0,0.1-0.1,0.2-0.2,0.2l0,0.1
		c0,0.1-0.1,0.1-0.1,0.2l0,0.1c-0.1,0.2-0.2,0.3-0.3,0.5l0,0c-0.1,0.2-0.2,0.3-0.4,0.5c0,0.1-0.1,0.1-0.1,0.2l-0.1,0.1
		c0,0.1-0.1,0.1-0.1,0.1c-0.1,0.1-0.1,0.1-0.2,0.2l-0.1,0.1c0,0-0.1,0.1-0.1,0.1c-0.1,0.1-0.3,0.3-0.4,0.4l0,0
		c-0.1,0.1-0.3,0.3-0.4,0.4l0,0c-0.2,0.1-0.3,0.3-0.5,0.4l0,0c-0.1,0.1-0.3,0.2-0.5,0.4l0,0c-0.2,0.1-0.3,0.2-0.5,0.3l0,0
		c-0.2,0.1-0.3,0.2-0.5,0.3l0,0c-0.1,0-0.2,0.1-0.2,0.1l0,0c-0.1,0.1-0.2,0.1-0.3,0.1c-0.1,0.1-0.2,0.1-0.3,0.1l0,0
		c-0.1,0-0.2,0.1-0.3,0.1l0,0c-0.1,0-0.2,0.1-0.3,0.1L34,55.9l0.2,0.4c-0.1,0-0.2,0.1-0.3,0.1l0,0c-0.2,0.1-0.4,0.2-0.6,0.2l0,0
		c-0.1,0-0.2,0.1-0.3,0.1l0,0c-0.1,0-0.2,0.1-0.3,0.1l0,0c-0.1,0-0.2,0.1-0.3,0.1l0,0c-0.1,0-0.2,0.1-0.3,0.1l0,0
		c-0.1,0-0.2,0.1-0.3,0.1c-0.1,0-0.2,0.1-0.3,0.1l0,0c-0.1,0-0.2,0-0.3,0.1l0,0c-0.1,0-0.2,0-0.3,0.1c-0.1,0-0.2,0-0.3,0.1l0,0
		c-0.1,0-0.2,0-0.3,0l0,0c-0.1,0-0.2,0-0.3,0l0,0c-0.1,0-0.2,0-0.3,0l0,0c-0.1,0-0.2,0-0.3,0l0,0c-0.1,0-0.2,0-0.3,0l0,0
		c-0.1,0-0.2,0-0.3,0h0c-0.1,0-0.2,0-0.3,0l0,0c-0.1,0-0.2,0-0.3,0l0,0c-0.1,0-0.2,0-0.2,0l-0.1,0c-0.1,0-0.1,0-0.2,0l0,0
		c-0.1,0-0.2,0-0.2,0l-0.1,0c-0.1,0-0.1,0-0.2,0l-0.1,0c-0.1,0-0.2,0-0.2,0l-0.1,0c-0.1,0-0.1,0-0.2,0l-0.1,0c-0.1,0-0.1,0-0.2,0
		c0,0-0.1,0-0.1,0c0,0-0.1,0-0.1,0c0,0-0.1,0-0.1,0c0,0,0,0-0.1,0l4.5,3.5c0.1,0.1,0.2,0.1,0.3,0.2l0.1,0c0.1,0.1,0.2,0.1,0.3,0.2
		l0,0c0.1,0.1,0.2,0.1,0.3,0.2l0.1,0c0.1,0.1,0.2,0.1,0.3,0.2c0,0,0,0,0,0l0,0c0,0,0,0,0,0c0.1,0.1,0.2,0.1,0.3,0.2l0,0
		c0.1,0,0.2,0.1,0.3,0.1l0.1,0c0.1,0.1,0.2,0.1,0.3,0.1l0,0c0.1,0,0.2,0.1,0.3,0.1l0.1,0c0,0,0.1,0,0.1,0l0.1,0c0,0,0.1,0,0.1,0
		l0.1,0c0,0,0.1,0,0.1,0l0.5,0.1c0,0,0.1,0,0.1,0l0.1,0c0.1,0,0.1,0,0.2,0l0.1,0c0,0,0.1,0,0.1,0l0.2,0c0.1,0,0.1,0,0.2,0l0,0
		c0,0,0.1,0,0.1,0l0.2,0c0.1,0,0.1,0,0.2,0l0.2,0c0.1,0,0.1,0,0.2,0h0c0.1,0,0.1,0,0.1,0l0.1,0c0.1,0,0.1,0,0.2,0l0.2,0
		c0.1,0,0.1,0,0.2,0l0.1,0c0.1,0,0.1,0,0.2,0l0.1,0c0.1,0,0.1,0,0.1,0l0.1,0c0,0,0.1,0,0.1,0l0.1,0c0,0,0.1,0,0.1,0l0.7-0.1
		c0,0,0.1,0,0.1,0L39.3,62.4z"/>
	<path class="st1" d="M30.1,57.3l7.4,5.7l0.2-0.2L30.3,57L30.1,57.3z M27.4,57.5l6.9,5.3l0.2-0.2l-6.9-5.3L27.4,57.5z M28.9,57.5
		l7.3,5.6l0.2-0.2L29,57.2L28.9,57.5z M49.9,43.4l-9.1-6.3l-0.2,0.2l9.1,6.3L49.9,43.4z M41.7,39.2l8.6,5.9l0.2-0.2L41.9,39
		L41.7,39.2z M49,41.7l-6.2-4.2l-0.2,0.2l6.2,4.2L49,41.7z M41.9,40.5l8.7,6l0.2-0.2l-8.7-6L41.9,40.5z M43.6,51.7l5.2,3.6l0.2-0.2
		l-5.2-3.6L43.6,51.7z M43.8,48.4l6.2,4.3l0.2-0.2l-6.2-4.3L43.8,48.4z M42.8,44.3l7.7,5.3l0.2-0.2L43,44L42.8,44.3z M42.3,54.6
		l4.4,3.4l0.2-0.2l-4.4-3.4L42.3,54.6z M31.3,57l7.5,5.8l0.2-0.2l-7.5-5.8L31.3,57z M34.5,55.9l7.5,5.8l0.2-0.2l-7.5-5.8L34.5,55.9z
		 M39.2,55.8l5.4,4.1l0.2-0.2l-5.4-4.1L39.2,55.8z"/>
	<path class="st0" d="M32.6,49.4l3.5-0.6l-1.3-3.6L27,40.3l0.2,2.7l-2.3,1.3L32.6,49.4z M34.5,52.1c0.2-0.2,0.4-0.4,0.6-0.5
		c0.2-0.2,0.3-0.3,0.4-0.3l-8.6-5.8l-1.9,2.9l1.6,1.1l-0.4,1.2L35,57c0.1-0.3,0.2-0.7,0.3-1c0.1-0.2,0.1-0.4,0.2-0.6l3.4,2.4
		l-0.9-3.3L34.5,52.1z M41.9,45.1l1.1-1l-8.3-4.8L33.2,40l-2.3-1.4L30.8,39l-0.8,3l8,5l0.4-1.5l3.6,2.2l3.3-0.7L41.9,45.1z"/>
	<path class="st1" d="M36,48.6l-7.2-4.5l-0.2,0.2l7.2,4.5L36,48.6z M35,45.2l-4.6-2.9l-0.2,0.2l4.6,2.9L35,45.2z M42.9,43.9L34.4,39
		l-0.1,0.3l8.5,4.9L42.9,43.9z M39.1,43.2l-6.7-4l-0.2,0.3l6.7,4L39.1,43.2z M35.9,55.6l2.9,2.1l0.2-0.2l-2.9-2.1L35.9,55.6z
		 M32.4,54l0.2-0.2l-6-4L26.4,50L32.4,54z M42.4,45.3l-0.2,0.2l2.9,1.8l0.2-0.2L42.4,45.3z M32.6,49.3l-6-4l-0.2,0.2l6,4L32.6,49.3z
		 M26.2,50.8l8.7,6.2l0.2-0.2l-8.7-6.2L26.2,50.8z"/>
	<path class="st1" d="M45.4,47.1L45.4,47.1L39,50.4l2.8-2.7l0,0l1.2-3.6l0,0c0,0,0,0,0-0.1c0,0,0,0,0-0.1c0,0,0,0,0-0.1c0,0,0,0,0,0
		l0,0l-4,6.4l1.1-3.7l-0.9-3.4c0,0,0,0,0-0.1c0,0,0,0,0,0c0,0,0,0-0.1,0c0,0,0,0-0.1,0l0,0l0,7.2L37.8,47l0,0l-2.7-1.8c0,0,0,0,0,0
		c0,0,0,0,0,0c0,0,0,0,0,0c0,0,0,0,0,0c0,0,0,0,0,0c0,0,0,0,0,0c0,0,0,0,0,0c0,0,0,0,0,0l0,0l4,5.2L36,48.7l0,0l-3.5,0.5l0,0
		c0,0,0,0-0.1,0c0,0,0,0-0.1,0c0,0,0,0,0,0.1c0,0,0,0,0,0.1l0,0l6.5,1.1l-3.5,0.6l0,0l-2.9,2.6c0,0,0,0,0,0.1c0,0,0,0,0,0.1
		c0,0,0,0,0,0.1c0,0,0,0,0,0.1l0,0l6.4-3.3l-2.8,2.7l-1.2,3.6c0,0,0,0,0,0.1c0,0,0,0,0,0.1c0,0,0,0,0,0.1c0,0,0,0,0,0l0,0l4-6.5
		l-1.1,3.7l0.9,3.3c0,0,0,0,0,0.1c0,0,0,0,0,0c0,0,0,0,0.1,0c0,0,0,0,0,0c0,0,0,0,0,0l0,0l0-7.1l1,3.3l0,0l2.6,1.7l0,0c0,0,0,0,0,0
		c0,0,0,0,0,0c0,0,0,0,0,0c0,0,0,0,0,0c0,0,0,0,0,0c0,0,0,0,0,0c0,0,0,0,0,0c0,0,0,0,0,0l0,0l-3.8-5l2.8,1.7l0,0l3.3-0.5l0,0
		c0,0,0,0,0.1,0c0,0,0,0,0.1,0c0,0,0,0,0,0c0,0,0,0,0-0.1l0,0L39,50.5l3.5-0.6l0,0l2.8-2.5c0,0,0,0,0-0.1c0,0,0,0,0-0.1
		C45.4,47.2,45.4,47.2,45.4,47.1C45.4,47.2,45.4,47.2,45.4,47.1"/>
	<path class="st1" d="M35.2,51.1L35.2,51.1L35.2,51.1l-2.9,2.5c0,0,0,0,0,0.1c0,0,0,0,0,0.1c0,0,0,0,0,0.1c0,0,0,0,0,0l0,0l6.4-3.3
		L35.2,51.1z M35.9,48.7L35.9,48.7L35.9,48.7l-3.5,0.4l0,0c0,0,0,0-0.1,0c0,0,0,0-0.1,0c0,0,0,0,0,0.1c0,0,0,0,0,0l6.5,1.1
		L35.9,48.7z M36,53.3L36,53.3l-1.2,3.6c0,0,0,0,0,0.1c0,0,0,0,0,0.1c0,0,0,0,0,0.1c0,0,0,0,0,0l0,0l4-6.4L36,53.3z M38.8,50.4
		L37.8,47l0,0l0,0l-2.7-1.8c0,0,0,0,0,0c0,0,0,0,0,0c0,0,0,0,0,0c0,0,0,0,0,0c0,0,0,0,0,0c0,0,0,0,0,0c0,0,0,0,0,0c0,0,0,0,0,0l0,0
		L38.8,50.4z M41.8,47.7C41.8,47.7,41.8,47.7,41.8,47.7l1.2-3.6v0c0,0,0,0,0-0.1c0,0,0,0,0-0.1c0,0,0,0,0-0.1c0,0,0,0,0,0l0,0
		L39,50.3L41.8,47.7z M41.8,52.2L41.8,52.2l3.3-0.5l0,0c0,0,0,0,0.1,0c0,0,0,0,0.1,0c0,0,0,0,0,0c0,0,0,0,0,0L39,50.5L41.8,52.2z
		 M45.4,47.2l-6.3,3.3l3.5-0.6l0,0l0,0l2.7-2.5c0,0,0,0,0-0.1c0,0,0,0,0-0.1C45.4,47.2,45.4,47.2,45.4,47.2
		C45.4,47.2,45.4,47.2,45.4,47.2 M37.7,54.4l0.9,3.2c0,0,0,0,0,0.1c0,0,0,0,0,0c0,0,0,0,0.1,0c0,0,0,0,0,0c0,0,0,0,0,0l0-7.1
		L37.7,54.4L37.7,54.4z M40,46.6L40,46.6l-0.9-3.3c0,0,0,0,0-0.1c0,0,0,0,0,0c0,0,0,0-0.1,0c0,0,0,0,0,0l0,7.2L40,46.6L40,46.6z
		 M39,50.6l1,3.3l0,0l2.6,1.7l0,0c0,0,0,0,0,0c0,0,0,0,0,0c0,0,0,0,0,0c0,0,0,0,0,0c0,0,0,0,0,0c0,0,0,0,0,0c0,0,0,0,0,0
		c0,0,0,0,0,0l0,0L39,50.6z"/>
	<path class="st0" d="M36,48.7l2.8,1.7l0,0l0,0l-3.9-5.1c0,0,0,0,0,0c0,0,0,0,0,0c0,0,0,0,0,0.1c0,0,0,0,0,0.1L36,48.7z M32.4,49.5
		l2.9,1.6l3.5-0.6l0,0l-6.4-1.1c0,0,0,0,0,0C32.3,49.4,32.3,49.4,32.4,49.5C32.3,49.5,32.4,49.5,32.4,49.5
		C32.4,49.5,32.4,49.5,32.4,49.5 M35.9,53.3l2.8-2.7l0,0l-6.4,3.3c0,0,0,0,0,0c0,0,0,0,0,0c0,0,0,0,0,0c0,0,0,0,0,0c0,0,0,0,0,0
		l2.9-0.6L35.9,53.3z M42.9,43.9C42.9,43.9,42.9,43.9,42.9,43.9C42.9,43.9,42.9,43.9,42.9,43.9C42.9,43.9,42.9,43.9,42.9,43.9
		C42.8,43.9,42.8,43.9,42.9,43.9c-0.1,0-0.1,0-0.1,0c0,0,0,0,0,0c0,0,0,0,0,0l-2.7,2.7L39,50.3l0,0L42.9,43.9z M39.1,50.4L39.1,50.4
		l6.3-3.2c0,0,0,0,0,0c0,0,0,0,0,0c0,0,0,0,0,0c0,0,0,0,0,0c0,0,0,0,0,0c-2.8,0.6-3.3,0.6-3.3,0.7L39.1,50.4z M38.9,43.2
		C38.9,43.2,38.9,43.2,38.9,43.2C38.9,43.2,38.8,43.2,38.9,43.2c-0.1,0.1-0.1,0.1-0.1,0.1l-1,3.7l1.1,3.4l0,0L38.9,43.2
		C38.9,43.2,38.9,43.2,38.9,43.2 M45.2,51.5C45.2,51.4,45.2,51.4,45.2,51.5l-2.7-1.6l-3.4,0.6l0,0l6.2,1.1
		C45.3,51.6,45.3,51.5,45.2,51.5C45.3,51.5,45.3,51.5,45.2,51.5C45.2,51.5,45.2,51.5,45.2,51.5 M41.8,52.3L39,50.6l0,0l0,0l3.8,5
		c0,0,0,0,0,0c0,0,0,0,0,0c0,0,0,0,0-0.1c0,0,0,0,0-0.1L41.8,52.3z M38.9,50.7l0,7c0,0,0,0,0,0c0,0,0,0,0,0c0,0,0,0,0,0
		c0,0,0,0,0-0.1l1-3.6L38.9,50.7L38.9,50.7z M34.9,57.1C34.9,57.1,34.9,57.1,34.9,57.1C34.9,57.1,34.9,57.1,34.9,57.1
		C35,57.1,35,57.1,34.9,57.1C35,57.1,35,57.1,34.9,57.1c0.1,0,0.1,0,0.1,0c0,0,0,0,0,0l2.7-2.7l1.1-3.7L34.9,57.1
		C34.9,57.1,34.9,57.1,34.9,57.1"/>
	<path class="st1" d="M38.9,43.2l0,7.1l0,0L37.8,47l1-3.7C38.8,43.3,38.8,43.3,38.9,43.2C38.8,43.2,38.9,43.2,38.9,43.2
		C38.9,43.2,38.9,43.2,38.9,43.2C38.9,43.2,38.9,43.2,38.9,43.2 M42.9,43.9C42.9,43.9,42.9,43.9,42.9,43.9
		C42.9,43.9,42.9,43.9,42.9,43.9L39,50.3l0,0l1.1-3.7l2.7-2.7C42.8,44,42.8,43.9,42.9,43.9C42.8,43.9,42.8,43.9,42.9,43.9
		C42.8,43.9,42.8,43.9,42.9,43.9C42.8,43.9,42.8,43.9,42.9,43.9C42.9,43.9,42.9,43.9,42.9,43.9 M34.9,45.3l3.9,5.1l0,0l0,0L36,48.7
		l-1.1-3.3c0,0,0,0,0-0.1C34.8,45.4,34.8,45.3,34.9,45.3C34.8,45.3,34.8,45.3,34.9,45.3C34.9,45.3,34.9,45.3,34.9,45.3 M45.2,47.1
		C45.2,47.1,45.2,47.1,45.2,47.1C45.2,47.1,45.3,47.1,45.2,47.1C45.3,47.1,45.3,47.1,45.2,47.1C45.3,47.1,45.3,47.1,45.2,47.1
		L39,50.4l0,0l2.8-2.6C41.9,47.7,42.4,47.6,45.2,47.1C45.2,47.1,45.2,47.1,45.2,47.1 M32.3,49.4l6.4,1.1l0,0l-3.5,0.6l-2.9-1.6
		c0,0,0,0,0,0C32.4,49.5,32.3,49.5,32.3,49.4C32.3,49.4,32.3,49.4,32.3,49.4C32.3,49.4,32.3,49.4,32.3,49.4 M42.5,49.9l2.7,1.5
		c0,0,0,0,0,0c0,0,0,0,0,0c0,0,0,0,0,0c0,0,0,0,0,0L39,50.5l0,0L42.5,49.9 M39,50.6L39,50.6l2.8,1.7l1.1,3.1c0,0,0,0,0,0.1
		c0,0,0,0,0,0.1c0,0,0,0,0,0c0,0,0,0,0,0L39,50.6L39,50.6 M38.8,50.6L38.8,50.6l-2.8,2.7l-0.5,0.1L32.5,54c0,0,0,0,0,0c0,0,0,0,0,0
		c0,0,0,0,0,0c0,0,0,0,0,0c0,0,0,0,0,0L38.8,50.6 M38.9,50.6l1,3.3l-1,3.6c0,0,0,0,0,0.1c0,0,0,0,0,0c0,0,0,0,0,0c0,0,0,0,0,0
		L38.9,50.6L38.9,50.6 M38.8,50.7l-1.1,3.7L35,57c0,0,0,0,0,0c0,0,0,0,0,0c0,0,0,0,0,0c0,0,0,0,0,0c0,0,0,0,0,0c0,0,0,0,0,0
		c0,0,0,0,0,0L38.8,50.7 M39,43.1L39,43.1C38.9,43.1,38.9,43.1,39,43.1c-0.1,0-0.1,0-0.1,0.1c0,0,0,0,0,0.1c0,0,0,0,0,0.1l-1,3.7
		l0,0l1.1,3.4l-4-5.2l0,0l0,0c0,0,0,0,0,0.1c0,0,0,0,0,0.1c0,0,0,0,0,0.1c0,0,0,0,0,0.1l1.2,3.3l0,0l2.8,1.7l-6.5-1.1l0,0
		c0,0,0,0,0,0.1v0c0,0,0,0,0,0.1c0,0,0,0,0,0.1c0,0,0,0,0.1,0l2.9,1.6l0,0l3.5-0.6l-6.4,3.3l0,0l0,0c0,0,0,0,0,0.1c0,0,0,0,0,0
		c0,0,0,0,0.1,0c0,0,0,0,0,0c0,0,0,0,0,0l3-0.6l0.5-0.1l2.8-2.7l-4,6.4l0,0l0,0c0,0,0,0,0,0c0,0,0,0,0,0c0,0,0,0,0,0c0,0,0,0,0,0
		c0,0,0,0,0,0c0,0,0,0,0,0c0,0,0,0,0,0c0,0,0,0,0,0l2.7-2.7l1.1-3.7l0,7.1l0,0c0,0,0,0,0.1,0c0,0,0,0,0.1,0c0,0,0,0,0-0.1
		c0,0,0,0,0-0.1l1-3.6l-1-3.3l3.8,5l0,0l0,0c0,0,0,0,0,0c0,0,0,0,0-0.1c0,0,0,0,0-0.1c0,0,0,0,0-0.1l-1.1-3.2L39,50.5l6.3,1.1l0,0
		c0,0,0,0,0-0.1c0,0,0,0,0-0.1c0,0,0,0,0-0.1c0,0,0,0,0,0l-2.7-1.5l0,0l-3.5,0.6l6.3-3.3l0,0c0,0,0,0,0-0.1c0,0,0,0,0,0
		c0,0,0,0-0.1,0c0,0,0,0,0,0c0,0,0,0,0,0c-3.3,0.7-3.3,0.7-3.3,0.7L39,50.3l3.9-6.4l0,0l0,0c0,0,0,0,0,0l0,0c0,0,0,0,0,0
		c0,0,0,0,0,0c0,0,0,0,0,0c0,0,0,0,0,0c0,0,0,0,0,0c0,0,0,0,0,0c0,0,0,0,0,0L40,46.6l0,0l-1.1,3.7L39,43.1z"/>
	<path class="st0" d="M54.1,44.5c-0.2-1-0.4-1.9-0.8-2.8c-0.3-0.9-0.8-1.8-1.3-2.5c-0.5-0.8-1.1-1.5-1.8-2.2
		c-0.7-0.7-1.5-1.3-2.3-1.7c-0.2-0.1-9.2-4.6-9.2-4.6c-0.1,0-0.1-0.1-0.2-0.1c-0.1,0-0.1-0.1-0.2-0.1c0,0,0,0,0,0c0,0,0,0,0,0
		c-0.1,0-0.1,0-0.2-0.1c-0.1,0-0.1-0.1-0.2-0.1c0,0,0,0,0,0c0,0-0.1,0-0.1,0c-0.1,0-0.1-0.1-0.2-0.1c0,0-0.1,0-0.1,0
		c0,0-0.1,0-0.1,0c0,0-0.1,0-0.1,0c-0.1,0-0.2-0.1-0.3-0.1c0,0,0,0,0,0c0,0,0,0,0,0c0,0,0,0,0,0c-0.1,0-0.2-0.1-0.3-0.1
		c0,0-0.1,0-0.1,0c0,0,0,0-0.1,0c0,0,0,0-0.1,0c-0.1,0-0.2,0-0.3-0.1c0,0-0.1,0-0.1,0c0,0,0,0-0.1,0c0,0-0.1,0-0.1,0
		c-0.1,0-0.2,0-0.3-0.1c0,0,0,0-0.1,0c0,0,0,0-0.1,0c0,0-0.1,0-0.1,0c-0.1,0-0.2,0-0.2,0c0,0-0.1,0-0.1,0c0,0,0,0,0,0c0,0,0,0,0,0
		c0,0-0.1,0-0.1,0c-0.1,0-0.2,0-0.2,0c0,0-0.1,0-0.1,0c0,0,0,0,0,0c0,0,0,0-0.1,0c-0.1,0-0.1,0-0.2,0c-0.1,0-0.1,0-0.2,0
		c0,0,0,0,0,0c0,0,0,0,0,0c-0.1,0-0.1,0-0.2,0c-0.1,0-0.1,0-0.2,0c0,0,0,0-0.1,0c0,0,0,0,0,0c0,0-0.1,0-0.1,0c-0.1,0-0.1,0-0.2,0
		c-0.1,0-0.1,0-0.2,0c0,0,0,0,0,0c0,0,0,0,0,0c0,0,0,0,0,0c-0.1,0-0.1,0-0.2,0c-0.1,0-0.1,0-0.2,0c0,0,0,0-0.1,0c0,0,0,0,0,0
		c0,0-0.1,0-0.1,0c-0.1,0-0.1,0-0.2,0c-0.1,0-0.1,0-0.2,0c0,0,0,0,0,0c0,0,0,0,0,0c-0.1,0-0.1,0-0.2,0c-0.1,0-0.1,0-0.2,0
		c0,0-0.1,0-0.1,0c0,0,0,0,0,0c0,0,0,0,0,0c0,0-0.1,0-0.1,0c0,0-0.1,0-0.1,0c0,0-0.1,0-0.1,0c0,0-0.1,0-0.1,0c0,0,0,0-0.1,0
		c0,0,0,0-0.1,0c0,0,0,0-0.1,0c0,0,0,0-0.1,0c0,0,0,0,0,0c0,0,0,0,0,0c0,0-0.1,0-0.1,0c-0.1,0-0.1,0-0.2,0c0,0,0,0,0,0c0,0,0,0,0,0
		c-0.1,0-0.1,0-0.2,0c0,0-0.1,0-0.1,0c0,0,0,0,0,0c0,0,0,0,0,0c-0.1,0-0.1,0-0.2,0c0,0-0.1,0-0.1,0c0,0,0,0,0,0c0,0,0,0,0,0
		c-0.1,0-0.1,0-0.2,0c0,0,0,0-0.1,0c0,0,0,0-0.1,0c0,0,0,0-0.1,0c-0.1,0-0.1,0-0.2,0c0,0,0,0,0,0c0,0,0,0,0,0c0,0-0.1,0-0.1,0
		c-0.1,0-0.1,0-0.2,0.1l0,0c0,0,0,0,0,0c-0.1,0-0.1,0-0.2,0c0,0-0.1,0-0.1,0c0,0,0,0,0,0c0,0,0,0,0,0c0,0,0,0,0,0
		c-0.1,0-0.1,0-0.2,0.1c0,0-0.1,0-0.1,0c0,0,0,0,0,0c0,0,0,0,0,0c-0.1,0-0.1,0-0.2,0.1c0,0,0,0-0.1,0c0,0,0,0-0.1,0c0,0,0,0-0.1,0
		c-0.1,0-0.1,0-0.2,0.1c0,0,0,0,0,0c0,0,0,0,0,0c0,0-0.1,0-0.1,0c-0.1,0-0.1,0-0.2,0.1c0,0,0,0,0,0c0,0,0,0,0,0
		c-0.1,0-0.1,0-0.2,0.1c0,0-0.1,0-0.1,0c0,0,0,0,0,0c0,0,0,0,0,0c-0.1,0-0.1,0.1-0.2,0.1c0,0,0,0-0.1,0c0,0,0,0-0.1,0c0,0,0,0-0.1,0
		c-0.1,0-0.1,0.1-0.2,0.1c0,0,0,0,0,0c0,0,0,0,0,0c0,0-0.1,0-0.1,0.1c0,0-0.1,0-0.1,0.1c0,0,0,0,0,0c0,0,0,0,0,0c0,0,0,0,0,0
		c-0.1,0-0.1,0.1-0.2,0.1c0,0,0,0-0.1,0c0,0,0,0-0.1,0c0,0,0,0-0.1,0c-0.1,0-0.1,0.1-0.2,0.1c0,0,0,0,0,0c0,0,0,0,0,0
		c-0.1,0-0.1,0.1-0.2,0.1c0,0-0.1,0-0.1,0.1c0,0,0,0-0.1,0c0,0,0,0,0,0c-0.1,0-0.1,0.1-0.2,0.1c0,0,0,0,0,0c0,0,0,0-0.1,0
		c0,0-0.1,0.1-0.1,0.1c0,0-0.1,0-0.1,0.1c0,0,0,0-0.1,0c0,0,0,0,0,0c-0.1,0-0.1,0.1-0.2,0.1c0,0,0,0,0,0c0,0,0,0-0.1,0
		c0,0-0.1,0.1-0.1,0.1c0,0,0,0-0.1,0c0,0-0.1,0-0.1,0.1c0,0,0,0-0.1,0c0,0-0.1,0.1-0.1,0.1c0,0,0,0,0,0c0,0,0,0,0,0c0,0,0,0,0,0
		c-0.1,0.1-0.1,0.1-0.2,0.2c0,0,0,0,0,0c0,0-0.1,0-0.1,0.1c0,0-0.1,0.1-0.1,0.1c0,0,0,0,0,0c0,0-0.1,0.1-0.1,0.1c0,0-0.1,0-0.1,0.1
		c0,0,0,0-0.1,0.1c0,0-0.1,0.1-0.1,0.1c0,0,0,0-0.1,0.1c0,0-0.1,0.1-0.1,0.1c0,0-0.1,0.1-0.1,0.1c0,0,0,0,0,0c0,0-0.1,0.1-0.1,0.1
		c0,0-0.1,0.1-0.1,0.1c0,0,0,0,0,0c0,0-0.1,0.1-0.1,0.1c0,0-0.1,0.1-0.1,0.1c0,0,0,0,0,0c-0.1,0-0.1,0.1-0.2,0.1
		c0,0-0.1,0.1-0.1,0.1c0,0,0,0,0,0c-0.1,0.1-0.2,0.2-0.2,0.2l0.1,5.2l7.6,5c0.6-0.9,1.3-1.8,2-2.6c0.8-0.8,1.6-1.5,2.5-2.2
		c0.9-0.6,1.8-1.2,2.8-1.6c1-0.4,2-0.7,3.1-0.9c1.7-0.3,3.3-0.1,4.8,0.3c1.4,0.4,2.7,1.2,3.8,2.2c1.1,1,1.9,2.2,2.5,3.7
		c0.6,1.4,0.9,3,0.8,4.7c0,1.7-0.4,3.4-1,5c-0.6,1.6-1.5,3.1-2.6,4.4c-1.1,1.3-2.4,2.5-3.8,3.4c-1.4,0.9-3,1.6-4.7,1.9
		c-1.5,0.3-2.9,0.3-4.3,0.1c-1.3-0.2-2.6-0.7-3.7-1.5c-1.1-0.7-2-1.7-2.8-2.8c-0.7-1.1-1.3-2.5-1.6-4l-7.4-5.6l-3.7,0.6
		c0,0,0,0,0,0.1c0,0,0,0,0,0.1s0,0,0,0.1c0,0,0,0,0,0.1c0,0,0,0,0,0c0,0,0,0,0,0c0,0,0,0.1,0,0.1c0,0.1,0,0.1,0,0.2l0,0c0,0,0,0,0,0
		c0,0.1,0,0.1,0,0.2c0,0,0,0.1,0,0.1c0,0,0,0,0,0c0,0,0,0,0,0c0,0.1,0,0.1,0,0.2c0,0,0,0,0,0.1c0,0,0,0,0,0c0,0,0,0,0,0.1
		c0,0.1,0,0.1,0,0.2c0,0,0,0,0,0c0,0,0,0,0,0c0,0,0,0.1,0,0.1c0,0.1,0,0.1,0,0.2c0,0,0,0,0,0l0,0c0,0.1,0,0.1,0.1,0.2
		c0,0,0,0.1,0,0.1c0,0,0,0,0,0c0,0,0,0,0,0c0,0.1,0,0.1,0.1,0.2c0,0,0,0,0,0c0,0,0,0,0,0c0,0,0,0,0,0c0,0,0,0.1,0,0.1
		c0,0.1,0,0.1,0.1,0.2l0,0l0,0c0,0.1,0,0.1,0.1,0.2c0,0,0,0.1,0,0.1c0,0,0,0,0,0c0,0,0,0,0,0c0,0.1,0,0.1,0.1,0.2c0,0,0,0,0,0
		c0,0,0,0,0,0c0,0,0,0.1,0,0.1c0,0,0,0.1,0,0.1c0,0,0,0,0,0c0,0,0,0,0,0c0,0.1,0.1,0.1,0.1,0.2c0,0,0,0,0,0c0,0,0,0,0,0.1
		c0,0,0,0.1,0,0.1c0,0,0,0.1,0,0.1c0,0,0,0,0,0.1c0,0,0,0,0,0c0,0.1,0.1,0.1,0.1,0.2c0,0,0,0,0,0c0,0,0,0,0,0c0,0,0,0.1,0.1,0.1
		c0,0,0,0,0,0.1c0,0,0,0,0,0c0,0,0,0,0,0c0,0,0,0,0,0.1c0,0.1,0.1,0.1,0.1,0.2c0,0.1,0.1,0.1,0.1,0.2c0,0,0,0,0,0c0,0,0,0,0,0
		c0,0.1,0.1,0.1,0.1,0.2c0,0.1,0.1,0.1,0.1,0.2c0,0,0,0,0.1,0.1c0,0,0,0,0,0c0,0,0,0.1,0.1,0.1c0,0.1,0.1,0.1,0.1,0.2
		c0,0,0.1,0.1,0.1,0.1c0,0,0,0,0,0c0,0,0,0,0,0c0.1,0.1,0.1,0.2,0.2,0.3c0,0,0,0.1,0.1,0.1c0,0,0,0,0,0c0,0,0,0,0,0
		c0,0,0,0.1,0.1,0.1c0.1,0.1,0.1,0.2,0.2,0.2c0,0,0,0,0,0c0,0,0,0,0.1,0.1c0,0,0.1,0.1,0.1,0.1c0.1,0.1,0.1,0.1,0.2,0.2c0,0,0,0,0,0
		c0,0,0,0,0,0c0.1,0.1,0.2,0.2,0.3,0.3c0,0,0.1,0,0.1,0.1c0,0,0.1,0.1,0.1,0.1c0,0,0.1,0.1,0.1,0.1c0.1,0.1,0.2,0.2,0.3,0.2l7.4,6.1
		c0,0,0,0,0,0c0.1,0.1,0.2,0.1,0.2,0.2c0.8,0.6,1.6,1.1,2.5,1.5c0.9,0.4,1.8,0.7,2.8,0.9c1,0.2,2,0.3,3,0.3c1,0,2.1-0.1,3.1-0.3
		c1-0.2,2.1-0.5,3.1-0.9c1-0.4,2-0.9,2.9-1.5c0.9-0.6,1.8-1.2,2.6-2c0.8-0.7,1.6-1.5,2.3-2.4c0.7-0.9,1.4-1.8,1.9-2.7
		c0.6-0.9,1-1.9,1.4-2.9c0.4-1,0.7-2,0.9-3.1c0.2-1,0.3-2.1,0.4-3.1C54.3,46.5,54.2,45.5,54.1,44.5"/>
	<path class="st1" d="M35.5,67c-1,0-2-0.1-2.9-0.3c-1-0.2-2-0.5-2.9-0.9c-0.9-0.4-1.8-1-2.6-1.6c-0.1-0.1-0.2-0.1-0.2-0.2l0,0
		l-7.4-6.1c-0.1-0.1-0.2-0.2-0.3-0.2c0,0,0,0-0.1-0.1l0,0c0,0-0.1-0.1-0.1-0.1l0,0c0,0,0,0-0.1,0c-0.1-0.1-0.2-0.2-0.3-0.3L18.6,57
		c-0.1-0.1-0.1-0.1-0.2-0.2c0,0-0.1-0.1-0.1-0.1l-0.1-0.1c-0.1-0.1-0.1-0.2-0.2-0.3c0,0,0,0,0-0.1l0,0c0,0,0,0,0,0c0,0,0,0,0,0l0,0
		c0,0,0,0,0-0.1c-0.1-0.1-0.1-0.2-0.2-0.3l-0.1-0.1c0,0,0-0.1-0.1-0.1c-0.1-0.1-0.1-0.1-0.2-0.2c0,0,0,0,0-0.1l-0.1-0.2
		c0-0.1-0.1-0.1-0.1-0.2c0-0.1-0.1-0.1-0.1-0.2l0,0c0-0.1-0.1-0.1-0.1-0.2c0-0.1-0.1-0.1-0.1-0.2l-0.1-0.2c0,0,0-0.1-0.1-0.1l0-0.1
		c0-0.1-0.1-0.1-0.1-0.2l-0.2-0.4c0-0.1-0.1-0.1-0.1-0.2l-0.2-0.4c0-0.1,0-0.1-0.1-0.2l-0.1-0.2c0-0.1,0-0.1-0.1-0.2
		c0-0.1,0-0.1-0.1-0.2l-0.1-0.2c0-0.1,0-0.1-0.1-0.2l-0.1-0.2c0,0,0-0.1,0-0.1l0-0.1l0,0c0,0,0-0.1,0-0.1l0-0.2c0-0.1,0-0.1,0-0.2
		l0-0.2c0-0.1,0-0.1,0-0.2l0-0.2c0,0,0-0.1,0-0.1l0,0c0-0.1,0-0.1,0-0.2L15,49.7l-0.1-0.4l4.2-0.7l7.7,5.8l0,0.1
		c0.3,1.4,0.8,2.7,1.5,3.8c0.7,1.1,1.6,2,2.7,2.7c1.1,0.7,2.3,1.2,3.5,1.4c1.3,0.2,2.7,0.2,4.1-0.1c1.6-0.3,3.1-0.9,4.5-1.9
		c1.4-0.9,2.6-2,3.7-3.3c1.1-1.3,1.9-2.8,2.5-4.3c0.6-1.6,1-3.2,1-4.9c0-1.6-0.2-3.2-0.8-4.6c-0.5-1.4-1.3-2.5-2.4-3.5
		c-1-1-2.3-1.7-3.6-2.1c-1.4-0.4-3-0.5-4.6-0.3c-1,0.1-2,0.4-3,0.8c-1,0.4-1.9,0.9-2.7,1.5c-0.9,0.6-1.7,1.3-2.4,2.1
		c-0.7,0.8-1.4,1.7-2,2.6L28.7,45l-8.1-5.4l-0.1-5.6l0.1-0.1c0.1-0.1,0.2-0.2,0.3-0.2l0.1-0.1c0,0,0.1-0.1,0.1-0.1l0.2-0.1
		c0,0,0.1-0.1,0.1-0.1l0,0c0,0,0.1,0,0.1-0.1l0.1-0.1c0,0,0.1,0,0.1-0.1l0.6-0.5c0,0,0.1-0.1,0.1-0.1l0,0c0,0,0.1,0,0.1-0.1l0.2-0.1
		c0.1-0.1,0.1-0.1,0.2-0.2L23,32c0,0,0.1-0.1,0.1-0.1l0.2-0.2c0,0,0.1-0.1,0.1-0.1l0.1-0.1c0.1,0,0.1-0.1,0.2-0.1l0.4-0.3
		c0.1,0,0.1-0.1,0.2-0.1l0.2-0.1c0.1,0,0.1-0.1,0.2-0.1l0,0c0.1,0,0.1-0.1,0.2-0.1l0.2-0.1c0.1,0,0.1-0.1,0.2-0.1l0.1,0
		c0,0,0.1,0,0.1-0.1c0,0,0.1,0,0.1-0.1l0.1,0c0.1,0,0.1-0.1,0.2-0.1l0.2-0.1c0.1,0,0.1-0.1,0.2-0.1l0.2-0.1c0.1,0,0.1,0,0.2-0.1l0,0
		c0.1,0,0.1,0,0.2-0.1l0.2-0.1c0.1,0,0.1,0,0.2-0.1l0.2-0.1c0.1,0,0.1,0,0.2-0.1l0.2-0.1c0.1,0,0.1,0,0.2-0.1l0.1,0.4L28,29.5l0,0
		c0.1,0,0.1,0,0.2,0c0.1,0,0.1,0,0.2,0l0,0c0.1,0,0.1,0,0.2-0.1l0.2,0c0.1,0,0.1,0,0.2,0l0.2,0c0.1,0,0.1,0,0.2,0l0.2,0
		c0.1,0,0.1,0,0.2,0l0,0c0,0,0.1,0,0.1,0c0.1,0,0.1,0,0.2,0l0,0c0.1,0,0.1,0,0.2,0l0.7-0.1c0,0,0.1,0,0.1,0c0,0,0.1,0,0.1,0l0,0
		c0.1,0,0.1,0,0.2,0c0.1,0,0.1,0,0.2,0c0.1,0,0.1,0,0.2,0l0,0c0.1,0,0.1,0,0.2,0c0.1,0,0.1,0,0.2,0l0.2,0c0.1,0,0.1,0,0.2,0
		c0.1,0,0.1,0,0.2,0l0,0c0.1,0,0.1,0,0.2,0c0.1,0,0.1,0,0.2,0l0.2,0c0.1,0,0.1,0,0.2,0c0.1,0,0.1,0,0.2,0l0,0c0.1,0,0.1,0,0.2,0
		c0.1,0,0.1,0,0.2,0l0.2,0c0.1,0,0.2,0,0.2,0l0.2,0c0.1,0,0.2,0,0.2,0l0.2,0c0.1,0,0.2,0,0.3,0.1l0.3,0.1c0.1,0,0.2,0,0.3,0.1l0.2,0
		c0,0,0.1,0,0.1,0c0.1,0,0.2,0.1,0.3,0.1l0,0c0.1,0,0.2,0.1,0.3,0.1l0.2,0.1c0,0,0.1,0,0.1,0c0.1,0,0.1,0,0.2,0.1l0.1,0.1
		c0.1,0,0.1,0.1,0.2,0.1c0.1,0,0.1,0.1,0.2,0.1l0,0c0.1,0,0.1,0.1,0.2,0.1c0.1,0,0.1,0.1,0.2,0.1c0.9,0.5,9,4.5,9.2,4.6
		c0.9,0.5,1.7,1.1,2.4,1.8c0.7,0.7,1.4,1.4,1.9,2.3c0.5,0.8,1,1.7,1.4,2.6c0.4,0.9,0.6,1.9,0.8,2.9c0.2,1,0.2,2.1,0.2,3.1
		c0,1.1-0.2,2.1-0.4,3.2c-0.2,1.1-0.5,2.1-0.9,3.1c-0.4,1-0.9,2-1.4,3c-0.6,1-1.2,1.9-1.9,2.8c-0.7,0.9-1.5,1.7-2.4,2.5
		c-0.8,0.7-1.7,1.4-2.7,2C44,64.8,43,65.3,42,65.7c-1,0.4-2.1,0.7-3.1,1c-1.1,0.2-2.1,0.3-3.2,0.4C35.6,67,35.6,67,35.5,67
		 M27.4,63.4c0.1,0.1,0.1,0.1,0.2,0.2c0.7,0.6,1.6,1.1,2.4,1.5c0.9,0.4,1.8,0.7,2.7,0.9c0.9,0.2,1.9,0.3,2.9,0.3c1,0,2-0.1,3-0.3
		c1-0.2,2-0.5,3-0.9c1-0.4,1.9-0.9,2.8-1.4c0.9-0.6,1.8-1.2,2.6-1.9c0.8-0.7,1.6-1.5,2.3-2.4c0.7-0.8,1.3-1.8,1.9-2.7
		c0.5-0.9,1-1.9,1.4-2.9c0.4-1,0.7-2,0.9-3c0.2-1,0.3-2.1,0.4-3.1c0-1,0-2-0.2-3c-0.2-1-0.4-1.9-0.7-2.8c-0.3-0.9-0.8-1.7-1.3-2.5
		c-0.5-0.8-1.1-1.5-1.8-2.1c-0.7-0.6-1.4-1.2-2.3-1.7c-0.2-0.1-6.7-3.4-9.2-4.6c-0.1,0-0.1-0.1-0.2-0.1c-0.1,0-0.1-0.1-0.2-0.1l0,0
		c-0.1,0-0.1,0-0.2-0.1c-0.1,0-0.1-0.1-0.2-0.1l-0.1-0.1c-0.1,0-0.1,0-0.2-0.1c0,0-0.1,0-0.1,0L37,30.3c-0.1,0-0.2-0.1-0.3-0.1
		l-0.1,0c-0.1,0-0.2-0.1-0.3-0.1c0,0-0.1,0-0.1,0l-0.2,0c-0.1,0-0.2,0-0.3-0.1l-0.3-0.1c-0.1,0-0.2,0-0.3-0.1l-0.2,0
		c-0.1,0-0.1,0-0.2,0l-0.2,0c-0.1,0-0.2,0-0.2,0l-0.2,0c-0.1,0-0.1,0-0.2,0c-0.1,0-0.1,0-0.2,0l0,0c-0.1,0-0.1,0-0.2,0
		c-0.1,0-0.1,0-0.2,0l-0.2,0c-0.1,0-0.1,0-0.2,0c-0.1,0-0.1,0-0.2,0l0,0c-0.1,0-0.1,0-0.2,0c-0.1,0-0.1,0-0.2,0l-0.2,0
		c-0.1,0-0.1,0-0.2,0c-0.1,0-0.1,0-0.2,0l0,0c-0.1,0-0.1,0-0.2,0c-0.1,0-0.1,0-0.2,0c0,0-0.1,0-0.1,0l-0.1,0c0,0-0.1,0-0.1,0
		l-0.8,0.1c-0.1,0-0.1,0-0.2,0l0,0c0,0-0.1,0-0.1,0c0,0-0.1,0-0.1,0l0,0l-0.1-0.4l0.1,0.4c-0.1,0-0.1,0-0.2,0l-0.2,0
		c-0.1,0-0.1,0-0.2,0l-0.2,0c-0.1,0-0.1,0-0.2,0l-0.2,0c-0.1,0-0.1,0-0.2,0l0,0c0,0-0.1,0-0.1,0c0,0-0.1,0-0.1,0l0,0
		c-0.1,0-0.1,0-0.2,0.1l-0.2,0.1c-0.1,0-0.1,0-0.2,0.1l-0.2,0.1c-0.1,0-0.1,0-0.2,0.1l-0.2,0.1c-0.1,0-0.1,0-0.2,0.1l-0.2-0.4
		l0.1,0.4c-0.1,0-0.1,0-0.2,0.1l-0.2,0.1c-0.1,0-0.1,0.1-0.2,0.1L26.3,31c-0.1,0-0.1,0.1-0.2,0.1l-0.1,0c0,0-0.1,0-0.1,0.1
		c0,0-0.1,0-0.1,0.1l-0.1,0c-0.1,0-0.1,0.1-0.2,0.1l-0.2,0.1c-0.1,0-0.1,0.1-0.2,0.1l0,0c-0.1,0-0.1,0.1-0.2,0.1l-0.2,0.1
		c-0.1,0-0.1,0.1-0.2,0.1l-0.4,0.2c-0.1,0-0.1,0.1-0.2,0.1l-0.1,0.1c0,0-0.1,0.1-0.1,0.1l-0.2,0.1c0,0-0.1,0.1-0.1,0.1l-0.1,0.1
		c-0.1,0.1-0.1,0.1-0.2,0.2L23,33c0,0-0.1,0-0.1,0.1l0,0c0,0-0.1,0-0.1,0.1l-0.6,0.5c0,0,0,0-0.1,0.1L22,33.8c0,0-0.1,0-0.1,0.1l0,0
		c0,0-0.1,0.1-0.1,0.1l-0.2,0.1c0,0-0.1,0.1-0.1,0.1l-0.1,0.1c0,0-0.1,0.1-0.1,0.1l0.1,4.8l7.1,4.7c0.5-0.8,1.2-1.6,1.8-2.4
		c0.8-0.8,1.6-1.6,2.5-2.2c0.9-0.6,1.9-1.2,2.9-1.6c1-0.4,2.1-0.7,3.2-0.9c1.7-0.3,3.4-0.1,5,0.3c1.5,0.5,2.8,1.2,3.9,2.3
		c1.1,1,2,2.3,2.6,3.8c0.6,1.5,0.9,3.2,0.8,4.9c0,1.7-0.4,3.5-1,5.1c-0.6,1.6-1.5,3.1-2.6,4.5c-1.1,1.4-2.4,2.5-3.9,3.5
		c-1.5,1-3.1,1.6-4.8,2c-1.5,0.3-3,0.3-4.4,0.1c-1.4-0.3-2.7-0.8-3.8-1.5c-1.2-0.8-2.1-1.8-2.9-2.9c-0.8-1.2-1.3-2.5-1.6-4L19,49.5
		L15.8,50l0,0c0,0,0,0.1,0,0.1l0,0c0,0,0,0.1,0,0.1l0,0.2c0,0.1,0,0.1,0,0.2l0,0.2c0,0.1,0,0.1,0,0.2l0,0.2c0,0,0,0.1,0,0.1l0,0.1
		c0,0,0,0.1,0,0.1l0.1,0.2c0,0.1,0,0.1,0.1,0.2l0.1,0.2c0,0.1,0,0.1,0.1,0.2c0,0.1,0,0.1,0.1,0.2l0.1,0.2c0,0.1,0,0.1,0.1,0.2
		l0.1,0.3c0,0.1,0.1,0.1,0.1,0.2l0.2,0.3c0,0.1,0.1,0.1,0.1,0.2l0,0.1c0,0,0,0.1,0.1,0.1l0.1,0.2c0,0.1,0.1,0.1,0.1,0.2
		c0,0.1,0.1,0.1,0.1,0.2l0,0c0,0.1,0.1,0.1,0.1,0.2c0,0.1,0.1,0.1,0.1,0.2l0.1,0.2c0,0.1,0.1,0.1,0.1,0.2c0,0,0,0.1,0.1,0.1l0.1,0.1
		c0.1,0.1,0.1,0.2,0.2,0.2c0,0,0,0,0,0l0,0c0,0,0,0,0,0l0,0c0,0,0,0,0,0l0,0c0,0,0,0,0,0c0.1,0.1,0.1,0.2,0.2,0.2l0.1,0.1
		c0,0,0.1,0.1,0.1,0.1c0.1,0.1,0.1,0.1,0.2,0.2l0.1,0.1c0.1,0.1,0.2,0.2,0.3,0.2c0,0,0,0,0,0l0,0c0,0,0.1,0,0.1,0.1l0,0
		c0,0,0,0,0.1,0.1c0.1,0.1,0.2,0.2,0.3,0.2L27.4,63.4z"/>
	<path class="st1" d="M39,33.6c1.1-0.2,2.2-0.2,3.2-0.1c1,0.1,2,0.2,3,0.5c0.9,0.3,1.8,0.7,2.7,1.2c0.8,0.5,1.6,1.1,2.3,1.7
		c0.7,0.7,1.3,1.4,1.8,2.2c0.5,0.8,1,1.6,1.3,2.5c0.3,0.9,0.6,1.8,0.8,2.8c0.2,1,0.2,2,0.2,3.1c0,1.1-0.1,2.1-0.4,3.1
		c-0.2,1-0.5,2.1-0.9,3.1c-0.4,1-0.9,2-1.4,2.9c-0.6,0.9-1.2,1.9-1.9,2.7c-0.7,0.9-1.5,1.7-2.3,2.4c-0.8,0.7-1.7,1.4-2.6,2
		c-0.9,0.6-1.9,1.1-2.9,1.5c-1,0.4-2,0.7-3.1,0.9c-1,0.2-2.1,0.3-3.1,0.3c-1,0-2-0.1-3-0.3c-1-0.2-1.9-0.5-2.8-0.9
		c-0.9-0.4-1.7-0.9-2.5-1.5c-0.6-0.5-1.2-1.1-1.8-1.7c-0.5-0.6-1-1.3-1.4-2c-0.4-0.7-0.7-1.5-1-2.3c-0.3-0.8-0.5-1.6-0.6-2.5
		l3.9-0.7c0.3,1.5,0.8,2.8,1.6,4c0.7,1.1,1.7,2.1,2.8,2.8c1.1,0.7,2.3,1.2,3.7,1.5c1.3,0.2,2.8,0.2,4.3-0.1c1.7-0.3,3.2-1,4.7-1.9
		c1.4-0.9,2.7-2.1,3.8-3.4c1.1-1.3,2-2.8,2.6-4.4c0.6-1.6,1-3.3,1-5c0-1.7-0.3-3.3-0.8-4.7c-0.6-1.4-1.4-2.7-2.5-3.7
		c-1.1-1-2.4-1.8-3.8-2.2c-1.5-0.4-3.1-0.6-4.8-0.3c-1.1,0.2-2.1,0.4-3.1,0.9c-1,0.4-1.9,0.9-2.8,1.6c-0.9,0.6-1.7,1.4-2.5,2.2
		c-0.8,0.8-1.4,1.7-2,2.6l0-5.5c0.7-0.7,1.5-1.4,2.4-2c0.8-0.6,1.7-1.1,2.6-1.6c0.9-0.4,1.8-0.8,2.7-1.1C37.1,34,38.1,33.8,39,33.6"
		/>
	<path class="st1" d="M35.5,67c-1,0-2-0.1-2.9-0.3c-1-0.2-2-0.5-2.9-0.9c-0.9-0.4-1.8-1-2.6-1.6c-0.7-0.5-1.3-1.1-1.8-1.7
		c-0.5-0.6-1-1.3-1.4-2.1c-0.4-0.7-0.8-1.5-1-2.3c-0.3-0.8-0.5-1.7-0.6-2.6l0.3-0.4l3.9-0.7l0.5,0.3c0.3,1.4,0.8,2.7,1.5,3.8
		c0.7,1.1,1.6,2,2.7,2.7c1.1,0.7,2.3,1.2,3.5,1.4c1.3,0.2,2.7,0.2,4.1-0.1c1.6-0.3,3.1-0.9,4.5-1.9c1.4-0.9,2.6-2,3.7-3.3
		c1.1-1.3,1.9-2.8,2.5-4.3c0.6-1.6,1-3.2,1-4.9c0-1.6-0.2-3.2-0.8-4.6c-0.5-1.4-1.3-2.5-2.4-3.5c-1-1-2.3-1.7-3.6-2.1
		c-1.4-0.4-3-0.5-4.6-0.3c-1,0.1-2,0.4-3,0.8c-1,0.4-1.9,0.9-2.7,1.5c-0.9,0.6-1.7,1.3-2.4,2.1c-0.7,0.8-1.4,1.7-2,2.6l-0.7-0.2
		l0-5.5l0.1-0.3c0.8-0.7,1.6-1.4,2.4-2c0.8-0.6,1.7-1.1,2.6-1.6c0.9-0.5,1.8-0.8,2.8-1.1c0.9-0.3,1.9-0.5,2.9-0.7
		c1.1-0.2,2.2-0.2,3.3-0.1c1,0.1,2.1,0.3,3,0.5c1,0.3,1.9,0.7,2.8,1.2c0.9,0.5,1.7,1.1,2.4,1.8c0.7,0.7,1.4,1.4,1.9,2.3
		c0.5,0.8,1,1.7,1.4,2.6c0.4,0.9,0.6,1.9,0.8,2.9c0.2,1,0.2,2.1,0.2,3.1c0,1.1-0.2,2.1-0.4,3.2c-0.2,1.1-0.5,2.1-0.9,3.1
		c-0.4,1-0.9,2-1.4,3c-0.6,1-1.2,1.9-1.9,2.8c-0.7,0.9-1.5,1.7-2.4,2.5c-0.8,0.7-1.7,1.4-2.7,2C44,64.8,43,65.3,42,65.7
		c-1,0.4-2.1,0.7-3.1,1c-1.1,0.2-2.1,0.3-3.2,0.4C35.6,67,35.6,67,35.5,67 M23.1,55.7c0.1,0.7,0.3,1.4,0.5,2.1
		c0.3,0.8,0.6,1.5,1,2.2c0.4,0.7,0.8,1.3,1.4,1.9c0.5,0.6,1.1,1.1,1.7,1.6c0.7,0.6,1.6,1.1,2.4,1.5c0.9,0.4,1.8,0.7,2.7,0.9
		c0.9,0.2,1.9,0.3,2.9,0.3c1,0,2-0.1,3-0.3c1-0.2,2-0.5,3-0.9c1-0.4,1.9-0.9,2.8-1.4c0.9-0.6,1.8-1.2,2.6-1.9
		c0.8-0.7,1.6-1.5,2.3-2.4c0.7-0.8,1.3-1.8,1.9-2.7c0.5-0.9,1-1.9,1.4-2.9c0.4-1,0.7-2,0.9-3c0.2-1,0.3-2.1,0.4-3.1c0-1,0-2-0.2-3
		c-0.2-1-0.4-1.9-0.7-2.8c-0.3-0.9-0.8-1.7-1.3-2.5c-0.5-0.8-1.1-1.5-1.8-2.1c-0.7-0.6-1.4-1.2-2.3-1.7c-0.8-0.5-1.7-0.8-2.6-1.1
		c-0.9-0.3-1.9-0.4-2.9-0.5c-1-0.1-2.1,0-3.1,0.1c-0.9,0.1-1.8,0.3-2.7,0.6c-0.9,0.3-1.8,0.7-2.6,1.1c-0.9,0.4-1.7,1-2.5,1.5
		c-0.8,0.6-1.5,1.2-2.2,1.8l0,4.1c0.4-0.6,0.9-1.1,1.3-1.6c0.8-0.8,1.6-1.6,2.5-2.2c0.9-0.7,1.9-1.2,2.9-1.6c1-0.4,2.1-0.7,3.2-0.9
		c1.7-0.3,3.4-0.1,5,0.3c1.5,0.5,2.8,1.2,3.9,2.3c1.1,1,2,2.3,2.6,3.8c0.6,1.5,0.9,3.2,0.8,4.9c0,1.7-0.4,3.5-1,5.1
		c-0.6,1.6-1.5,3.1-2.6,4.5c-1.1,1.4-2.4,2.5-3.9,3.5c-1.5,1-3.1,1.6-4.8,2c-1.5,0.3-3,0.3-4.4,0.1c-1.4-0.3-2.7-0.8-3.8-1.5
		c-1.2-0.8-2.1-1.8-2.9-2.9c-0.7-1.1-1.2-2.4-1.5-3.7L23.1,55.7z"/>
	<path class="st0" d="M44.4,17.8c0,0,0-0.1,0-0.1c0,0,0-0.1,0-0.1c0,0,0,0,0,0c0,0,0,0,0,0c0,0,0-0.1,0-0.1c0,0,0-0.1,0-0.1
		c0,0,0-0.1,0-0.1c0,0,0,0,0,0c0,0,0,0,0,0c0,0,0-0.1,0-0.1c0,0,0-0.1,0-0.1c0,0,0-0.1,0-0.1c0,0,0,0,0-0.1c0,0,0,0,0,0c0,0,0,0,0,0
		c0,0,0-0.1,0-0.1c0,0,0-0.1,0-0.1c0,0,0-0.1,0-0.1c0,0,0,0,0,0c0,0,0,0,0,0c0,0,0-0.1,0-0.1c0,0,0-0.1,0-0.1c0,0,0-0.1,0-0.1
		c0,0,0,0,0,0c0,0,0,0,0,0c0,0,0,0,0,0c0,0,0-0.1,0-0.1c0,0,0-0.1,0-0.1c0,0,0-0.1,0-0.1c0,0,0,0,0,0c0,0,0,0,0,0c0,0,0-0.1,0-0.1
		c0,0,0-0.1,0-0.1c0,0,0-0.1,0-0.1c0,0,0,0,0,0c0,0,0,0,0,0c0,0,0-0.1,0-0.1c0,0,0-0.1,0-0.1c0,0,0-0.1,0-0.1c0,0,0,0,0,0
		c0,0,0,0,0,0c0,0,0,0,0,0c0,0,0-0.1,0-0.1c0,0,0-0.1,0-0.1c0,0,0-0.1,0-0.1c0,0,0,0,0,0c0,0,0,0,0,0c0,0,0,0,0-0.1c0,0,0-0.1,0-0.1
		c0,0,0-0.1,0-0.1c0,0,0,0,0,0c0,0,0,0,0,0c0,0,0-0.1,0-0.1c0,0,0-0.1,0-0.1c0,0,0-0.1,0-0.1l0,0c0,0,0,0,0,0c0,0,0-0.1-0.1-0.1
		c0,0,0-0.1-0.1-0.1c0,0,0,0,0-0.1c0,0,0,0,0,0c0,0,0,0,0,0c0,0,0-0.1-0.1-0.1c0,0,0-0.1-0.1-0.1c0,0,0,0,0,0c0,0,0,0,0,0
		c0,0,0-0.1-0.1-0.1c0-0.1-0.1-0.1-0.1-0.1c0,0,0,0,0,0c0,0,0,0,0,0c0,0,0-0.1-0.1-0.1c0,0-0.1-0.1-0.1-0.1c0,0,0,0,0,0c0,0,0,0,0,0
		c0,0,0-0.1-0.1-0.1c0-0.1-0.1-0.1-0.1-0.2c0,0,0,0,0,0c0,0,0,0,0,0c0,0,0,0,0,0c0-0.1-0.1-0.1-0.1-0.2c0,0,0,0-0.1-0.1
		c0,0,0,0,0-0.1c0,0,0,0,0,0c0-0.1-0.1-0.1-0.1-0.2c0,0,0,0,0,0c0,0,0-0.1-0.1-0.1c0-0.1-0.1-0.1-0.1-0.2c0,0-0.1-0.1-0.1-0.1
		c0-0.1-0.1-0.1-0.1-0.1c0,0-0.1-0.1-0.1-0.1c0,0-0.1-0.1-0.1-0.1c0,0-0.1-0.1-0.1-0.1c0,0,0,0-0.1-0.1c0,0-0.1-0.1-0.1-0.1
		c0,0-0.1-0.1-0.1-0.1c0,0-0.1-0.1-0.2-0.1c0,0-0.1-0.1-0.1-0.1c-0.1-0.1-0.1-0.1-0.2-0.2c0,0,0,0-0.1,0c0,0,0,0,0,0
		c-0.1-0.1-0.2-0.1-0.2-0.2c0,0,0,0,0,0c0,0,0,0-0.1,0c-0.1,0-0.1-0.1-0.2-0.1c0,0-0.1,0-0.1-0.1c-0.1,0-0.1-0.1-0.2-0.1
		c0,0-0.1,0-0.1-0.1c-0.1,0-0.1-0.1-0.2-0.1c0,0-0.1,0-0.1-0.1c0,0-0.1,0-0.1,0c0,0-0.1,0-0.1,0c0,0-0.1,0-0.1-0.1
		c-0.1,0-0.1-0.1-0.2-0.1c0,0-0.1,0-0.1-0.1c-0.1,0-0.1-0.1-0.2-0.1c0,0-0.1,0-0.1,0c-0.1,0-0.2-0.1-0.3-0.1l-8.4-2.8
		c0.1,0,0.2,0.1,0.3,0.1c0,0,0.1,0,0.1,0c0.1,0,0.1,0.1,0.2,0.1c0,0,0.1,0,0.1,0c0.1,0,0.1,0.1,0.2,0.1c0,0,0.1,0,0.1,0.1
		c0.1,0,0.1,0.1,0.2,0.1c0,0,0.1,0,0.1,0.1c0.1,0,0.1,0.1,0.2,0.1c0,0,0.1,0,0.1,0.1C31.9,7,31.9,7,32,7.1c0,0,0.1,0,0.1,0.1
		c0.1,0,0.1,0.1,0.2,0.1c0,0,0,0,0.1,0c0.1,0.1,0.2,0.1,0.2,0.2c0,0,0,0,0.1,0c0.1,0,0.1,0.1,0.2,0.1c0,0,0.1,0,0.1,0.1
		c0,0,0.1,0.1,0.1,0.1c0,0,0.1,0.1,0.1,0.1c0,0,0.1,0.1,0.1,0.1c0,0,0.1,0.1,0.1,0.1c0,0,0.1,0.1,0.1,0.1c0,0,0.1,0.1,0.1,0.1
		c0,0,0.1,0.1,0.1,0.1c0,0,0.1,0.1,0.1,0.1c0,0.1,0.1,0.1,0.1,0.2c0,0,0,0.1,0.1,0.1C34,9,34.1,9,34.1,9.1c0,0,0,0,0,0.1
		c0.1,0.1,0.1,0.2,0.2,0.2c0,0,0,0,0,0c0.1,0.1,0.1,0.2,0.2,0.3c0,0,0,0,0,0c0.1,0.1,0.1,0.2,0.2,0.3c0,0,0,0,0,0
		c0.1,0.1,0.1,0.2,0.2,0.3c0,0,0,0,0,0c0,0.1,0.1,0.2,0.1,0.3c0,0,0,0,0,0c0,0.1,0.1,0.2,0.1,0.3c0,0,0,0,0,0c0,0.1,0.1,0.2,0.1,0.3
		c0,0,0,0,0,0c0,0.1,0.1,0.2,0.1,0.3c0,0,0,0,0,0c0,0.1,0.1,0.2,0.1,0.3c0,0,0,0,0,0c0,0.1,0.1,0.2,0.1,0.3c0,0,0,0,0,0
		c0,0.1,0.1,0.2,0.1,0.3c0,0,0,0,0,0c0,0.1,0,0.2,0.1,0.3c0,0,0,0,0,0c0,0.1,0,0.2,0.1,0.3c0,0,0,0,0,0c0,0.1,0,0.2,0,0.3
		c0,0,0,0,0,0c0,0.1,0,0.2,0,0.3c0,0,0,0,0,0c0,0.1,0,0.2,0,0.4c0,0,0,0,0,0c0,0.1,0,0.2,0,0.4c0,0.2,0,0.3,0,0.5c0,0,0,0,0,0
		c0,0.3,0,0.6-0.1,0.9c0,0,0,0,0,0c0,0.2,0,0.3-0.1,0.5c0,0,0,0,0,0c0,0.2-0.1,0.3-0.1,0.4c0,0,0,0,0,0c0,0.1-0.1,0.3-0.1,0.4
		c0,0,0,0,0,0c0,0.1-0.1,0.3-0.1,0.4l0,0c0,0.1-0.1,0.3-0.1,0.4c0,0,0,0,0,0c0,0.1-0.1,0.3-0.2,0.4c0,0,0,0,0,0
		c0,0.1-0.1,0.2-0.1,0.2c0,0.1-0.1,0.1-0.1,0.2c0,0.1-0.1,0.1-0.1,0.2c0,0.1-0.1,0.1-0.1,0.2c0,0.1-0.1,0.1-0.1,0.2
		c0,0.1-0.1,0.1-0.1,0.2c0,0.1-0.1,0.1-0.1,0.2c0,0.1-0.1,0.1-0.1,0.2c-0.1,0.1-0.1,0.2-0.2,0.3c0,0,0,0,0,0
		c-0.1,0.1-0.1,0.2-0.2,0.3c0,0.1-0.1,0.1-0.1,0.2c0,0.1-0.1,0.1-0.1,0.2c0,0.1-0.1,0.1-0.1,0.2c-0.1,0.1-0.1,0.1-0.2,0.2
		c0,0-0.1,0.1-0.1,0.1C33,21.9,32.9,22,32.9,22c0,0-0.1,0.1-0.1,0.1c-0.1,0.1-0.2,0.2-0.3,0.3c0,0,0,0,0,0c-0.1,0.1-0.2,0.2-0.3,0.3
		c0,0,0,0,0,0c-0.1,0.1-0.2,0.2-0.3,0.3c0,0,0,0,0,0c-0.1,0.1-0.2,0.2-0.3,0.3c0,0,0,0,0,0c-0.1,0.1-0.2,0.2-0.4,0.2l0,0
		c-0.1,0.1-0.2,0.1-0.4,0.2c0,0,0,0,0,0c-0.1,0-0.1,0.1-0.2,0.1c0,0,0,0,0,0c-0.1,0-0.1,0.1-0.2,0.1c0,0,0,0,0,0
		c-0.1,0-0.1,0.1-0.2,0.1c0,0,0,0,0,0c-0.1,0-0.1,0.1-0.2,0.1c0,0,0,0,0,0c-0.1,0-0.1,0.1-0.2,0.1c0,0,0,0,0,0
		c-0.1,0-0.1,0.1-0.2,0.1c0,0,0,0,0,0c-0.1,0-0.1,0-0.2,0.1c0,0,0,0,0,0c-0.1,0-0.1,0-0.2,0.1c0,0,0,0,0,0c-0.1,0-0.3,0.1-0.4,0.1
		c0,0,0,0,0,0c-0.1,0-0.1,0-0.2,0.1c0,0,0,0,0,0c-0.1,0-0.1,0-0.2,0c0,0,0,0,0,0c-0.1,0-0.1,0-0.2,0l0,0c-0.1,0-0.1,0-0.2,0
		c0,0,0,0,0,0c-0.1,0-0.1,0-0.2,0c0,0,0,0,0,0c-0.1,0-0.1,0-0.2,0c-0.1,0-0.2,0-0.3,0c0,0,0,0,0,0c-0.1,0-0.2,0-0.3,0c0,0,0,0,0,0
		c-0.1,0-0.2,0-0.3,0c0,0,0,0,0,0c-0.1,0-0.2,0-0.3,0c0,0,0,0,0,0c-0.1,0-0.2,0-0.3,0c0,0,0,0,0,0c-0.1,0-0.2,0-0.3,0c0,0,0,0,0,0
		c-0.1,0-0.2,0-0.3,0c0,0,0,0,0,0c-0.1,0-0.2,0-0.3,0l0,0c-0.1,0-0.2,0-0.3-0.1c0,0,0,0,0,0c-0.1,0-0.2,0-0.3-0.1c0,0,0,0,0,0
		c-0.1,0-0.2,0-0.3-0.1c0,0,0,0,0,0c-0.1,0-0.2,0-0.2-0.1c0,0,0,0-0.1,0c-0.1,0-0.1,0-0.2-0.1c0,0,0,0,0,0c-0.1,0-0.2-0.1-0.2-0.1
		c0,0,0,0,0,0c-0.1,0-0.2-0.1-0.2-0.1c0,0,0,0,0,0c-0.1,0-0.2-0.1-0.2-0.1l7.9,4c0.1,0,0.1,0.1,0.2,0.1c0,0,0.1,0,0.1,0c0,0,0,0,0,0
		c0,0,0,0,0,0c0.1,0,0.1,0,0.2,0.1c0,0,0,0,0.1,0c0,0,0,0,0,0c0,0,0,0,0,0c0.1,0,0.1,0,0.2,0.1c0,0,0,0,0,0c0,0,0,0,0,0
		c0,0,0.1,0,0.1,0.1c0,0,0.1,0,0.1,0c0,0,0,0,0,0c0,0,0,0,0,0c0,0,0,0,0.1,0c0.1,0,0.1,0,0.2,0.1c0,0,0,0,0,0c0,0,0,0,0,0
		c0,0,0.1,0,0.1,0c0,0,0.1,0,0.1,0c0,0,0,0,0,0c0,0,0,0,0,0c0.1,0,0.1,0,0.2,0c0,0,0.1,0,0.1,0c0,0,0,0,0,0c0,0,0,0,0,0
		c0,0,0.1,0,0.1,0c0,0,0.1,0,0.1,0l0,0h0h0c0,0,0.1,0,0.1,0c0,0,0.1,0,0.1,0c0,0,0,0,0,0c0,0,0,0,0,0c0,0,0.1,0,0.1,0
		c0,0,0.1,0,0.1,0c0,0,0,0,0.1,0c0,0,0,0,0,0c0,0,0,0,0,0c0,0,0.1,0,0.1,0c0,0,0.1,0,0.1,0c0,0,0,0,0,0l0,0c0,0,0.1,0,0.1,0
		c0,0,0.1,0,0.1,0c0,0,0,0,0.1,0c0,0,0,0,0,0c0,0,0,0,0,0c0,0,0,0,0,0c0,0,0.1,0,0.1,0c0,0,0.1,0,0.1,0c0,0,0,0,0,0c0,0,0,0,0,0
		c0,0,0.1,0,0.1,0c0,0,0.1,0,0.1,0c0,0,0.1,0,0.1,0c0,0,0,0,0,0c0,0,0,0,0,0c0,0,0.1,0,0.1,0c0,0,0.1,0,0.1,0c0,0,0,0,0.1,0
		c0,0,0,0,0,0c0,0,0,0,0,0c0,0,0,0,0.1,0c0,0,0,0,0.1,0c0,0,0,0,0.1,0c0,0,0,0,0.1,0c0,0,0,0,0,0c0,0,0,0,0,0c0,0,0,0,0,0
		c0,0,0,0,0,0c0,0,0,0,0.1,0c0,0,0,0,0,0c0,0,0,0,0,0c0,0,0.1,0,0.1,0c0,0,0.1,0,0.1,0l0,0l0,0c0,0,0.1,0,0.1,0c0,0,0.1,0,0.1,0
		c0,0,0,0,0,0c0,0,0,0,0,0c0,0,0.1,0,0.1,0c0,0,0.1,0,0.1,0c0,0,0,0,0,0l0,0c0,0,0,0,0.1,0c0,0,0.1,0,0.1,0c0,0,0,0,0.1,0
		c0,0,0,0,0,0c0,0,0,0,0,0c0,0,0.1,0,0.1,0c0,0,0.1,0,0.1,0c0,0,0,0,0,0c0,0,0,0,0,0c0,0,0.1,0,0.1,0c0,0,0.1,0,0.1,0
		c0,0,0.1,0,0.1,0c0,0,0.1,0,0.1,0c0,0,0,0,0,0c0,0,0,0,0,0c0,0,0,0,0.1,0c0,0,0.1,0,0.1,0c0,0,0,0,0,0c0,0,0,0,0,0c0,0,0,0,0.1,0
		c0,0,0.1,0,0.1,0c0,0,0,0,0,0c0,0,0,0,0,0c0,0,0,0,0,0c0,0,0.1,0,0.1,0c0,0,0,0,0,0c0,0,0,0,0,0c0,0,0,0,0,0c0,0,0.1,0,0.1,0
		c0,0,0,0,0.1,0c0,0,0,0,0,0c0,0,0,0,0,0c0,0,0.1,0,0.1-0.1c0,0,0,0,0,0c0,0,0,0,0,0c0,0,0,0,0,0c0,0,0.1,0,0.1-0.1c0,0,0,0,0,0
		c0,0,0,0,0,0c0,0,0,0,0,0c0,0,0.1,0,0.1-0.1c0,0,0,0,0,0c0,0,0,0,0,0c0,0,0,0,0,0c0,0,0.1,0,0.1-0.1c0,0,0,0,0,0c0,0,0,0,0,0
		c0,0,0,0,0,0c0,0,0,0,0.1,0c0,0,0.1,0,0.1-0.1c0,0,0.1,0,0.1-0.1c0,0,0.1,0,0.1-0.1l0,0c0,0,0,0,0,0c0,0,0.1-0.1,0.1-0.1
		c0,0,0.1-0.1,0.1-0.1c0,0,0.1,0,0.1-0.1l0,0c0,0,0,0,0,0c0,0,0.1-0.1,0.1-0.1c0,0,0.1-0.1,0.1-0.1c0,0,0.1,0,0.1-0.1c0,0,0,0,0,0
		c0,0,0,0,0,0c0,0,0.1-0.1,0.1-0.1c0,0,0.1-0.1,0.1-0.1c0,0,0,0,0,0c0,0,0,0,0,0c0,0,0.1-0.1,0.1-0.1c0.1,0,0.1-0.1,0.2-0.2
		c0,0,0,0,0.1,0c0,0,0,0,0,0c0,0,0.1,0,0.1-0.1c0.1-0.1,0.1-0.1,0.2-0.2c0,0,0,0,0,0c0,0,0.1-0.1,0.1-0.1c0,0,0.1-0.1,0.1-0.1
		c0,0,0,0,0.1-0.1c0-0.1,0.1-0.1,0.1-0.2c0,0,0.1-0.1,0.1-0.1c0,0,0,0,0.1-0.1c0,0,0,0,0.1-0.1c0,0,0.1-0.1,0.1-0.1
		c0,0,0.1-0.1,0.1-0.1c0,0,0-0.1,0.1-0.1c0-0.1,0.1-0.1,0.1-0.2c0,0,0.1-0.1,0.1-0.1c0,0,0.1-0.1,0.1-0.1c0,0,0,0,0-0.1c0,0,0,0,0,0
		c0,0,0,0,0-0.1c0,0,0.1-0.1,0.1-0.1c0,0,0.1-0.1,0.1-0.1c0,0,0,0,0,0c0-0.1,0.1-0.1,0.1-0.2c0-0.1,0.1-0.1,0.1-0.2c0,0,0,0,0,0
		c0-0.1,0.1-0.1,0.1-0.2c0-0.1,0.1-0.1,0.1-0.2c0,0,0,0,0,0c0-0.1,0.1-0.1,0.1-0.2c0-0.1,0.1-0.1,0.1-0.2c0,0,0,0,0,0
		c0-0.1,0.1-0.1,0.1-0.2c0-0.1,0.1-0.1,0.1-0.2c0,0,0,0,0-0.1c0,0,0,0,0,0c0,0,0-0.1,0-0.1c0-0.1,0.1-0.1,0.1-0.2c0,0,0-0.1,0-0.1
		c0,0,0,0,0,0c0,0,0,0,0,0c0,0,0,0,0,0c0,0,0-0.1,0-0.1c0,0,0-0.1,0-0.1c0,0,0,0,0,0c0-0.1,0-0.1,0.1-0.2l0,0c0,0,0,0,0,0
		c0-0.1,0-0.1,0.1-0.2c0,0,0,0,0,0c0,0,0,0,0-0.1c0,0,0,0,0-0.1c0,0,0-0.1,0-0.1c0,0,0,0,0-0.1c0,0,0,0,0,0c0-0.1,0-0.1,0-0.2
		c0,0,0,0,0,0c0,0,0,0,0,0c0,0,0-0.1,0-0.1c0,0,0-0.1,0-0.1c0,0,0,0,0,0c0,0,0,0,0,0c0-0.1,0-0.1,0-0.2c0,0,0,0,0-0.1l0,0
		c0,0,0,0,0,0c0,0,0-0.1,0-0.1c0,0,0,0,0,0c0,0,0,0,0,0c0,0,0-0.1,0-0.1c0,0,0-0.1,0-0.1c0,0,0,0,0,0l0,0c0,0,0-0.1,0-0.1
		c0,0,0-0.1,0-0.1l0,0c0,0,0,0,0,0c0,0,0-0.1,0-0.1c0,0,0-0.1,0-0.1c0,0,0-0.1,0-0.1c0,0,0-0.1,0-0.1c0,0,0-0.1,0-0.1
		c0,0,0-0.1,0-0.1c0,0,0-0.1,0-0.1c0,0,0-0.1,0-0.1c0,0,0,0,0,0c0,0,0,0,0,0c0,0,0-0.1,0-0.1c0,0,0-0.1,0-0.1c0,0,0,0,0,0
		c0,0,0,0,0,0c0,0,0,0,0,0c0,0,0,0,0-0.1c0,0,0,0,0-0.1c0,0,0,0,0-0.1c0,0,0,0,0,0C44.4,17.9,44.4,17.9,44.4,17.8
		C44.4,17.9,44.4,17.9,44.4,17.8C44.4,17.8,44.4,17.8,44.4,17.8"/>
	<path class="st1" d="M34.3,29.4C34.3,29.4,34.3,29.4,34.3,29.4l-0.1,0h0l-0.1,0c0,0-0.1,0-0.1,0c0,0-0.1,0-0.1,0c0,0-0.1,0-0.1,0
		c0,0-0.1,0-0.1,0l-0.1,0c0,0-0.1,0-0.1,0c0,0-0.1,0-0.1,0l0,0c0,0-0.1,0-0.1,0c0,0-0.1,0-0.1,0l0,0c0,0,0,0,0,0l0,0
		c0,0-0.1,0-0.1,0c0,0-0.1,0-0.1,0l0,0l0.1-0.4l-0.1,0.4c0,0-0.1,0-0.1,0c-0.1,0-0.1,0-0.2,0l0,0c0,0-0.1,0-0.1,0c0,0-0.1,0-0.1,0
		l0,0c-0.1,0-0.1,0-0.2-0.1L31.6,29c-0.1,0-0.1,0-0.2-0.1l0,0c-0.1,0-0.1-0.1-0.2-0.1L31,28.7c-0.1,0-0.1,0-0.2-0.1l-0.1,0
		c0,0-0.1,0-0.1,0c-0.1,0-0.1-0.1-0.2-0.1l-7.9-4c0,0,0,0,0,0l0.4-0.7h0l0,0c0.1,0,0.1,0.1,0.2,0.1l0,0c0.1,0,0.1,0.1,0.2,0.1l0,0
		c0.1,0,0.1,0.1,0.2,0.1l0,0c0.1,0,0.1,0,0.2,0.1l0.1,0c0.1,0,0.2,0,0.2,0.1l0,0c0.1,0,0.2,0,0.2,0.1c0.1,0,0.2,0,0.3,0.1l0,0
		c0.1,0,0.2,0,0.3,0.1l0,0c0.1,0,0.2,0,0.2,0l0,0c0.1,0,0.2,0,0.2,0l0,0c0.1,0,0.2,0,0.3,0l0,0c0.1,0,0.2,0,0.3,0l0,0
		c0.1,0,0.2,0,0.3,0l0,0c0.1,0,0.2,0,0.3,0l0,0c0.1,0,0.2,0,0.3,0l0,0.4l0-0.4c0.1,0,0.2,0,0.3,0c0.1,0,0.1,0,0.2,0l0,0
		c0.1,0,0.1,0,0.2,0l0,0c0.1,0,0.1,0,0.2,0l0,0c0.1,0,0.1,0,0.2,0l0,0c0.1,0,0.1,0,0.2,0l0,0c0.1,0,0.1,0,0.2-0.1l0,0
		c0.1,0,0.3-0.1,0.4-0.1l0.1,0.4l-0.1-0.4c0.1,0,0.1,0,0.2-0.1l0,0c0.1,0,0.1,0,0.2-0.1l0,0c0.1,0,0.1,0,0.2-0.1l0,0
		c0.1,0,0.1-0.1,0.2-0.1l0,0c0.1,0,0.1-0.1,0.2-0.1l0,0c0.1,0,0.1-0.1,0.2-0.1l0,0c0.1,0,0.1-0.1,0.2-0.1l0,0c0.1,0,0.1-0.1,0.2-0.1
		l0,0c0.1-0.1,0.2-0.1,0.3-0.2l0,0c0.1-0.1,0.2-0.2,0.3-0.2c0.1-0.1,0.2-0.2,0.3-0.2l0,0c0.1-0.1,0.2-0.2,0.3-0.3l0,0
		c0.1-0.1,0.2-0.2,0.3-0.3l0,0c0.1-0.1,0.2-0.2,0.3-0.2c0,0,0.1-0.1,0.1-0.1l0,0c0.1-0.1,0.1-0.1,0.2-0.2c0,0,0.1-0.1,0.1-0.1l0,0
		c0.1-0.1,0.1-0.1,0.2-0.2c0,0,0.1-0.1,0.1-0.1c0-0.1,0.1-0.1,0.1-0.2c0-0.1,0.1-0.1,0.1-0.2c0.1-0.1,0.1-0.2,0.2-0.3l0,0
		c0.1-0.1,0.1-0.2,0.2-0.3c0,0,0-0.1,0.1-0.1l0.1-0.1c0,0,0.1-0.1,0.1-0.2c0,0,0-0.1,0.1-0.1l0-0.1c0-0.1,0.1-0.1,0.1-0.2
		c0,0,0-0.1,0.1-0.1l0-0.1c0-0.1,0.1-0.1,0.1-0.2c0,0,0-0.1,0.1-0.1l0-0.1c0-0.1,0.1-0.1,0.1-0.2l0,0c0.1-0.1,0.1-0.2,0.1-0.4l0,0
		c0.1-0.1,0.1-0.3,0.1-0.4l0,0c0-0.1,0.1-0.3,0.1-0.4l0,0c0-0.1,0.1-0.3,0.1-0.4l0,0c0-0.1,0.1-0.3,0.1-0.4l0.4,0.1l-0.4-0.1
		c0-0.1,0.1-0.3,0.1-0.4l0,0c0-0.3,0.1-0.6,0.1-0.9c0-0.2,0-0.3,0-0.5c0-0.1,0-0.2,0-0.4l0,0c0-0.1,0-0.2,0-0.3l0.4,0l-0.4,0
		c0-0.1,0-0.2,0-0.3l0.4-0.1l-0.4,0c0-0.1,0-0.2,0-0.3l0,0c0-0.1,0-0.2-0.1-0.3l0.4-0.1l-0.4,0.1c0-0.1,0-0.2-0.1-0.3
		c0-0.1-0.1-0.2-0.1-0.3c0-0.1-0.1-0.2-0.1-0.3l0.4-0.1l-0.4,0.1c0-0.1-0.1-0.2-0.1-0.3l0.4-0.1L35,11.6c0-0.1-0.1-0.2-0.1-0.3
		l0.4-0.2l-0.4,0.1c0-0.1-0.1-0.2-0.1-0.3c0-0.1-0.1-0.2-0.1-0.3l0,0c0-0.1-0.1-0.2-0.1-0.3c-0.1-0.1-0.1-0.2-0.2-0.3l0,0
		c0-0.1-0.1-0.2-0.1-0.3l0,0c-0.1-0.1-0.1-0.2-0.2-0.2l0,0c-0.1-0.1-0.1-0.2-0.2-0.2l0,0c-0.1-0.1-0.1-0.1-0.2-0.2c0,0,0,0,0,0l0,0
		c0-0.1-0.1-0.1-0.1-0.2c0,0,0,0-0.1-0.1l0,0c0,0-0.1-0.1-0.1-0.1c0,0-0.1-0.1-0.1-0.1c0,0-0.1-0.1-0.1-0.1c0,0-0.1-0.1-0.1-0.1
		c0,0-0.1-0.1-0.1-0.1l0,0c0,0,0,0-0.1-0.1c0,0-0.1-0.1-0.1-0.1l0,0c0,0,0,0-0.1,0c-0.1,0-0.1-0.1-0.2-0.1l-0.1,0
		c-0.1-0.1-0.2-0.1-0.2-0.2l-0.1,0c-0.1,0-0.1-0.1-0.2-0.1c0,0,0,0-0.1,0l0,0c-0.1,0-0.1-0.1-0.2-0.1c0,0-0.1,0-0.1-0.1l0,0
		c-0.1,0-0.1-0.1-0.2-0.1c0,0-0.1,0-0.1-0.1c-0.1,0-0.1-0.1-0.2-0.1C31.1,7,31,7,31,7c-0.1,0-0.1-0.1-0.2-0.1l0,0c0,0,0,0-0.1,0
		c-0.1,0-0.1-0.1-0.2-0.1l0,0c0,0,0,0,0,0c-0.1,0-0.2-0.1-0.3-0.1l0,0h0l0.3-0.7v0c0,0,0,0,0,0l8.4,2.8c0.1,0,0.2,0.1,0.3,0.1
		c0,0,0,0,0.1,0l0,0c0.1,0,0.1,0.1,0.2,0.1c0,0,0.1,0,0.1,0l0,0c0.1,0,0.1,0.1,0.2,0.1c0,0,0.1,0,0.1,0.1l0,0c0,0,0,0,0.1,0
		c0,0,0,0,0.1,0l0,0c0,0,0.1,0,0.1,0.1c0.1,0,0.1,0.1,0.2,0.1l0,0c0,0,0.1,0,0.1,0.1c0.1,0,0.1,0.1,0.2,0.1l0,0c0,0,0,0,0.1,0
		c0.1,0,0.1,0.1,0.2,0.1l0,0c0,0,0,0,0,0l0,0c0.1,0.1,0.2,0.1,0.3,0.2l0,0c0,0,0,0,0,0l0,0c0.1,0.1,0.1,0.1,0.2,0.2c0,0,0,0,0.1,0.1
		l0,0c0.1,0,0.1,0.1,0.2,0.1c0,0,0.1,0.1,0.1,0.1l0,0c0,0,0,0,0.1,0.1c0,0,0,0,0,0l0,0c0,0,0.1,0.1,0.1,0.1c0,0,0.1,0.1,0.1,0.1
		c0,0,0.1,0.1,0.1,0.1c0,0.1,0.1,0.1,0.1,0.2l0,0c0,0,0,0,0.1,0.1c0,0.1,0.1,0.1,0.1,0.2l0,0c0,0,0,0,0,0.1l0,0
		c0,0.1,0.1,0.1,0.1,0.2l0.1,0.1c0,0,0,0,0,0c0,0.1,0.1,0.1,0.1,0.2l0,0c0,0.1,0.1,0.1,0.1,0.2c0,0,0,0.1,0.1,0.1l0,0.1
		c0,0.1,0.1,0.1,0.1,0.2c0,0,0,0.1,0.1,0.1l0,0c0,0.1,0.1,0.1,0.1,0.2c0,0,0,0.1,0.1,0.1l0,0c0,0,0,0.1,0.1,0.1c0,0,0,0.1,0.1,0.1
		l0.1,0.1c0,0,0,0.1,0.1,0.1c0,0,0,0.1,0.1,0.1l0,0c0,0,0,0.1,0,0.1c0,0,0,0.1,0.1,0.1l0,0.1c0,0,0,0.1,0,0.1c0,0,0,0.1,0,0.1l0,0.1
		c0,0,0,0.1,0,0.1c0,0,0,0.1,0,0.1l0,0.1c0,0,0,0.1,0,0.1c0,0,0,0.1,0,0.1c0,0,0,0.1,0,0.1l0,0c0,0,0,0.1,0,0.1c0,0,0,0.1,0,0.1
		c0,0,0,0.1,0,0.1l-0.4,0.1l0.4-0.1l0,0.1c0,0,0,0.1,0,0.1c0,0,0,0.1,0,0.1l0,0.1c0,0,0,0.1,0,0.1c0,0,0,0.1,0,0.1l0,0.1l-0.4,0.1
		l0.4,0c0,0,0,0.1,0,0.1c0,0,0,0.1,0,0.1c0,0,0,0.1,0,0.1l0,0.1c0,0,0,0.1,0,0.1c0,0,0,0.1,0,0.1l0,0.1l-0.4,0l0.4,0l0,0
		c0,0,0,0.1,0,0.1c0,0,0,0.1,0,0.1c0,0,0,0.1,0,0.1l0,0.1c0,0,0,0.1,0,0.1l0,0.4l-0.4,0l0.4,0l0,0c0,0,0,0.1,0,0.1l0,0.1
		c0,0,0,0.1,0,0.1c0,0,0,0.1,0,0.1c0,0,0,0.1,0,0.1c0,0,0,0.1,0,0.1c0,0,0,0.1,0,0.1c0,0,0,0.1,0,0.1c0,0,0,0.1,0,0.1
		c0,0,0,0.1,0,0.1l0,0c0,0,0,0.1,0,0.1c0,0,0,0.1,0,0.1l0,0c0,0,0,0.1,0,0.1l0,0.1c0,0,0,0.1,0,0.1l0,0.1c0,0.1,0,0.1,0,0.2l0,0
		c0,0,0,0.1,0,0.1l0,0.2c0,0.1,0,0.1,0,0.2l-0.1,0.4c0,0.1,0,0.1-0.1,0.2c0,0.1,0,0.1-0.1,0.2L44,22.1c0,0,0,0.1,0,0.1
		c0,0.1-0.1,0.1-0.1,0.2l-0.1,0.2c0,0,0,0.1-0.1,0.1l-0.1,0.1c0,0.1-0.1,0.1-0.1,0.2l0,0c0,0,0,0,0,0c0,0,0,0.1-0.1,0.1l-0.1,0.1
		c0,0.1-0.1,0.1-0.1,0.2l0,0c0,0,0,0,0,0c0,0,0,0.1-0.1,0.1l-0.1,0.1c0,0.1-0.1,0.1-0.1,0.2l0,0c0,0,0,0.1-0.1,0.1L43,24.2
		c0,0-0.1,0.1-0.1,0.1c0,0,0,0,0,0c0,0-0.1,0.1-0.1,0.1c0,0-0.1,0.1-0.1,0.1l-0.1,0.1c0,0-0.1,0.1-0.1,0.1c0,0,0,0-0.1,0.1l0,0
		c0,0.1-0.1,0.1-0.1,0.2l0,0c0,0,0,0,0,0.1c0,0,0,0-0.1,0.1l-0.1,0.1c0,0,0,0-0.1,0.1c0,0,0,0,0,0l0,0.1c0,0,0,0,0,0
		c0,0,0,0.1-0.1,0.1l-0.1,0.1c0,0-0.1,0.1-0.1,0.1l0,0c0,0,0,0,0,0c0,0-0.1,0.1-0.1,0.1l-0.1,0.1c0,0-0.1,0.1-0.1,0.1l0,0
		c0,0,0,0,0,0c-0.1,0.1-0.1,0.1-0.2,0.2L41,26.7c-0.1,0.1-0.1,0.1-0.2,0.2c0,0,0,0-0.1,0.1L40.6,27c0,0-0.1,0.1-0.1,0.1
		c0,0-0.1,0.1-0.1,0.1l-0.1,0.1c0,0-0.1,0.1-0.1,0.1c0,0-0.1,0.1-0.1,0.1l0,0c0,0-0.1,0.1-0.1,0.1c0,0-0.1,0.1-0.1,0.1
		c0,0-0.1,0.1-0.1,0.1l-0.1,0.1c0,0-0.1,0.1-0.1,0.1c0,0-0.1,0-0.1,0.1l-0.1,0c0,0,0,0,0,0l0,0c0,0-0.1,0-0.1,0.1l-0.1,0.1
		c0,0-0.1,0-0.1,0.1l-0.1,0.1c0,0-0.1,0-0.1,0.1l-0.1,0.1c0,0-0.1,0-0.1,0.1l-0.1,0.1c0,0-0.1,0-0.1,0l-0.1,0c0,0-0.1,0-0.1,0
		l-0.1,0c0,0-0.1,0-0.1,0l-0.1,0c0,0-0.1,0-0.1,0l-0.1,0l-0.1-0.4l0.1,0.4l0,0c0,0-0.1,0-0.1,0c0,0-0.1,0-0.1,0c0,0-0.1,0-0.1,0
		c0,0-0.1,0-0.1,0l-0.1,0c0,0-0.1,0-0.1,0l-0.1,0c0,0-0.1,0-0.1,0l-0.1,0c0,0-0.1,0-0.1,0l-0.1,0l-0.1-0.4l0.1,0.4l0,0
		c0,0-0.1,0-0.1,0c0,0-0.1,0-0.1,0l0,0c0,0-0.1,0-0.1,0c0,0-0.1,0-0.1,0l0,0l-0.1-0.4l0.1,0.4l-0.6,0.1c0,0-0.1,0-0.1,0
		c0,0-0.1,0-0.1,0l0,0c0,0-0.1,0-0.1,0c0,0-0.1,0-0.1,0l-0.1,0C34.4,29.4,34.4,29.4,34.3,29.4C34.3,29.4,34.3,29.4,34.3,29.4
		 M35.1,28.6l0.1,0.4L35.1,28.6l0.5-0.1c0,0,0.1,0,0.1,0c0,0,0.1,0,0.1,0l0,0c0,0,0.1,0,0.1,0c0,0,0.1,0,0.1,0l0,0l0.1,0.4L36,28.4
		l0.1,0c0,0,0.1,0,0.1,0l0.1,0c0,0,0.1,0,0.1,0l0.1,0c0,0,0.1,0,0.1,0l0.1,0c0,0,0.1,0,0.1,0c0,0,0.1,0,0.1,0c0,0,0.1,0,0.1,0
		c0,0,0.1,0,0.1,0l0.1,0c0,0,0.1,0,0.1,0l0.1,0c0,0,0.1,0,0.1,0l0.1,0c0,0,0.1,0,0.1,0l0.1,0c0,0,0.1,0,0.1,0l0.1,0c0,0,0.1,0,0.1,0
		l0.1-0.1c0,0,0.1,0,0.1-0.1l0.1-0.1c0,0,0.1,0,0.1-0.1l0.1-0.1c0,0,0.1,0,0.1-0.1l0.1-0.1c0,0,0.1,0,0.1-0.1c0,0,0.1,0,0.1-0.1
		l0.1-0.1c0,0,0.1-0.1,0.1-0.1c0,0,0.1-0.1,0.1-0.1c0,0,0.1,0,0.1-0.1l0,0l0.2,0.3l-0.2-0.3c0,0,0.1-0.1,0.1-0.1
		c0,0,0.1-0.1,0.1-0.1l0.1-0.1c0,0,0.1-0.1,0.1-0.1c0,0,0.1-0.1,0.1-0.1l0.1-0.1c0,0,0,0,0.1-0.1c0.1,0,0.1-0.1,0.2-0.1l0.2-0.2
		c0.1-0.1,0.1-0.1,0.2-0.2l0,0c0,0,0.1-0.1,0.1-0.1l0.1-0.1c0,0,0,0,0.1-0.1l0-0.1c0,0,0.1-0.1,0.1-0.1l0.1-0.1c0,0,0,0,0.1-0.1
		c0,0,0,0,0,0l0,0c0,0,0,0,0,0l0,0c0,0,0,0,0,0c0,0,0,0,0,0l0-0.1c0,0,0,0,0-0.1c0,0,0,0,0,0l0,0c0-0.1,0.1-0.1,0.1-0.2l0,0
		c0,0,0,0,0-0.1c0,0,0.1-0.1,0.1-0.1l0.1-0.1c0,0,0.1-0.1,0.1-0.1c0,0,0.1-0.1,0.1-0.1l0,0c0,0,0.1-0.1,0.1-0.1l0.1-0.1
		c0,0,0-0.1,0.1-0.1l0,0c0,0,0.1-0.1,0.1-0.1l0.1-0.1c0,0,0-0.1,0.1-0.1l0,0c0,0,0.1-0.1,0.1-0.1l0.1-0.1c0,0,0-0.1,0.1-0.1l0,0
		c0-0.1,0-0.1,0.1-0.2l0.1-0.1c0,0,0-0.1,0-0.1l0.1-0.2c0-0.1,0.1-0.1,0.1-0.2l0.2-0.4c0-0.1,0-0.1,0.1-0.2c0-0.1,0-0.1,0.1-0.2
		l0.1-0.3c0,0,0-0.1,0-0.1l0-0.1c0,0,0-0.1,0-0.1l0,0c0-0.1,0-0.1,0-0.2l0-0.1c0,0,0-0.1,0-0.1l0-0.1c0,0,0-0.1,0-0.1l0,0
		c0,0,0-0.1,0-0.1c0,0,0-0.1,0-0.1c0,0,0-0.1,0-0.1c0,0,0-0.1,0-0.1c0,0,0-0.1,0-0.1c0,0,0-0.1,0-0.1c0,0,0-0.1,0-0.1
		c0,0,0-0.1,0-0.1c0,0,0-0.1,0-0.1c0,0,0-0.1,0-0.1l0-0.1c0,0,0-0.1,0-0.1l0-0.4l0,0c0,0,0-0.1,0-0.1l0-0.1l0.4,0l-0.4,0
		c0,0,0-0.1,0-0.1c0,0,0-0.1,0-0.1c0,0,0-0.1,0-0.1l0-0.1c0,0,0-0.1,0-0.1c0,0,0-0.1,0-0.1l0-0.1l0.4,0l-0.4,0l0,0c0,0,0-0.1,0-0.1
		c0,0,0-0.1,0-0.1c0,0,0-0.1,0-0.1l0-0.1c0,0,0-0.1,0-0.1c0,0,0-0.1,0-0.1l0-0.1c0,0,0-0.1,0-0.1c0,0,0-0.1,0-0.1l0-0.1
		c0,0,0-0.1,0-0.1c0,0,0-0.1,0-0.1c0,0,0-0.1,0-0.1l0-0.1c0,0,0-0.1,0-0.1c0,0,0-0.1,0-0.1l0-0.1c0,0,0-0.1,0-0.1c0,0,0-0.1,0-0.1
		l0-0.1c0,0,0-0.1,0-0.1c0,0,0-0.1,0-0.1l0-0.1c0,0,0-0.1,0-0.1c0,0,0-0.1,0-0.1l0,0c0,0,0-0.1,0-0.1c0,0,0-0.1-0.1-0.1l-0.1-0.1
		c0,0,0-0.1-0.1-0.1c0,0,0-0.1-0.1-0.1l0,0c0,0,0-0.1-0.1-0.1c0,0-0.1-0.1-0.1-0.1l0,0c0,0,0-0.1-0.1-0.1c0,0-0.1-0.1-0.1-0.1l0-0.1
		c0,0,0-0.1-0.1-0.1c0-0.1-0.1-0.1-0.1-0.2l0,0c0,0,0,0,0,0c0-0.1-0.1-0.1-0.1-0.2l-0.1-0.2c0-0.1-0.1-0.1-0.1-0.2l0,0c0,0,0,0,0,0
		l0,0c0-0.1-0.1-0.1-0.1-0.2c0,0,0,0-0.1-0.1l0,0c0,0-0.1-0.1-0.1-0.1c0,0-0.1-0.1-0.1-0.1c0,0-0.1-0.1-0.1-0.1c0,0-0.1-0.1-0.1-0.1
		l-0.1-0.1c0,0,0,0,0,0l-0.1,0c0,0,0,0-0.1-0.1c0,0-0.1-0.1-0.1-0.1l0,0c0,0,0,0-0.1,0c-0.1,0-0.1-0.1-0.2-0.1l-0.1-0.1
		c-0.1-0.1-0.2-0.1-0.2-0.2l-0.1,0c-0.1,0-0.1-0.1-0.2-0.1c0,0,0,0-0.1,0l0,0c-0.1,0-0.1-0.1-0.2-0.1c0,0-0.1,0-0.1-0.1l0,0
		c-0.1,0-0.1-0.1-0.2-0.1c0,0-0.1,0-0.1-0.1l0,0c0,0,0,0,0,0c0,0,0,0,0,0l0,0c0,0-0.1,0-0.1-0.1c-0.1,0-0.1-0.1-0.2-0.1l0,0
		c0,0-0.1,0-0.1,0c-0.1,0-0.1-0.1-0.2-0.1l0,0c0,0,0,0-0.1,0c-0.1,0-0.2-0.1-0.3-0.1l-5.1-1.7c0,0,0,0,0.1,0.1c0,0,0.1,0.1,0.1,0.1
		c0,0,0.1,0.1,0.1,0.1c0,0,0.1,0.1,0.1,0.1c0,0,0.1,0.1,0.1,0.1l0,0c0,0,0,0,0.1,0.1c0,0.1,0.1,0.1,0.1,0.2l0,0c0,0,0,0,0,0.1
		c0.1,0.1,0.1,0.2,0.2,0.2l0,0.1c0.1,0.1,0.1,0.2,0.2,0.2l0,0c0.1,0.1,0.1,0.2,0.2,0.3l0,0c0.1,0.1,0.1,0.2,0.2,0.3l0,0
		c0.1,0.1,0.1,0.2,0.2,0.3c0.1,0.1,0.1,0.2,0.1,0.3l0,0c0,0.1,0.1,0.2,0.1,0.3c0,0.1,0.1,0.2,0.1,0.3l0,0c0,0.1,0.1,0.2,0.1,0.3l0,0
		c0,0.1,0.1,0.2,0.1,0.3l0,0c0,0.1,0.1,0.2,0.1,0.3l0,0c0,0.1,0.1,0.2,0.1,0.3l0,0c0,0.1,0,0.2,0.1,0.3l0,0c0,0.1,0,0.2,0.1,0.4
		c0,0.1,0,0.2,0,0.4l0,0c0,0.1,0,0.2,0,0.4l0,0c0,0.1,0,0.2,0,0.4l0,0c0,0.1,0,0.3,0,0.4c0,0.2,0,0.3,0,0.5c0,0.3,0,0.7-0.1,1l0,0
		c0,0.2,0,0.3-0.1,0.5l0,0c0,0.2-0.1,0.3-0.1,0.5c0,0.2-0.1,0.3-0.1,0.5l0,0c0,0.2-0.1,0.3-0.1,0.4l0,0c0,0.1-0.1,0.3-0.1,0.4l0,0
		c0,0.1-0.1,0.3-0.2,0.4l0,0c0,0.1-0.1,0.1-0.1,0.2l0,0.1c0,0.1,0,0.1-0.1,0.2c0,0.1-0.1,0.1-0.1,0.2l0,0.1c0,0,0,0.1-0.1,0.1
		c0,0.1-0.1,0.1-0.1,0.2l0,0.1c0,0-0.1,0.1-0.1,0.1c0,0.1-0.1,0.1-0.1,0.2l-0.1,0.1c0,0-0.1,0.1-0.1,0.1c-0.1,0.1-0.2,0.2-0.2,0.3
		l0,0c-0.1,0.1-0.1,0.2-0.2,0.3c0,0.1-0.1,0.1-0.1,0.2c-0.1,0.1-0.1,0.1-0.2,0.2c0,0.1-0.1,0.1-0.1,0.2c-0.1,0.1-0.1,0.1-0.2,0.2
		l0,0c0,0-0.1,0.1-0.1,0.1c-0.1,0.1-0.1,0.1-0.2,0.2l0,0c0,0-0.1,0.1-0.1,0.1c-0.1,0.1-0.2,0.2-0.3,0.3l0,0
		c-0.1,0.1-0.2,0.2-0.3,0.3l0,0c-0.1,0.1-0.2,0.2-0.3,0.3l0,0c-0.1,0.1-0.2,0.2-0.4,0.3c-0.1,0.1-0.3,0.2-0.4,0.3l0,0
		c-0.1,0.1-0.2,0.2-0.4,0.2l0,0c-0.1,0-0.1,0.1-0.2,0.1l0,0c-0.1,0-0.1,0.1-0.2,0.1l0,0c-0.1,0-0.1,0.1-0.2,0.1l0,0
		c-0.1,0-0.1,0.1-0.2,0.1l0,0c-0.1,0-0.1,0.1-0.2,0.1l0,0c-0.1,0-0.1,0.1-0.2,0.1l0,0c-0.1,0-0.1,0.1-0.2,0.1l0,0
		c-0.1,0-0.1,0-0.2,0.1l0,0c-0.1,0-0.3,0.1-0.4,0.1l0,0c-0.1,0-0.1,0-0.2,0.1l0,0c-0.1,0-0.1,0-0.2,0l0,0c-0.1,0-0.1,0-0.2,0l0,0
		c-0.1,0-0.2,0-0.2,0l0,0c-0.1,0-0.1,0-0.2,0l0,0c-0.1,0-0.1,0-0.2,0c-0.1,0-0.2,0-0.3,0l0,0c-0.1,0-0.2,0-0.3,0l0,0
		c-0.1,0-0.2,0-0.3,0l0,0c-0.1,0-0.2,0-0.3,0l0,0c0,0,0,0,0,0l4.8,2.5c0,0,0.1,0,0.1,0.1c0,0,0,0,0.1,0l0.1,0c0.1,0,0.1,0,0.2,0.1
		l0.1,0.1c0.1,0,0.1,0,0.2,0.1l0,0c0,0,0.1,0,0.1,0.1l0.2,0.1c0.1,0,0.1,0,0.2,0.1l0,0c0,0,0.1,0,0.1,0c0,0,0.1,0,0.1,0l0,0
		c0,0,0.1,0,0.1,0c0,0,0.1,0,0.1,0l0,0c0,0,0.1,0,0.1,0c0,0,0.1,0,0.1,0h0.1l0,0c0,0,0,0,0.1,0c0,0,0.1,0,0.1,0l0,0.4l0.1-0.4l0,0
		c0,0,0.1,0,0.1,0c0,0,0.1,0,0.1,0l0.1,0c0,0,0.1,0,0.1,0c0,0,0.1,0,0.1,0c0,0,0.1,0,0.1,0c0,0,0.1,0,0.1,0l0.1,0c0,0,0.1,0,0.1,0
		c0,0,0.1,0,0.1,0l0.1,0c0,0,0.1,0,0.1,0c0,0,0.1,0,0.1,0l0,0c0,0,0.1,0,0.1,0C34.9,28.6,35,28.6,35.1,28.6L35.1,28.6z"/>
	<polygon class="st0" points="28.4,26.6 20.7,22.6 20.7,27.8 28.5,32 	"/>
	<path class="st1" d="M21.5,23.9l6.2,3.2l0,3.6l-6.2-3.4L21.5,23.9z M20.7,22.6l0.1,5.1l7.7,4.3l0-5.5L20.7,22.6z"/>
	<polygon class="st0" points="22.6,52.9 26.5,52.2 26.2,24.5 22.2,24.9 22.6,52.9 22.2,24.9 26.2,24.5 18.5,20.6 14.7,21 15.3,47.3 
			"/>
	<path class="st1" d="M22.5,53.3l-0.1-0.1l-7.4-5.7l-0.6-26.8l4.3-0.5l8,4.6l0.2,27.7L22.5,53.3z M22.6,25.3L23,52.4l3.1-0.5
		l-0.2-27L22.6,25.3z M15.7,47.1l6.5,5l-0.4-27.5l3.1-0.4L18.5,21l-3.3,0.4L15.7,47.1z"/>
	<path class="st0" d="M22.2,22.2c0,0,0-0.1,0-0.1l0,0c0,0,0-0.1,0-0.1c0-0.1,0-0.1,0-0.2v0c0-0.1,0-0.1,0-0.2c0,0,0,0,0,0
		c0-0.1,0-0.1,0-0.2c0,0,0,0,0,0c0-0.1,0-0.1,0.1-0.2c0,0,0,0,0,0c0-0.1,0-0.1,0.1-0.2c0,0,0,0,0,0c0-0.1,0.1-0.1,0.1-0.2
		c0,0,0,0,0,0c0-0.1,0.1-0.1,0.1-0.2c0,0,0,0,0,0c0-0.1,0.1-0.1,0.1-0.2c0,0,0,0,0,0c0,0,0.1-0.1,0.1-0.1c0,0,0,0,0,0
		c0,0,0.1-0.1,0.1-0.1c0,0,0,0,0,0c0.1,0,0.1-0.1,0.2-0.1l0,0c0.1,0,0.1-0.1,0.2-0.1c0,0,0,0,0,0c0,0,0.1,0,0.1,0c0,0,0,0,0,0
		c0,0,0.1,0,0.1,0l0,0c0,0,0.1,0,0.1,0c0,0,0,0,0,0c0,0,0.1,0,0.1,0c0,0,0,0,0,0c0,0,0.1,0,0.1,0c0,0,0,0,0,0c0,0,0.1,0,0.1,0l0,0
		c0,0,0.1,0,0.1,0h0c0,0,0.1,0,0.1,0c0,0,0.1,0,0.1,0l0,0c0,0,0.1,0,0.1,0c0,0,0,0,0,0c0,0,0.1,0,0.1,0l0,0c0,0,0.1,0,0.1,0
		c0,0,0,0,0,0c0,0,0.1,0,0.1,0c0,0,0,0,0,0c0,0,0.1,0,0.1,0l0,0c0,0,0.1,0,0.1,0l0,0c0,0,0.1,0,0.1,0l-7.7-3.6c0,0,0,0,0,0
		c0,0,0,0,0,0l0,0c0,0,0,0,0,0c0,0,0,0,0,0c0,0,0,0,0,0c0,0,0,0,0,0c0,0,0,0,0,0c0,0,0,0,0,0c0,0,0,0,0,0c0,0,0,0,0,0l0,0l0,0
		c0,0,0,0,0,0c0,0,0,0,0,0c0,0,0,0,0,0c0,0,0,0,0,0c0,0,0,0,0,0c0,0,0,0,0,0c0,0,0,0,0,0c0,0,0,0,0,0c0,0,0,0,0,0c0,0,0,0,0,0
		c0,0,0,0,0,0l0,0c0,0,0,0,0,0c0,0,0,0,0,0c0,0,0,0,0,0c0,0,0,0,0,0c0,0,0,0,0,0c0,0,0,0,0,0c0,0,0,0,0,0c0,0,0,0,0,0c0,0,0,0,0,0
		c0,0,0,0,0,0c0,0,0,0,0,0c0,0,0,0,0,0l0,0h0c0,0,0,0,0,0c0,0,0,0,0,0c0,0,0,0,0,0c0,0,0,0,0,0c0,0,0,0,0,0c0,0,0,0,0,0c0,0,0,0,0,0
		c0,0,0,0,0,0c0,0,0,0,0,0c0,0,0,0,0,0c0,0,0,0,0,0c0,0,0,0,0,0c0,0,0,0,0,0c0,0,0,0,0,0c0,0,0,0,0,0c0,0,0,0,0,0c0,0,0,0,0,0
		c0,0,0,0,0,0c0,0,0,0,0,0c0,0,0,0,0,0c0,0,0,0,0,0c0,0,0,0,0,0c0,0,0,0,0,0c0,0,0,0,0,0c0,0,0,0,0,0c0,0,0,0,0,0c0,0,0,0,0,0
		c0,0,0,0,0,0c0,0,0,0,0,0c0,0,0,0,0,0c0,0,0,0,0,0c0,0,0,0,0,0c0,0,0,0,0,0c0,0,0,0,0,0c0,0,0,0,0,0c0,0,0,0,0,0c0,0,0,0,0,0l0,0
		c0,0,0,0,0,0c0,0,0,0,0,0c0,0,0,0,0,0c0,0,0,0,0,0c0,0,0,0,0,0c0,0,0,0,0,0c0,0,0,0,0,0c0,0,0,0,0,0c0,0,0,0,0,0c0,0,0,0,0,0
		c0,0,0,0,0,0c0,0,0,0,0,0c0,0,0,0,0,0c0,0,0,0,0,0c0,0,0,0,0,0c0,0,0,0,0,0c0,0,0,0,0,0s0,0,0,0c0,0,0,0,0,0l0,0c0,0,0,0,0,0
		c0,0,0,0,0,0c0,0,0,0,0,0c0,0,0,0,0,0s0,0,0,0c0,0,0,0,0,0c0,0,0,0,0,0c0,0,0,0,0,0l0,0l0,0c0,0,0,0,0,0c0,0,0,0,0,0c0,0,0,0,0,0
		c0,0,0,0,0,0c0,0,0,0,0,0c0,0,0,0,0,0l0,0c0,0,0,0,0,0c0,0,0,0,0,0c0,0,0,0,0,0c0,0,0,0,0,0c0,0,0,0,0,0c0,0,0,0,0,0c0,0,0,0,0,0
		c0,0,0,0-0.1,0.1c0,0,0,0,0,0c0,0,0,0,0,0c0,0,0,0,0,0c0,0,0,0,0,0c0,0,0,0-0.1,0.1c0,0,0,0,0,0c0,0,0,0,0,0l0,0c0,0,0,0,0,0
		c0,0,0,0,0,0c0,0,0,0,0,0c0,0,0,0.1-0.1,0.1c0,0,0,0,0,0c0,0,0,0,0,0c0,0,0,0,0,0.1c0,0,0,0.1,0,0.1c0,0,0,0,0,0c0,0,0,0,0,0
		c0,0,0,0,0,0.1c0,0,0,0,0,0c0,0,0,0,0,0c0,0,0,0,0,0c0,0,0,0,0,0l0,0c0,0,0,0,0,0c0,0,0,0,0,0c0,0,0,0,0,0c0,0,0,0,0,0c0,0,0,0,0,0
		c0,0,0,0,0,0c0,0,0,0,0,0c0,0,0,0,0,0c0,0,0,0,0,0c0,0,0,0,0,0c0,0,0,0,0,0c0,0,0,0,0,0c0,0,0,0,0,0s0,0,0,0c0,0,0,0,0,0l0,0
		c0,0,0,0,0,0c0,0,0,0,0,0c0,0,0,0,0,0c0,0,0,0,0,0c0,0,0,0,0,0s0,0,0,0c0,0,0,0,0,0c0,0,0,0,0,0v0v0c0,0,0,0,0,0c0,0,0,0,0,0
		c0,0,0,0,0,0c0,0,0,0,0,0c0,0,0,0,0,0c0,0,0,0,0,0v0c0,0,0,0,0,0c0,0,0,0,0,0c0,0,0,0,0,0c0,0,0,0,0,0c0,0,0,0,0,0c0,0,0,0,0,0
		c0,0,0,0,0,0c0,0,0,0,0,0c0,0,0,0,0,0c0,0,0,0,0,0c0,0,0,0,0,0c0,0,0,0,0,0l0,0c0,0,0,0,0,0c0,0,0,0,0,0c0,0,0,0,0,0c0,0,0,0,0,0
		c0,0,0,0,0,0c0,0,0,0,0,0c0,0,0,0,0,0c0,0,0,0,0,0c0,0,0,0,0,0c0,0,0,0,0,0c0,0,0,0,0,0c0,0,0,0,0,0c0,0,0,0,0,0c0,0,0,0,0,0v0
		c0,0,0,0,0,0c0,0,0,0,0,0c0,0,0,0,0,0c0,0,0,0,0,0c0,0,0,0,0,0c0,0,0,0,0,0l0,0l0,0c0,0,0,0,0,0c0,0,0,0,0,0c0,0,0,0,0,0
		c0,0,0,0,0,0c0,0,0,0,0,0c0,0,0,0,0,0c0,0,0,0,0,0l0,0c0,0,0,0,0,0c0,0,0,0,0,0c0,0,0,0,0,0c0,0,0,0,0,0c0,0,0,0,0,0c0,0,0,0,0,0
		l0,0c0,0,0,0,0,0c0,0,0,0,0,0c0,0,0,0,0,0c0,0,0,0,0,0c0,0,0,0,0,0c0,0,0,0,0,0l0,0c0,0,0,0,0,0c0,0,0,0,0,0c0,0,0,0,0,0
		c0,0,0,0,0,0c0,0,0,0,0,0c0,0,0,0,0,0c0,0,0,0,0,0c0,0,0,0,0,0c0,0,0,0,0,0c0,0,0,0,0,0c0,0,0,0,0,0c0,0,0,0,0,0c0,0,0,0,0,0
		c0,0,0,0,0,0c0,0,0,0,0,0c0,0,0,0,0,0l0,0c0,0,0,0,0,0c0,0,0,0,0,0c0,0,0.1,0.1,0.1,0.1c0,0,0,0,0,0c0,0,0,0,0,0c0,0,0,0,0,0
		c0,0,0.1,0.1,0.1,0.1c0,0,0,0,0,0c0,0,0,0,0,0c0,0,0.1,0,0.1,0.1c0,0,0,0,0,0c0,0,0,0,0,0c0,0,0.1,0.1,0.1,0.1l7.5,3.8
		c0,0-0.1-0.1-0.1-0.1c0,0,0,0,0,0c0,0-0.1,0-0.1-0.1c0,0,0,0,0,0c0,0-0.1-0.1-0.1-0.1c0,0,0,0,0,0c0,0-0.1-0.1-0.1-0.1
		c0,0,0,0,0-0.1c0,0,0,0,0,0c0,0-0.1-0.1-0.1-0.1c0,0,0,0,0,0c0,0,0-0.1-0.1-0.1c0,0,0,0,0,0c0,0,0-0.1-0.1-0.1l0,0
		c0,0,0-0.1-0.1-0.1c0,0,0,0,0,0c0,0,0-0.1,0-0.1l0,0c0,0,0-0.1,0-0.1l0,0c0,0,0-0.1,0-0.1v0C22.2,22.3,22.2,22.2,22.2,22.2
		C22.2,22.2,22.2,22.2,22.2,22.2"/>
	<path class="st1" d="M23,24L23,24l-7.5-3.8c0,0-0.1-0.1-0.2-0.1c0,0,0,0,0,0c0,0,0,0,0,0c0,0-0.1-0.1-0.1-0.1c0,0,0,0,0,0l0,0
		c0,0-0.1-0.1-0.1-0.1l0,0c0,0,0,0,0,0c0,0-0.1-0.1-0.1-0.1c0,0,0,0,0,0c0,0,0,0,0,0l0,0l0,0c0,0,0,0,0,0c0,0,0,0,0,0c0,0,0,0,0,0
		l-0.1-0.2L14.5,19L14.4,19l0-0.1l0-0.2l0,0l0-0.1l0-0.5l0-0.2l0,0l0.1-0.3l0.1-0.2c0,0,0,0,0-0.1l0-0.1c0,0,0,0,0,0c0,0,0,0,0-0.1
		c0,0,0,0,0-0.1l0,0c0,0,0-0.1,0.1-0.1c0,0,0,0,0-0.1l0,0c0,0,0-0.1,0.1-0.1l0.1-0.1c0,0,0-0.1,0.1-0.1c0,0,0,0,0,0l0,0c0,0,0,0,0,0
		l0,0c0,0,0-0.1,0.1-0.1c0,0,0,0,0,0l0.1-0.1c0,0,0,0,0,0c0,0,0,0,0,0l0.1-0.1c0,0,0,0,0,0l0.3-0.2l0.1,0c0,0,0,0,0,0l0.4-0.1l0.3,0
		l0.1,0.4l0-0.4l0.2,0l0.4,0l0.3,0.1c0,0,0,0,0,0c0,0,0,0,0,0l0,0c0,0,0,0,0,0l0.1,0l7.7,3.6c0,0,0,0,0,0h0L25,20l0,0l0,0
		c0,0-0.1,0-0.1,0c0,0-0.1,0-0.1,0c0,0-0.1,0-0.1,0c0,0-0.1,0-0.1,0l0,0c0,0-0.1,0-0.1,0c0,0-0.1,0-0.1,0l0,0c0,0-0.1,0-0.1,0l0,0
		c0,0-0.1,0-0.1,0c0,0-0.1,0-0.1,0l0,0c0,0,0,0-0.1,0c0,0-0.1,0-0.1,0l0,0c0,0,0,0-0.1,0c0,0-0.1,0-0.1,0l0,0c0,0,0,0-0.1,0
		c0,0-0.1,0-0.1,0c0,0,0,0-0.1,0l0,0c0,0-0.1,0.1-0.1,0.1l0,0c0,0-0.1,0.1-0.1,0.1c0,0-0.1,0.1-0.1,0.1l0,0c0,0-0.1,0.1-0.1,0.1l0,0
		c0,0.1-0.1,0.1-0.1,0.1c0,0-0.1,0.1-0.1,0.1l0,0c0,0-0.1,0.1-0.1,0.1l0,0c0,0.1,0,0.1-0.1,0.2c0,0.1,0,0.1-0.1,0.2l0,0
		c0,0,0,0.1,0,0.2l0,0c0,0.1,0,0.1,0,0.2c0,0.1,0,0.1,0,0.2c0,0,0,0.1,0,0.1c0,0,0,0.1,0,0.1l0,0c0,0,0,0.1,0,0.1c0,0,0,0.1,0,0.1
		l0,0c0,0,0,0.1,0,0.1c0,0,0,0.1,0,0.1l0,0c0,0,0,0.1,0,0.1c0,0,0,0.1,0.1,0.1c0,0,0,0.1,0.1,0.1l0,0c0,0,0,0,0.1,0.1c0,0,0,0,0,0
		l0,0c0,0,0,0,0.1,0.1l0,0c0,0,0.1,0.1,0.1,0.1l0,0c0,0,0.1,0,0.1,0.1l0,0c0,0,0.1,0,0.1,0.1l0,0L23,24z M15.7,19.4
		C15.7,19.4,15.7,19.4,15.7,19.4c0.1,0,0.1,0,0.1,0.1l6,3.1c0,0,0-0.1,0-0.1c0-0.1,0-0.1,0-0.2l0,0c0-0.1,0-0.1,0-0.2
		c0-0.1,0-0.1,0-0.2c0-0.1,0-0.2,0-0.3c0-0.1,0-0.2,0-0.2l0,0c0-0.1,0-0.2,0.1-0.2c0-0.1,0-0.2,0.1-0.2c0-0.1,0.1-0.1,0.1-0.2l0,0
		c0-0.1,0.1-0.1,0.1-0.2l0,0c0-0.1,0.1-0.1,0.1-0.2c0-0.1,0.1-0.1,0.1-0.2l0,0c0-0.1,0.1-0.1,0.1-0.2l0,0c0.1-0.1,0.1-0.1,0.2-0.2
		l0,0c0.1,0,0.1-0.1,0.2-0.1l0,0c0.1,0,0.1-0.1,0.2-0.1c0,0,0.1,0,0.1-0.1c0,0,0.1,0,0.1-0.1c0,0,0,0,0,0l-6.2-2.9L17,16.3l0.1-0.2
		l0-0.2L17,16.3l-0.3,0l-0.2,0l-0.1-0.4l0,0.4l-0.3,0.1l-0.3,0.2l-0.2,0.1l-0.3-0.3l0.2,0.3l-0.2,0.1c0,0,0,0-0.1,0.1l0,0.1
		c0,0,0,0,0,0.1l0,0l-0.3-0.2l0.3,0.2l0,0c0,0,0,0,0,0.1l0,0c0,0,0,0,0,0c0,0,0,0,0,0.1l0,0c0,0,0,0,0,0l-0.1,0.3l0,0.1l-0.4-0.1
		l0.4,0.1l0,0.3l0,0l-0.4,0l0.4,0l-0.4,0l0.4,0l-0.4,0l0.4,0l0,0.1l-0.4,0l0.4,0l0.1,0.3l0,0v0.1l0.1,0.1L14.9,19l0.3-0.2l0.1,0.2
		l0.1,0.1c0,0,0,0,0,0c0,0,0,0,0.1,0.1c0,0,0,0,0,0l0,0c0,0,0,0,0,0c0,0,0,0,0.1,0.1l0,0C15.6,19.3,15.6,19.3,15.7,19.4
		C15.7,19.3,15.7,19.4,15.7,19.4C15.7,19.4,15.7,19.4,15.7,19.4 M17.1,15.6L17.1,15.6L17.1,15.6"/>
	<path class="st1" d="M24.2,19.5c0.3,0,0.5,0,0.8,0.1c0.2,0.1,0.5,0.2,0.6,0.4c0.2,0.2,0.3,0.4,0.4,0.6c0.1,0.2,0.2,0.5,0.2,0.8
		c0,0.3-0.1,0.6-0.1,0.9c-0.1,0.3-0.2,0.5-0.4,0.7c-0.2,0.2-0.4,0.4-0.6,0.5c-0.2,0.1-0.5,0.2-0.8,0.3c-0.3,0-0.5,0-0.8-0.1
		c-0.2-0.1-0.5-0.2-0.6-0.4c-0.2-0.2-0.3-0.4-0.4-0.6c-0.1-0.2-0.2-0.5-0.2-0.8c0-0.3,0-0.6,0.1-0.9c0.1-0.3,0.2-0.5,0.4-0.7
		c0.2-0.2,0.4-0.4,0.6-0.5C23.6,19.6,23.9,19.5,24.2,19.5"/>
	<path class="st1" d="M24,24.2c-0.2,0-0.5,0-0.7-0.1c-0.3-0.1-0.6-0.3-0.8-0.5c-0.2-0.2-0.4-0.5-0.5-0.8c-0.1-0.3-0.2-0.6-0.2-1
		c0-0.3,0.1-0.7,0.2-1c0.1-0.3,0.3-0.6,0.5-0.9c0.2-0.3,0.5-0.5,0.7-0.6c0.3-0.2,0.6-0.3,0.9-0.3c0.3,0,0.7,0,1,0.1
		c0.3,0.1,0.6,0.3,0.8,0.5c0.2,0.2,0.4,0.5,0.5,0.8c0.1,0.3,0.2,0.6,0.2,1c0,0.3-0.1,0.7-0.2,1c-0.1,0.3-0.3,0.6-0.5,0.8
		c-0.2,0.3-0.5,0.5-0.7,0.6c-0.3,0.2-0.6,0.3-0.9,0.3C24.2,24.2,24.1,24.2,24,24.2 M24.4,19.9c-0.1,0-0.1,0-0.2,0
		c-0.2,0-0.4,0.1-0.6,0.2c-0.2,0.1-0.4,0.3-0.5,0.4c-0.2,0.2-0.3,0.4-0.4,0.6c-0.1,0.2-0.1,0.5-0.1,0.7c0,0.2,0,0.5,0.1,0.7
		c0.1,0.2,0.2,0.4,0.4,0.5c0.1,0.1,0.3,0.2,0.5,0.3c0.2,0.1,0.4,0.1,0.6,0.1c0.2,0,0.4-0.1,0.6-0.2c0.2-0.1,0.4-0.3,0.5-0.4
		c0.2-0.2,0.3-0.4,0.4-0.6c0.1-0.2,0.1-0.5,0.1-0.7c0-0.2,0-0.5-0.1-0.7c-0.1-0.2-0.2-0.4-0.3-0.5c-0.1-0.1-0.3-0.2-0.5-0.3
		C24.7,19.9,24.5,19.9,24.4,19.9"/>
	<path class="st1" d="M35.5,4.6c1.8-0.1,3.5,0.1,5.1,0.7c1.5,0.6,2.9,1.6,4,2.8c1.1,1.2,2,2.7,2.6,4.3c0.6,1.6,0.9,3.4,0.9,5.4
		c0,1.9-0.4,3.8-1.1,5.5c-0.7,1.7-1.6,3.3-2.7,4.7c-1.1,1.4-2.5,2.6-4,3.5c-1.5,0.9-3.2,1.5-4.9,1.8c-0.6,0.1-1.2,0.1-1.8,0.1
		c-0.6,0-1.2-0.1-1.8-0.2c-0.6-0.1-1.2-0.2-1.7-0.4c-0.6-0.2-1.1-0.4-1.6-0.7l0-5.5c0.1,0.1,0.2,0.2,0.3,0.3
		c0.1,0.1,0.2,0.2,0.3,0.3c0.1,0.1,0.2,0.2,0.4,0.3c0.1,0.1,0.2,0.2,0.4,0.3c0.4,0.3,0.8,0.5,1.3,0.7c0.4,0.2,0.9,0.4,1.4,0.5
		c0.5,0.1,0.9,0.2,1.4,0.2c0.5,0,1,0,1.5-0.1c1.2-0.2,2.4-0.6,3.5-1.2c1.1-0.6,2-1.5,2.8-2.5c0.8-1,1.5-2.1,1.9-3.4
		c0.5-1.2,0.7-2.6,0.7-3.9c0-1.4-0.2-2.7-0.6-3.8c-0.4-1.2-1.1-2.2-1.9-3c-0.8-0.8-1.8-1.5-2.9-1.9C38,9,36.7,8.8,35.5,8.9
		c-1.2,0.1-2.3,0.4-3.3,1c-1,0.5-2,1.2-2.8,2.1c-0.8,0.9-1.5,1.9-2.1,3c-0.5,1.1-0.9,2.3-1.1,3.5L22.1,19c0.2-1.9,0.7-3.7,1.4-5.3
		c0.7-1.7,1.8-3.2,3-4.5c1.2-1.3,2.6-2.4,4.1-3.2C32.1,5.2,33.8,4.7,35.5,4.6"/>
	<path class="st1" d="M36.4,4.6v1c1.3,0,2.6,0.2,3.8,0.7c1.4,0.6,2.6,1.4,3.7,2.5c1.1,1.1,1.9,2.5,2.4,4c0.6,1.6,0.9,3.2,0.8,5
		c0,1.8-0.4,3.5-1,5.2c-0.6,1.6-1.5,3.1-2.6,4.4c-1.1,1.3-2.3,2.4-3.7,3.3c-1.4,0.9-3,1.4-4.6,1.6c-0.5,0.1-1,0.1-1.5,0.1
		c0,0-0.1,0-0.1,0c-0.5,0-1.1-0.1-1.6-0.1c-0.5-0.1-1.1-0.2-1.6-0.4c-0.3-0.1-0.7-0.2-1-0.4l0-2.7c0.4,0.3,0.8,0.5,1.3,0.7
		c0.5,0.2,1,0.4,1.5,0.5c0.5,0.1,1.1,0.2,1.6,0.2c0.1,0,0.3,0,0.4,0c0.4,0,0.8,0,1.2-0.1c1.3-0.2,2.7-0.6,3.9-1.4
		c1.2-0.7,2.2-1.6,3.1-2.7c0.9-1.1,1.6-2.3,2.1-3.6c0.5-1.4,0.8-2.8,0.8-4.3c0-1.5-0.2-2.9-0.7-4.2c-0.5-1.3-1.2-2.4-2.1-3.3
		c-0.9-1-2-1.7-3.2-2.2c-1-0.4-2.1-0.6-3.2-0.6c-0.3,0-0.6,0-0.8,0c-1.3,0.1-2.5,0.5-3.7,1.1c-1.1,0.6-2.2,1.3-3.1,2.3
		c-0.9,0.9-1.7,2-2.2,3.2c-0.5,1-0.8,2-1,3.1l-2.1,0.2c0.2-1.3,0.6-2.6,1.2-3.8c0.7-1.6,1.6-3,2.8-4.2c1.1-1.2,2.4-2.2,3.8-3
		c1.4-0.7,3-1.2,4.5-1.3c0.3,0,0.6,0,0.9,0V4.6 M36.4,4.6c-0.3,0-0.6,0-0.9,0c-1.7,0.1-3.3,0.6-4.9,1.4c-1.5,0.8-2.9,1.9-4.1,3.2
		c-1.2,1.3-2.2,2.8-3,4.5c-0.7,1.7-1.2,3.5-1.4,5.3l4.1-0.4c0.2-1.2,0.5-2.4,1.1-3.5c0.5-1.1,1.2-2.1,2.1-3c0.8-0.9,1.8-1.6,2.8-2.1
		c1-0.5,2.1-0.9,3.3-1c0.2,0,0.5,0,0.7,0c1,0,2,0.2,2.8,0.5c1.1,0.4,2.1,1.1,2.9,1.9c0.8,0.8,1.4,1.9,1.9,3c0.4,1.2,0.7,2.4,0.6,3.8
		c0,1.4-0.3,2.7-0.7,3.9c-0.5,1.2-1.1,2.4-1.9,3.4c-0.8,1-1.8,1.8-2.8,2.5c-1.1,0.6-2.3,1.1-3.5,1.2c-0.4,0-0.7,0.1-1.1,0.1
		c-0.1,0-0.3,0-0.4,0c-0.5,0-1-0.1-1.4-0.2c-0.5-0.1-0.9-0.3-1.4-0.5c-0.4-0.2-0.9-0.4-1.3-0.7c-0.1-0.1-0.3-0.2-0.4-0.3
		c-0.1-0.1-0.2-0.2-0.4-0.3c-0.1-0.1-0.2-0.2-0.3-0.3c-0.1-0.1-0.2-0.2-0.3-0.3l0,5.5c0.5,0.3,1.1,0.5,1.6,0.7
		c0.6,0.2,1.1,0.3,1.7,0.4c0.6,0.1,1.2,0.2,1.8,0.2c0.1,0,0.1,0,0.2,0c0.5,0,1.1,0,1.7-0.1c1.8-0.2,3.4-0.9,4.9-1.8
		c1.5-0.9,2.9-2.1,4-3.5c1.1-1.4,2.1-3,2.7-4.7c0.7-1.7,1-3.6,1.1-5.5c0-1.9-0.3-3.7-0.9-5.4c-0.6-1.6-1.5-3.1-2.6-4.3
		c-1.1-1.2-2.5-2.2-4-2.8C39.3,4.8,37.9,4.6,36.4,4.6"/>
	<path class="st0" d="M36,4.6C36,4.6,36,4.6,36,4.6c0.1,0,0.2,0,0.3,0c0,0,0,0,0,0c0.1,0,0.2,0,0.2,0c0,0,0,0,0,0c0.1,0,0.2,0,0.2,0
		c0,0,0,0,0,0c0.1,0,0.2,0,0.2,0c0,0,0,0,0,0c0.1,0,0.2,0,0.2,0c0,0,0,0,0,0c0.1,0,0.1,0,0.2,0c0,0,0,0,0,0c0.1,0,0.2,0,0.2,0
		c0,0,0,0,0.1,0c0.1,0,0.1,0,0.2,0c0,0,0,0,0.1,0c0.1,0,0.2,0,0.2,0c0,0,0,0,0,0c0.1,0,0.1,0,0.2,0c0,0,0.1,0,0.1,0
		c0.1,0,0.1,0,0.2,0c0,0,0,0,0.1,0c0.1,0,0.2,0,0.2,0.1c0,0,0,0,0,0c0.1,0,0.1,0,0.2,0.1c0,0,0,0,0,0c0.1,0,0.2,0,0.2,0.1l0,0l0,0
		l-8.5-2.6c0,0-0.1,0-0.1,0c0,0-0.1,0-0.1,0c0,0-0.1,0-0.1,0c0,0-0.1,0-0.1,0c-0.1,0-0.1,0-0.2,0c0,0,0,0,0,0c0,0,0,0,0,0
		c-0.1,0-0.1,0-0.2,0c-0.1,0-0.1,0-0.2,0c0,0,0,0-0.1,0c0,0,0,0,0,0c0,0,0,0,0,0c0,0,0,0-0.1,0c0,0-0.1,0-0.1,0c0,0,0,0,0,0
		c0,0,0,0,0,0c-0.1,0-0.1,0-0.2,0c0,0,0,0,0,0c0,0,0,0-0.1,0c0,0-0.1,0-0.1,0c0,0-0.1,0-0.1,0c0,0,0,0-0.1,0c0,0,0,0,0,0
		c-0.1,0-0.1,0-0.2,0c0,0,0,0,0,0c0,0,0,0,0,0c0,0,0,0,0,0c0,0-0.1,0-0.1,0c0,0-0.1,0-0.1,0c0,0,0,0,0,0c0,0,0,0,0,0
		c-0.1,0-0.1,0-0.2,0c0,0,0,0,0,0c0,0,0,0,0,0c0,0,0,0-0.1,0c-0.1,0-0.1,0-0.2,0l0,0c0,0,0,0,0,0c-0.1,0-0.1,0-0.2,0c0,0,0,0-0.1,0
		c0,0,0,0,0,0c0,0,0,0,0,0c0,0,0,0,0,0c0,0-0.1,0-0.1,0c0,0,0,0,0,0c0,0,0,0,0,0c0,0,0,0-0.1,0c0,0-0.1,0-0.2,0c0,0,0,0,0,0
		c0,0,0,0,0,0c0,0-0.1,0-0.1,0c0,0-0.1,0-0.1,0c0,0,0,0,0,0l0,0c0,0,0,0-0.1,0c0,0-0.1,0-0.1,0c0,0-0.1,0-0.1,0c0,0,0,0-0.1,0
		c0,0,0,0-0.1,0c0,0,0,0-0.1,0c0,0,0,0-0.1,0c0,0,0,0-0.1,0c0,0,0,0,0,0c0,0,0,0,0,0c0,0-0.1,0-0.1,0c0,0-0.1,0-0.1,0c0,0,0,0,0,0
		c0,0,0,0,0,0c0,0-0.1,0-0.1,0c0,0-0.1,0-0.1,0c0,0,0,0,0,0c0,0,0,0,0,0c0,0-0.1,0-0.1,0c0,0-0.1,0-0.1,0c0,0,0,0,0,0c0,0,0,0,0,0
		c0,0-0.1,0-0.1,0c0,0-0.1,0-0.1,0c0,0,0,0,0,0c0,0,0,0,0,0c0,0-0.1,0-0.1,0c0,0-0.1,0-0.1,0c0,0,0,0,0,0c0,0,0,0,0,0
		c0,0-0.1,0-0.1,0c0,0-0.1,0-0.1,0c0,0,0,0,0,0c0,0-0.1,0-0.1,0c0,0-0.1,0-0.1,0c0,0,0,0,0,0c0,0,0,0,0,0c0,0-0.1,0-0.1,0
		c0,0-0.1,0-0.1,0c0,0,0,0,0,0c0,0,0,0,0,0c0,0-0.1,0-0.1,0c0,0-0.1,0-0.1,0c0,0,0,0,0,0c0,0,0,0,0,0c0,0-0.1,0-0.1,0
		c0,0-0.1,0-0.1,0.1l0,0l0,0c0,0-0.1,0-0.1,0.1c0,0-0.1,0-0.1,0.1c0,0,0,0,0,0c0,0,0,0,0,0c0,0-0.1,0-0.1,0.1c0,0-0.1,0-0.1,0
		c0,0,0,0,0,0c0,0,0,0,0,0c-0.1,0-0.1,0-0.2,0.1c0,0-0.1,0-0.1,0c0,0,0,0,0,0c0,0,0,0,0,0c0,0-0.1,0-0.1,0.1c0,0,0,0-0.1,0
		c0,0,0,0,0,0c0,0,0,0-0.1,0c-0.1,0-0.1,0.1-0.2,0.1c0,0,0,0,0,0c0,0,0,0,0,0c0,0,0,0,0,0c0,0-0.1,0-0.1,0c0,0-0.1,0.1-0.1,0.1
		c0,0,0,0,0,0l0,0c-0.1,0-0.1,0.1-0.2,0.1c0,0,0,0-0.1,0c0,0,0,0,0,0c0,0,0,0,0,0c-0.1,0-0.1,0.1-0.2,0.1c0,0,0,0,0,0c0,0,0,0,0,0
		c0,0-0.1,0-0.1,0.1c0,0-0.1,0-0.1,0.1c0,0,0,0,0,0c0,0,0,0,0,0c-0.1,0-0.1,0.1-0.2,0.1c0,0,0,0,0,0c0,0,0,0-0.1,0
		c0,0-0.1,0-0.1,0.1c0,0-0.1,0-0.1,0.1c0,0,0,0-0.1,0c0,0,0,0,0,0c-0.1,0-0.1,0.1-0.2,0.1c0,0,0,0,0,0c-0.1,0-0.1,0.1-0.2,0.1
		c0,0,0,0,0,0c0,0,0,0-0.1,0.1c0,0-0.1,0-0.1,0.1c0,0,0,0-0.1,0c0,0-0.1,0-0.1,0.1c0,0,0,0-0.1,0c0,0,0,0-0.1,0.1C20.1,5,20,5,20,5
		c0,0,0,0,0,0c0,0,0,0-0.1,0.1c0,0-0.1,0.1-0.1,0.1c0,0,0,0,0,0c0,0,0,0-0.1,0.1c0,0-0.1,0.1-0.1,0.1c0,0,0,0-0.1,0c0,0,0,0-0.1,0.1
		c0,0-0.1,0.1-0.1,0.1c0,0,0,0-0.1,0.1c0,0,0,0,0,0c-0.1,0.1-0.3,0.3-0.4,0.4c0,0,0,0,0,0c0,0,0,0,0,0c0,0,0,0-0.1,0.1
		c-0.1,0.1-0.2,0.2-0.3,0.4c0,0,0,0,0,0c0,0,0,0,0,0c-0.1,0.1-0.3,0.3-0.4,0.5c0,0,0,0,0,0c0,0,0,0,0,0c-0.1,0.2-0.2,0.3-0.4,0.5
		c0,0,0,0,0,0c0,0,0,0,0,0c0,0,0,0,0,0c0,0,0,0.1-0.1,0.1c0,0-0.1,0.1-0.1,0.1c0,0,0,0,0,0c0,0,0,0,0,0c0,0.1-0.1,0.1-0.1,0.2
		c0,0,0,0,0,0.1c0,0,0,0,0,0.1c0,0,0,0,0,0.1c0,0,0,0.1,0,0.1c0,0.1-0.1,0.1-0.1,0.2c0,0,0,0.1-0.1,0.1c0,0.1-0.1,0.1-0.1,0.2
		c0,0,0,0,0,0.1c0,0,0,0,0,0.1c0,0.1-0.1,0.1-0.1,0.2c0,0,0,0.1-0.1,0.1c0,0.1-0.1,0.1-0.1,0.2c0,0,0,0.1,0,0.1c0,0,0,0,0,0
		c0,0.1-0.1,0.1-0.1,0.2c0,0,0,0.1-0.1,0.1c0,0.1-0.1,0.1-0.1,0.2c0,0,0,0.1,0,0.1c0,0,0,0,0,0c0,0.1-0.1,0.1-0.1,0.2
		c0,0,0,0.1-0.1,0.1c0,0,0,0,0,0c0,0.1-0.1,0.1-0.1,0.2c0,0,0,0,0,0.1c0,0,0,0,0,0c0,0,0,0.1-0.1,0.1c0,0,0,0.1-0.1,0.1c0,0,0,0,0,0
		c0,0,0,0.1-0.1,0.2c0,0,0,0.1-0.1,0.1c0,0,0,0,0,0c0,0.1,0,0.1-0.1,0.2c0,0,0,0.1,0,0.1c0,0,0,0,0,0c0,0.1,0,0.1-0.1,0.2
		c0,0,0,0.1,0,0.1c0,0,0,0,0,0c0,0,0,0,0,0.1c0,0.1,0,0.1-0.1,0.2c0,0,0,0,0,0c0,0,0,0.1,0,0.1c0,0,0,0.1,0,0.1c0,0,0,0.1,0,0.1
		c0,0,0,0.1,0,0.1c0,0,0,0,0,0.1c0,0.1,0,0.1,0,0.2c0,0,0,0,0,0.1c0,0,0,0,0,0c0,0.1,0,0.1-0.1,0.2c0,0,0,0,0,0c0,0,0,0,0,0.1
		c0,0,0,0.1,0,0.1c0,0,0,0.1,0,0.1c0,0,0,0,0,0.1c0,0,0,0,0,0c0,0.1,0,0.1,0,0.2c0,0,0,0,0,0c0,0,0,0,0,0.1c0,0,0,0.1,0,0.1
		c0,0.1,0,0.1,0,0.2c0,0,0,0,0,0c0,0,0,0,0,0c0,0.1,0,0.1,0,0.2c0,0,0,0.1,0,0.1c0,0,0,0,0,0.1c0,0,0,0,0,0c0,0.1,0,0.1,0,0.2
		c0,0,0,0,0,0.1c0,0,0,0,0,0.1c0,0,0,0.1,0,0.1c0,0.1,0,0.1,0,0.2c0,0,0,0,0,0c0,0,0,0,0,0c0,0,0,0.1,0,0.1c0,0,0,0,0,0c0,0,0,0,0,0
		c0,0,0,0,0,0c0,0,0,0,0,0l7.5,3.5c0-0.1,0-0.2,0-0.3c0,0,0,0,0,0c0-0.1,0-0.2,0-0.3c0,0,0,0,0-0.1c0-0.1,0-0.2,0-0.3c0,0,0,0,0-0.1
		c0-0.1,0-0.2,0-0.3c0,0,0,0,0,0c0-0.1,0-0.2,0.1-0.3c0,0,0,0,0-0.1c0-0.1,0-0.2,0.1-0.3c0,0,0,0,0-0.1c0-0.1,0-0.2,0.1-0.2
		c0,0,0-0.1,0-0.1c0-0.1,0-0.2,0.1-0.3c0,0,0,0,0-0.1c0-0.1,0-0.2,0.1-0.2c0,0,0-0.1,0-0.1c0-0.1,0-0.1,0.1-0.2c0,0,0-0.1,0-0.1
		c0-0.1,0.1-0.2,0.1-0.2c0,0,0,0,0-0.1c0,0,0-0.1,0-0.1c0-0.1,0-0.1,0.1-0.2c0,0,0-0.1,0.1-0.1c0-0.1,0-0.1,0.1-0.2
		c0-0.1,0-0.1,0.1-0.2c0-0.1,0-0.1,0.1-0.2c0-0.1,0-0.1,0.1-0.2c0-0.1,0-0.1,0.1-0.2c0,0,0,0,0-0.1c0-0.1,0.1-0.2,0.1-0.3
		c0,0,0-0.1,0.1-0.1c0-0.1,0.1-0.1,0.1-0.2c0,0,0-0.1,0.1-0.1c0-0.1,0.1-0.1,0.1-0.2c0,0,0-0.1,0.1-0.1c0-0.1,0.1-0.1,0.1-0.2
		c0,0,0-0.1,0.1-0.1c0-0.1,0.1-0.1,0.1-0.2c0,0,0-0.1,0.1-0.1c0-0.1,0.1-0.1,0.1-0.2c0,0,0.1-0.1,0.1-0.1c0-0.1,0.1-0.1,0.1-0.2
		c0,0,0.1-0.1,0.1-0.1c0-0.1,0.1-0.1,0.1-0.2c0,0,0.1-0.1,0.1-0.1c0,0,0,0,0-0.1c0.1-0.1,0.1-0.2,0.2-0.2c0,0,0,0,0,0
		c0.1-0.1,0.1-0.1,0.2-0.2c0,0,0,0,0,0c0,0,0,0,0,0c0.1-0.2,0.3-0.3,0.4-0.5c0,0,0,0,0,0c0.1-0.2,0.3-0.3,0.4-0.5
		c0,0,0.1-0.1,0.1-0.1c0,0,0.1-0.1,0.1-0.1c0,0,0.1-0.1,0.1-0.1c0,0,0.1-0.1,0.1-0.1c0,0,0.1-0.1,0.1-0.1c0,0,0.1-0.1,0.1-0.1
		c0,0,0.1-0.1,0.1-0.1c0,0,0.1-0.1,0.1-0.1c0,0,0.1-0.1,0.1-0.1c0,0,0.1-0.1,0.1-0.1c0,0,0.1-0.1,0.1-0.1c0,0,0.1-0.1,0.1-0.1
		c0,0,0.1-0.1,0.1-0.1c0,0,0.1-0.1,0.1-0.1c0,0,0.1-0.1,0.1-0.1c0,0,0.1-0.1,0.1-0.1c0,0,0.1-0.1,0.1-0.1c0,0,0.1,0,0.1-0.1
		c0.1,0,0.1-0.1,0.2-0.1c0,0,0.1,0,0.1-0.1c0.1-0.1,0.1-0.1,0.2-0.2c0,0,0,0,0,0c0,0,0,0,0,0c0.1-0.1,0.2-0.1,0.2-0.2c0,0,0,0,0.1,0
		c0.1,0,0.1-0.1,0.2-0.1c0,0,0,0,0.1,0c0.1-0.1,0.2-0.1,0.2-0.2c0,0,0,0,0.1,0c0.1,0,0.1-0.1,0.2-0.1c0,0,0,0,0,0
		c0.1,0,0.2-0.1,0.2-0.1c0,0,0,0,0.1,0c0.1,0,0.2-0.1,0.3-0.1c0,0,0,0,0,0c0.1,0,0.2-0.1,0.3-0.1c0,0,0,0,0,0c0.1,0,0.2-0.1,0.2-0.1
		c0,0,0,0,0,0c0.1,0,0.2-0.1,0.2-0.1c0,0,0,0,0,0c0.1,0,0.2-0.1,0.3-0.1c0,0,0,0,0,0c0.1,0,0.2-0.1,0.3-0.1c0,0,0,0,0,0
		c0.1,0,0.2-0.1,0.3-0.1c0,0,0,0,0,0c0.1,0,0.2-0.1,0.3-0.1c0,0,0,0,0,0c0.1,0,0.2-0.1,0.3-0.1c0,0,0,0,0,0c0.1,0,0.2-0.1,0.3-0.1
		c0,0,0,0,0,0C33.1,5,33.2,5,33.3,5c0,0,0,0,0,0c0,0,0,0,0,0c0.1,0,0.2-0.1,0.3-0.1c0,0,0,0,0,0c0.1,0,0.2,0,0.3-0.1c0,0,0,0,0,0
		c0.1,0,0.2,0,0.3-0.1c0,0,0,0,0,0c0.1,0,0.2,0,0.3,0c0,0,0,0,0,0c0.1,0,0.2,0,0.3,0c0,0,0,0,0,0c0.1,0,0.2,0,0.3,0c0,0,0,0,0,0
		c0.1,0,0.2,0,0.3,0c0.1,0,0.2,0,0.3,0c0,0,0,0,0,0C35.8,4.6,35.9,4.6,36,4.6"/>
	<path class="st1" d="M28,2.8c0,0,0.1,0,0.1,0l0,0l0,0l0,0h0l0,0l0,0l0,0c0,0,0.1,0,0.1,0l0,0l0,0h0c0,0,0.1,0,0.1,0l0,0l0,0l0,0
		l0,0l0,0l0,0c0.1,0,0.1,0,0.2,0l0,0l0,0l0,0l0,0c0,0,0.1,0,0.1,0c0,0,0,0,0.1,0l0,0l0,0l0,0l0,0l0,0c0,0,0.1,0,0.1,0l0,0l0,0l0,0
		l0,0l0,0c0,0,0,0,0.1,0c0,0,0,0,0.1,0l0,0l0,0l0,0l0,0l0,0c0.1,0,0.1,0,0.2,0l0,0l0,0l0,0l0,0c0,0,0,0,0.1,0l0,0l0,0l0,0l0,0
		c0,0,0,0,0,0l0,0l0,0c0.1,0,0.1,0,0.2,0c0.1,0,0.1,0,0.2,0l0,0l0,0c0,0,0.1,0,0.1,0c0,0,0,0,0.1,0c0,0,0,0,0.1,0c0,0,0,0,0.1,0
		c0,0,0,0,0.1,0l2.8,0.8l0,0c-0.1,0-0.2,0-0.3,0.1l0,0c-0.1,0-0.2,0.1-0.3,0.1l0,0l0,0l0,0l0,0l0,0c-0.1,0-0.2,0.1-0.3,0.1l0,0
		c-0.1,0-0.2,0.1-0.3,0.1l0,0c-0.1,0-0.2,0.1-0.3,0.1l0,0c-0.1,0-0.2,0.1-0.3,0.1l0,0c-0.1,0-0.2,0.1-0.3,0.1l0,0
		c-0.1,0-0.2,0.1-0.3,0.1l0,0l0,0C31.1,4.9,31,5,30.9,5l0,0l0,0c-0.1,0-0.2,0.1-0.3,0.1l-0.1,0c-0.1,0-0.2,0.1-0.3,0.1l0,0l0,0
		c-0.1,0-0.2,0.1-0.3,0.1l0,0l0,0c-0.1,0-0.2,0.1-0.3,0.1l0,0l0,0c-0.1,0-0.2,0.1-0.3,0.1l0,0l0,0c-0.1,0-0.1,0.1-0.2,0.1l0,0l0,0
		C29,6,28.9,6.1,28.8,6.2l0,0l0,0c-0.1,0-0.1,0.1-0.2,0.1l0,0l0,0c-0.1,0.1-0.2,0.1-0.2,0.2l0,0l0,0c-0.1,0.1-0.2,0.1-0.2,0.2
		c0,0,0,0-0.1,0l0,0c-0.1,0-0.1,0.1-0.2,0.1c0,0-0.1,0-0.1,0.1c0,0-0.1,0.1-0.1,0.1c0,0-0.1,0.1-0.1,0.1c0,0-0.1,0.1-0.1,0.1
		c0,0-0.1,0.1-0.1,0.1c0,0-0.1,0.1-0.1,0.1c0,0-0.1,0.1-0.1,0.1c0,0-0.1,0.1-0.1,0.1c0,0-0.1,0.1-0.1,0.1c0,0-0.1,0.1-0.1,0.1
		c0,0-0.1,0.1-0.1,0.1c0,0-0.1,0.1-0.1,0.1c0,0-0.1,0.1-0.1,0.1c0,0-0.1,0.1-0.1,0.1c0,0-0.1,0.1-0.1,0.1c0,0-0.1,0.1-0.1,0.1
		c0,0-0.1,0.1-0.1,0.1c0,0-0.1,0.1-0.1,0.1c-0.1,0.2-0.3,0.3-0.4,0.5l0,0l0,0c-0.1,0.2-0.3,0.4-0.4,0.5l0,0c0,0,0,0,0,0l0,0l0,0
		c-0.1,0.1-0.1,0.2-0.2,0.2l0,0l0,0c-0.1,0.1-0.1,0.2-0.2,0.3l0,0.1c0,0,0,0.1-0.1,0.1l0,0c0,0.1-0.1,0.1-0.1,0.2
		c0,0-0.1,0.1-0.1,0.1c0,0.1-0.1,0.1-0.1,0.2c0,0-0.1,0.1-0.1,0.1c0,0.1-0.1,0.1-0.1,0.2c0,0-0.1,0.1-0.1,0.1c0,0.1-0.1,0.1-0.1,0.2
		l0,0c0,0,0,0.1-0.1,0.1c0,0.1-0.1,0.1-0.1,0.2l0,0c0,0,0,0.1-0.1,0.1c0,0.1-0.1,0.1-0.1,0.2l0,0c0,0,0,0.1,0,0.1
		c0,0.1-0.1,0.1-0.1,0.2l0,0c0,0,0,0.1,0,0.1c0,0.1-0.1,0.2-0.1,0.3l0,0c0,0,0,0,0,0.1c0,0,0,0.1,0,0.1l0,0l0,0c0,0,0,0.1,0,0.1
		c0,0,0,0.1,0,0.1l0,0l0,0c0,0,0,0.1,0,0.1c0,0,0,0.1-0.1,0.1l0,0l0,0c0,0,0,0.1,0,0.1c0,0.1,0,0.1-0.1,0.2l0,0l0,0c0,0,0,0.1,0,0.1
		l0,0l0,0c0,0.1-0.1,0.2-0.1,0.3c0,0,0,0.1,0,0.1l0,0c0,0.1,0,0.1-0.1,0.2l0,0c0,0,0,0.1,0,0.1c0,0.1,0,0.2-0.1,0.2l0,0c0,0,0,0,0,0
		c0,0.1-0.1,0.2-0.1,0.3l0,0.1l0,0c0,0.1,0,0.2-0.1,0.3l0,0l0,0c0,0.1,0,0.2-0.1,0.3l0,0.1l0,0c0,0.1,0,0.2-0.1,0.3l0,0
		c0,0.1,0,0.2-0.1,0.3l0,0l0,0l-6-2.8l0,0l0,0l0,0l0,0l0,0c0-0.1,0-0.1,0-0.2l0,0l0,0l0,0l0,0l0,0l0-0.1c0-0.1,0-0.1,0-0.2l0,0l0,0
		c0-0.1,0-0.1,0-0.2l0,0l0,0l0,0l0,0l0,0l0,0c0-0.1,0-0.1,0-0.2l0,0l0,0l0,0l0,0c0,0,0-0.1,0-0.1l0,0l0,0l0,0l0-0.1l0,0l0,0
		c0-0.1,0-0.1,0-0.2l0,0l0,0l0,0l0,0c0,0,0-0.1,0-0.1l0,0l0,0c0,0,0-0.1,0-0.1l0,0l0,0c0,0,0,0,0,0c0,0,0,0,0-0.1l0,0l0,0
		c0,0,0,0,0-0.1l0,0l0,0c0-0.1,0-0.1,0.1-0.2l0,0l0,0l0,0c0,0,0,0,0-0.1l0-0.1l0,0c0,0,0-0.1,0-0.1l0,0c0,0,0,0,0-0.1l0-0.1l0,0
		c0,0,0-0.1,0-0.1l0,0c0,0,0-0.1,0-0.1l0-0.1l0,0c0,0,0-0.1,0-0.1l0,0c0,0,0-0.1,0-0.1l0-0.1l0-0.1c0,0,0-0.1,0-0.1l0,0l0,0l0,0l0,0
		c0,0,0,0,0,0l0,0c0-0.1,0.1-0.1,0.1-0.2l0,0c0,0,0,0,0-0.1l0,0c0-0.1,0.1-0.1,0.1-0.2l0,0l0,0c0,0,0,0,0,0l0,0
		c0-0.1,0.1-0.1,0.1-0.2c0,0,0-0.1,0-0.1l0,0C17,10,17,9.9,17,9.9l0,0l0,0c0,0,0,0,0,0l0,0c0-0.1,0.1-0.1,0.1-0.2c0,0,0-0.1,0.1-0.1
		c0-0.1,0.1-0.1,0.1-0.2l0,0l0,0l0,0l0,0c0-0.1,0.1-0.1,0.1-0.2c0,0,0-0.1,0.1-0.1c0-0.1,0.1-0.1,0.1-0.2l0,0c0,0,0,0,0,0l0,0l0,0
		l0-0.1l0,0l0,0c0-0.1,0.1-0.1,0.1-0.2l0,0l0,0l0,0l0,0c0,0,0-0.1,0.1-0.1c0,0,0,0,0-0.1l0,0l0,0l0,0l0,0l0,0c0,0,0,0,0,0
		c0.1-0.2,0.2-0.3,0.3-0.5c0,0,0,0,0,0c0,0,0,0,0,0c0.1-0.1,0.2-0.3,0.4-0.4c0,0,0,0,0,0c0,0,0,0,0,0c0.1-0.1,0.2-0.2,0.3-0.3
		c0,0,0,0,0,0l0,0c0,0,0,0,0,0c0,0,0,0,0,0c0.1-0.1,0.3-0.3,0.4-0.4c0,0,0,0,0,0l0,0l0,0c0,0,0.1-0.1,0.1-0.1l0,0l0,0l0,0l0,0
		c0,0,0.1-0.1,0.1-0.1l0,0l0,0l0,0l0,0c0,0,0.1-0.1,0.1-0.1l0,0c0,0,0,0,0,0l0,0l0,0c0,0,0.1-0.1,0.1-0.1l0,0c0,0,0,0,0,0l0,0l0,0
		c0,0,0.1,0,0.1-0.1l0,0l0,0c0,0,0,0,0.1,0l0,0l0,0c0,0,0,0,0,0l0,0l0,0c0.1,0,0.1-0.1,0.2-0.1l0,0l0,0c0.1,0,0.1-0.1,0.2-0.1l0,0
		l0,0l0,0l0,0l0,0c0,0,0,0,0,0c0,0,0,0,0.1,0l0,0l0,0l0,0l0,0l0,0c0.1,0,0.1-0.1,0.2-0.1l0,0l0,0l0,0l0,0l0,0c0,0,0,0,0.1,0
		c0,0,0,0,0.1,0l0,0l0,0l0,0l0,0l0,0c0.1,0,0.1-0.1,0.2-0.1l0,0l0,0l0,0l0,0l0,0l0,0c0,0,0.1-0.1,0.1-0.1l0,0l0,0l0,0l0,0
		c0,0,0.1,0,0.1-0.1c0,0,0,0,0.1,0l0,0l0,0l0,0l0,0l0,0c0,0,0.1,0,0.1-0.1l0,0l0,0l0,0l0,0l0,0c0,0,0.1,0,0.1-0.1l0,0l0,0l0,0l0,0
		l0,0l0,0c0,0,0.1,0,0.1-0.1l0,0l0,0l0,0l0,0c0,0,0.1,0,0.1,0c0,0,0.1,0,0.1-0.1l0,0l0,0l0,0c0,0,0.1,0,0.1,0c0,0,0.1,0,0.1,0l0,0
		l0,0l0,0l0,0c0,0,0.1,0,0.1,0c0,0,0.1,0,0.1,0l0,0l0,0c0,0,0.1,0,0.1,0c0,0,0.1,0,0.1,0l0,0l0,0l0,0c0,0,0.1,0,0.1,0
		c0,0,0.1,0,0.1,0l0,0l0,0l0,0c0,0,0.1,0,0.1,0c0,0,0.1,0,0.1,0l0,0c0,0,0.1,0,0.1,0c0,0,0.1,0,0.1,0l0,0l0,0l0,0c0,0,0.1,0,0.1,0
		c0,0,0.1,0,0.1,0l0,0l0,0l0,0l0,0c0,0,0.1,0,0.1,0c0,0,0.1,0,0.1,0l0,0l0,0l0,0l0,0c0,0,0.1,0,0.1,0c0,0,0.1,0,0.1,0l0,0l0,0l0,0
		l0,0l0,0c0,0,0,0,0.1,0c0,0,0.1,0,0.1,0l0,0l0,0l0,0l0,0l0,0l0,0c0,0,0.1,0,0.1,0l0,0l0,0l0,0l0,0l0,0l0,0l0,0l0,0l0,0l0,0
		c0,0,0.1,0,0.1,0c0,0,0.1,0,0.1,0l0,0l0,0l0,0h0l0,0l0,0l0,0c0,0,0.1,0,0.1,0c0,0,0.1,0,0.1,0l0,0l0,0c0,0,0.1,0,0.1,0L28,2.8
		L28,2.8L28,2.8L28,2.8L28,2.8L28,2.8L28,2.8 M28,2C28,2,28,2,28,2C28,2,27.9,2,28,2c-0.1,0-0.1,0-0.1,0c-0.1,0-0.1,0-0.2,0
		c0,0,0,0,0,0c0,0,0,0,0,0c0,0-0.1,0-0.1,0c0,0-0.1,0-0.1,0c0,0,0,0,0,0l0,0c0,0,0,0-0.1,0c0,0-0.1,0-0.1,0c0,0-0.1,0-0.1,0
		c0,0,0,0-0.1,0c0,0,0,0-0.1,0c0,0,0,0-0.1,0c0,0,0,0-0.1,0c0,0,0,0-0.1,0c0,0,0,0,0,0c0,0,0,0,0,0c0,0-0.1,0-0.1,0c0,0-0.1,0-0.1,0
		c0,0,0,0,0,0c0,0,0,0,0,0c0,0-0.1,0-0.1,0c0,0-0.1,0-0.1,0c0,0,0,0,0,0c0,0,0,0,0,0c0,0-0.1,0-0.1,0c0,0-0.1,0-0.1,0c0,0,0,0,0,0
		c0,0,0,0,0,0c0,0-0.1,0-0.1,0c0,0-0.1,0-0.1,0c0,0,0,0,0,0c0,0,0,0,0,0c0,0-0.1,0-0.1,0c0,0-0.1,0-0.1,0c0,0,0,0,0,0c0,0,0,0,0,0
		c0,0-0.1,0-0.1,0c0,0-0.1,0-0.1,0c0,0,0,0,0,0c0,0-0.1,0-0.1,0c0,0-0.1,0-0.1,0c0,0,0,0,0,0c0,0,0,0,0,0c0,0-0.1,0-0.1,0
		c0,0-0.1,0-0.1,0c0,0,0,0,0,0c0,0,0,0,0,0c0,0-0.1,0-0.1,0c0,0-0.1,0-0.1,0l0,0c0,0,0,0,0,0c0,0-0.1,0-0.1,0c0,0-0.1,0-0.1,0.1l0,0
		l0,0c0,0-0.1,0-0.1,0.1c0,0-0.1,0-0.1,0.1c0,0,0,0,0,0c0,0,0,0,0,0c0,0-0.1,0-0.1,0.1c0,0-0.1,0-0.1,0c0,0,0,0,0,0c0,0,0,0,0,0
		c-0.1,0-0.1,0-0.2,0.1c0,0-0.1,0-0.1,0c0,0,0,0,0,0c0,0,0,0,0,0c0,0-0.1,0-0.1,0.1c0,0,0,0-0.1,0c0,0,0,0,0,0c0,0,0,0-0.1,0
		c-0.1,0-0.1,0.1-0.2,0.1c0,0,0,0,0,0c0,0,0,0,0,0c0,0,0,0,0,0c0,0-0.1,0-0.1,0c0,0-0.1,0.1-0.1,0.1c0,0,0,0,0,0l0,0
		c-0.1,0-0.1,0.1-0.2,0.1c0,0,0,0-0.1,0c0,0,0,0,0,0c0,0,0,0,0,0c-0.1,0-0.1,0.1-0.2,0.1c0,0,0,0,0,0c0,0,0,0,0,0c0,0-0.1,0-0.1,0.1
		c0,0-0.1,0-0.1,0.1c0,0,0,0,0,0c0,0,0,0,0,0c-0.1,0-0.1,0.1-0.2,0.1c0,0,0,0,0,0c0,0,0,0-0.1,0c0,0-0.1,0-0.1,0.1
		c0,0-0.1,0-0.1,0.1c0,0,0,0-0.1,0c0,0,0,0,0,0c-0.1,0-0.1,0.1-0.2,0.1c0,0,0,0,0,0c-0.1,0-0.1,0.1-0.2,0.1c0,0,0,0,0,0
		c0,0,0,0-0.1,0.1c0,0-0.1,0-0.1,0.1c0,0,0,0-0.1,0c0,0-0.1,0-0.1,0.1c0,0,0,0-0.1,0c0,0,0,0-0.1,0.1C20.1,5,20,5,20,5c0,0,0,0,0,0
		c0,0,0,0-0.1,0.1c0,0-0.1,0.1-0.1,0.1c0,0,0,0,0,0c0,0,0,0-0.1,0.1c0,0-0.1,0.1-0.1,0.1c0,0,0,0-0.1,0c0,0,0,0-0.1,0.1
		c0,0-0.1,0.1-0.1,0.1c0,0,0,0-0.1,0.1c0,0,0,0,0,0c-0.1,0.1-0.3,0.3-0.4,0.4c0,0,0,0,0,0c0,0,0,0,0,0c0,0,0,0-0.1,0.1
		c-0.1,0.1-0.2,0.2-0.3,0.4c0,0,0,0,0,0c0,0,0,0,0,0c-0.1,0.1-0.3,0.3-0.4,0.5c0,0,0,0,0,0c0,0,0,0,0,0c-0.1,0.2-0.2,0.3-0.4,0.5
		c0,0,0,0,0,0c0,0,0,0,0,0c0,0,0,0,0,0c0,0,0,0.1-0.1,0.1c0,0-0.1,0.1-0.1,0.1c0,0,0,0,0,0c0,0,0,0,0,0c0,0.1-0.1,0.1-0.1,0.2
		c0,0,0,0,0,0.1c0,0,0,0,0,0.1c0,0,0,0,0,0.1c0,0,0,0.1,0,0.1c0,0.1-0.1,0.1-0.1,0.2c0,0,0,0.1-0.1,0.1c0,0.1-0.1,0.1-0.1,0.2
		c0,0,0,0,0,0.1c0,0,0,0,0,0.1c0,0.1-0.1,0.1-0.1,0.2c0,0,0,0.1-0.1,0.1c0,0.1-0.1,0.1-0.1,0.2c0,0,0,0.1,0,0.1c0,0,0,0,0,0
		c0,0.1-0.1,0.1-0.1,0.2c0,0,0,0.1-0.1,0.1c0,0.1-0.1,0.1-0.1,0.2c0,0,0,0.1,0,0.1c0,0,0,0,0,0c0,0.1-0.1,0.1-0.1,0.2
		c0,0,0,0.1-0.1,0.1c0,0,0,0,0,0c0,0.1-0.1,0.1-0.1,0.2c0,0,0,0,0,0.1c0,0,0,0,0,0c0,0,0,0.1-0.1,0.1c0,0,0,0.1-0.1,0.1c0,0,0,0,0,0
		c0,0,0,0.1-0.1,0.2c0,0,0,0.1-0.1,0.1c0,0,0,0,0,0c0,0.1,0,0.1-0.1,0.2c0,0,0,0.1,0,0.1c0,0,0,0,0,0c0,0.1,0,0.1-0.1,0.2
		c0,0,0,0.1,0,0.1c0,0,0,0,0,0c0,0,0,0,0,0.1c0,0.1,0,0.1-0.1,0.2c0,0,0,0,0,0c0,0,0,0.1,0,0.1c0,0,0,0.1,0,0.1c0,0,0,0.1,0,0.1
		c0,0,0,0.1,0,0.1c0,0,0,0,0,0.1c0,0.1,0,0.1,0,0.2c0,0,0,0,0,0.1c0,0,0,0,0,0c0,0.1,0,0.1-0.1,0.2c0,0,0,0,0,0c0,0,0,0,0,0.1
		c0,0,0,0.1,0,0.1c0,0,0,0.1,0,0.1c0,0,0,0,0,0.1c0,0,0,0,0,0c0,0.1,0,0.1,0,0.2c0,0,0,0,0,0c0,0,0,0,0,0.1c0,0,0,0.1,0,0.1
		c0,0.1,0,0.1,0,0.2c0,0,0,0,0,0c0,0,0,0,0,0c0,0.1,0,0.1,0,0.2c0,0,0,0.1,0,0.1c0,0,0,0,0,0.1c0,0,0,0,0,0c0,0.1,0,0.1,0,0.2
		c0,0,0,0,0,0.1c0,0,0,0,0,0.1c0,0,0,0.1,0,0.1c0,0.1,0,0.1,0,0.2c0,0,0,0,0,0c0,0,0,0,0,0c0,0,0,0.1,0,0.1c0,0,0,0,0,0c0,0,0,0,0,0
		c0,0,0,0,0,0c0,0,0,0,0,0l7.5,3.5c0-0.1,0-0.2,0-0.3c0,0,0,0,0,0c0-0.1,0-0.2,0-0.3c0,0,0,0,0-0.1c0-0.1,0-0.2,0-0.3c0,0,0,0,0-0.1
		c0-0.1,0-0.2,0-0.3c0,0,0,0,0,0c0-0.1,0-0.2,0.1-0.3c0,0,0,0,0-0.1c0-0.1,0-0.2,0.1-0.3c0,0,0,0,0-0.1c0-0.1,0-0.2,0.1-0.2
		c0,0,0-0.1,0-0.1c0-0.1,0-0.2,0.1-0.3c0,0,0,0,0-0.1c0-0.1,0-0.2,0.1-0.2c0,0,0-0.1,0-0.1c0-0.1,0-0.1,0.1-0.2c0,0,0-0.1,0-0.1
		c0-0.1,0.1-0.2,0.1-0.2c0,0,0,0,0-0.1c0,0,0-0.1,0-0.1c0-0.1,0-0.1,0.1-0.2c0,0,0-0.1,0.1-0.1c0-0.1,0-0.1,0.1-0.2
		c0-0.1,0-0.1,0.1-0.2c0-0.1,0-0.1,0.1-0.2c0-0.1,0-0.1,0.1-0.2c0-0.1,0-0.1,0.1-0.2c0,0,0,0,0-0.1c0-0.1,0.1-0.2,0.1-0.3
		c0,0,0-0.1,0.1-0.1c0-0.1,0.1-0.1,0.1-0.2c0,0,0-0.1,0.1-0.1c0-0.1,0.1-0.1,0.1-0.2c0,0,0-0.1,0.1-0.1c0-0.1,0.1-0.1,0.1-0.2
		c0,0,0-0.1,0.1-0.1c0-0.1,0.1-0.1,0.1-0.2c0,0,0-0.1,0.1-0.1c0-0.1,0.1-0.1,0.1-0.2c0,0,0.1-0.1,0.1-0.1c0-0.1,0.1-0.1,0.1-0.2
		c0,0,0.1-0.1,0.1-0.1c0-0.1,0.1-0.1,0.1-0.2c0,0,0.1-0.1,0.1-0.1c0,0,0,0,0-0.1c0.1-0.1,0.1-0.2,0.2-0.2c0,0,0,0,0,0
		c0.1-0.1,0.1-0.1,0.2-0.2c0,0,0,0,0,0c0,0,0,0,0,0c0.1-0.2,0.3-0.3,0.4-0.5c0,0,0,0,0,0c0.1-0.2,0.3-0.3,0.4-0.5
		c0,0,0.1-0.1,0.1-0.1c0,0,0.1-0.1,0.1-0.1c0,0,0.1-0.1,0.1-0.1c0,0,0.1-0.1,0.1-0.1c0,0,0.1-0.1,0.1-0.1c0,0,0.1-0.1,0.1-0.1
		c0,0,0.1-0.1,0.1-0.1c0,0,0.1-0.1,0.1-0.1c0,0,0.1-0.1,0.1-0.1c0,0,0.1-0.1,0.1-0.1c0,0,0.1-0.1,0.1-0.1c0,0,0.1-0.1,0.1-0.1
		c0,0,0.1-0.1,0.1-0.1c0,0,0.1-0.1,0.1-0.1c0,0,0.1-0.1,0.1-0.1c0,0,0.1-0.1,0.1-0.1c0,0,0.1-0.1,0.1-0.1c0,0,0.1,0,0.1-0.1
		c0.1,0,0.1-0.1,0.2-0.1c0,0,0.1,0,0.1-0.1c0.1-0.1,0.1-0.1,0.2-0.2c0,0,0,0,0,0c0,0,0,0,0,0c0.1-0.1,0.2-0.1,0.2-0.2c0,0,0,0,0.1,0
		c0.1,0,0.1-0.1,0.2-0.1c0,0,0,0,0.1,0c0.1-0.1,0.2-0.1,0.2-0.2c0,0,0,0,0.1,0c0.1,0,0.1-0.1,0.2-0.1c0,0,0,0,0,0
		c0.1,0,0.2-0.1,0.2-0.1c0,0,0,0,0.1,0c0.1,0,0.2-0.1,0.3-0.1c0,0,0,0,0,0c0.1,0,0.2-0.1,0.3-0.1c0,0,0,0,0,0c0.1,0,0.2-0.1,0.2-0.1
		c0,0,0,0,0,0c0.1,0,0.2-0.1,0.2-0.1c0,0,0,0,0,0c0.1,0,0.2-0.1,0.3-0.1c0,0,0,0,0,0c0.1,0,0.2-0.1,0.3-0.1c0,0,0,0,0,0
		c0.1,0,0.2-0.1,0.3-0.1c0,0,0,0,0,0c0.1,0,0.2-0.1,0.3-0.1c0,0,0,0,0,0c0.1,0,0.2-0.1,0.3-0.1c0,0,0,0,0,0c0.1,0,0.2-0.1,0.3-0.1
		c0,0,0,0,0,0C33.1,5,33.2,5,33.3,5c0,0,0,0,0,0l0,0c0.1,0,0.2-0.1,0.3-0.1c0,0,0,0,0,0c0.1,0,0.2,0,0.3-0.1c0,0,0,0,0,0
		c0.1,0,0.2,0,0.3-0.1c0,0,0,0,0,0c0.1,0,0.2,0,0.3,0c0,0,0,0,0,0c0.1,0,0.2,0,0.3,0c0,0,0,0,0,0c0.1,0,0.2,0,0.3,0c0,0,0,0,0,0
		c0.1,0,0.2,0,0.3,0c0.1,0,0.2,0,0.3,0c0,0,0,0,0,0c0.1,0,0.2,0,0.3,0c0,0,0,0,0,0c0.1,0,0.2,0,0.2,0c0,0,0,0,0,0c0,0,0.1,0,0.1,0
		c0,0,0.1,0,0.1,0c0,0,0,0,0,0c0.1,0,0.2,0,0.2,0c0,0,0,0,0,0c0.1,0,0.2,0,0.2,0c0,0,0,0,0,0c0.1,0,0.2,0,0.2,0c0,0,0,0,0,0
		c0.1,0,0.1,0,0.2,0c0,0,0,0,0,0c0.1,0,0.2,0,0.2,0c0,0,0,0,0.1,0c0.1,0,0.1,0,0.2,0c0,0,0,0,0.1,0c0.1,0,0.2,0,0.2,0c0,0,0,0,0,0
		c0.1,0,0.1,0,0.2,0c0,0,0.1,0,0.1,0c0.1,0,0.1,0,0.2,0c0,0,0,0,0.1,0c0.1,0,0.2,0,0.2,0.1c0,0,0,0,0,0c0.1,0,0.1,0,0.2,0.1
		c0,0,0,0,0,0c0.1,0,0.2,0,0.2,0.1c0,0,0,0,0,0l-8.5-2.6c0,0-0.1,0-0.1,0c0,0-0.1,0-0.1,0c0,0-0.1,0-0.1,0c0,0-0.1,0-0.1,0
		c-0.1,0-0.1,0-0.2,0c0,0,0,0,0,0c0,0,0,0,0,0c-0.1,0-0.1,0-0.2,0c-0.1,0-0.1,0-0.2,0c0,0,0,0-0.1,0c0,0,0,0,0,0c0,0,0,0,0,0
		c0,0,0,0-0.1,0c0,0-0.1,0-0.1,0c0,0,0,0,0,0c0,0,0,0,0,0c-0.1,0-0.1,0-0.2,0c0,0,0,0,0,0c0,0,0,0-0.1,0c0,0-0.1,0-0.1,0
		c0,0-0.1,0-0.1,0c0,0,0,0-0.1,0c0,0,0,0,0,0c-0.1,0-0.1,0-0.2,0c0,0,0,0,0,0c0,0,0,0,0,0c0,0,0,0,0,0c0,0-0.1,0-0.1,0
		c0,0-0.1,0-0.1,0c0,0,0,0,0,0c0,0,0,0,0,0c-0.1,0-0.1,0-0.2,0c0,0,0,0,0,0c0,0,0,0,0,0c0,0,0,0-0.1,0c-0.1,0-0.1,0-0.2,0h0
		c0,0,0,0,0,0c-0.1,0-0.1,0-0.2,0c0,0,0,0-0.1,0c0,0,0,0,0,0c0,0,0,0,0,0c0,0,0,0,0,0C28.1,2,28.1,2,28,2L28,2z M39.7,5L39.7,5
		C39.7,5,39.7,5,39.7,5L39.7,5"/>
	<path class="st1" d="M26.9,25.3l7.9,3.7l0.1-0.2L27,25.1L26.9,25.3z M34.9,10.4l9.9,4.7l0.1-0.2L35,10.2L34.9,10.4z M28.3,25
		l7.8,3.7l0.1-0.2l-7.8-3.7L28.3,25z M43.7,13.3L34,8.7l-0.1,0.2l9.7,4.5L43.7,13.3z M29.5,24.5l8.2,3.8l0.1-0.2l-8.2-3.8L29.5,24.5
		z M42.3,11.7l-7.1-3.3l-0.1,0.2l7.1,3.3L42.3,11.7z M32.5,22.3l8.4,3.9L41,26l-8.4-3.9L32.5,22.3z M36,14.7l8.7,4.1l0.1-0.2
		l-8.7-4.1L36,14.7z M30.6,24l8,3.8l0.1-0.2l-8-3.8L30.6,24z M35.6,17.6l8.5,4l0.1-0.2l-8.5-4L35.6,17.6z M35.6,11.5l-0.1,0.2
		l9.5,4.5l0.1-0.2L35.6,11.5z M34.6,20l8.4,3.9l0.1-0.2l-8.4-3.9L34.6,20z"/>
	<rect x="18.1" y="18.8" transform="matrix(0.4637 -0.886 0.886 0.4637 -10.4504 28.6931)" class="st1" width="0.8" height="8.4"/>
	<rect x="27" y="36.9" transform="matrix(0.5498 -0.8353 0.8353 0.5498 -19.536 40.0906)" class="st1" width="0.8" height="2.6"/>
	<rect x="18.6" y="48" transform="matrix(0.6113 -0.7914 0.7914 0.6113 -34.2345 35.4877)" class="st1" width="0.8" height="9.1"/>
	<polygon class="st1" points="26.6,25.1 24.4,23.9 25,23.4 26.6,24.2 	"/>
	<polygon class="st1" points="26.2,24.6 26.5,52.3 22.6,53 22.2,25.1 	"/>
</g>
</svg>
